<?xml version="1.0" standalone="no"?>
<!DOCTYPE svg PUBLIC "-//W3C//DTD SVG 1.1//EN" "http://www.w3.org/Graphics/SVG/1.1/DTD/svg11.dtd" >
<svg xmlns="http://www.w3.org/2000/svg" xmlns:xlink="http://www.w3.org/1999/xlink" version="1.1">
<metadata>
Created by FontForge 20200314 at Fri Feb 12 09:47:00 2016
 By Unknown
Copyright (c) 2008 by Anuthin Wongsunkakon. All rights reserved.
</metadata>
<defs>
<font id="AutomateRegularW00-Regular" horiz-adv-x="500" >
  <font-face 
    font-family="AutomateRegularW00-Regular"
    font-weight="400"
    font-stretch="normal"
    units-per-em="1000"
    panose-1="2 0 5 6 3 0 0 2 0 3"
    ascent="800"
    descent="-200"
    x-height="510"
    cap-height="696"
    bbox="-48 -317 1099 1034"
    underline-thickness="50"
    underline-position="-125"
    unicode-range="U+0020-FB02"
  />
<missing-glyph horiz-adv-x="360" 
 />
    <glyph glyph-name=".notdef" horiz-adv-x="360" 
 />
    <glyph glyph-name=".null" horiz-adv-x="0" 
 />
    <glyph glyph-name="nonmarkingreturn" horiz-adv-x="333" 
 />
    <glyph glyph-name="space" unicode=" " horiz-adv-x="360" 
 />
    <glyph glyph-name="exclam" unicode="!" horiz-adv-x="326" 
d="M197 215q-1 -13 -11 -18.5t-23 -5.5t-22.5 5.5t-10.5 18.5l-34 393v62q0 28 19.5 42.5t47.5 14.5t47.5 -14.5t19.5 -42.5v-62zM163 -8q-27 0 -46.5 19.5t-19.5 46.5t19.5 45.5t46.5 18.5t46 -18.5t19 -45.5t-19 -46.5t-46 -19.5z" />
    <glyph glyph-name="quotedbl" unicode="&#x22;" horiz-adv-x="486" 
d="M377 494q0 -12 -8 -18t-21 -6t-21 6t-8 18l-13 99v95q0 17 12.5 24t29.5 7t29.5 -7t12.5 -24v-95zM167 494q0 -12 -8 -18t-21 -6t-21 6t-8 18l-13 99v95q0 17 12.5 24t29.5 7t29.5 -7t12.5 -24v-95z" />
    <glyph glyph-name="numbersign" unicode="#" horiz-adv-x="709" 
d="M458 17q-2 -13 -13.5 -21t-30.5 -8q-17 0 -27 8.5t-8 20.5l18 185h-121l-18 -185q-2 -13 -13 -21t-31 -8q-17 0 -27 8.5t-8 20.5l18 185h-82q-9 0 -17.5 7.5t-8.5 28.5t10.5 30.5t21.5 9.5h84l12 137h-81q-9 0 -18 8t-9 28q0 22 10.5 31.5t22.5 9.5h84l18 185q1 13 13 21
t31 8q17 0 26.5 -9t8.5 -20l-18 -185h121l18 185q1 13 12.5 21t31.5 8q17 0 26.5 -9t8.5 -20l-18 -185h89q9 0 17.5 -7.5t8.5 -28.5t-10 -31t-24 -10h-89l-12 -137h87q11 0 19 -7.5t8 -26.5q0 -22 -10 -32t-25 -10h-88zM406 278l12 137h-122l-12 -137h122z" />
    <glyph glyph-name="dollar" unicode="$" horiz-adv-x="655" 
d="M372 -84q0 -13 -7 -20.5t-25 -7.5t-25.5 7.5t-7.5 20.5v186h-153q-17 0 -27.5 12t-10.5 29q0 18 9.5 29.5t26.5 11.5h263q25 0 42.5 17t17.5 43q0 30 -20.5 43.5t-44.5 14.5l-154 5q-35 2 -64.5 13t-50.5 29t-33 42.5t-12 53.5q0 30 11 57t30.5 47.5t47.5 32.5t63 12h59
v176q0 13 7.5 20.5t25.5 7.5t25 -7.5t7 -20.5v-176h124q17 0 26.5 -12t9.5 -29q0 -18 -9.5 -29.5t-26.5 -11.5h-256q-24 0 -42 -18t-18 -44q0 -15 7 -26.5t17 -19t22 -11.5t22 -4l160 -4q33 -1 61 -12.5t48 -30t31 -43t11 -51.5q0 -30 -11 -56.5t-31 -46.5t-48 -31.5
t-62 -11.5h-35v-186z" />
    <glyph glyph-name="percent" unicode="%" horiz-adv-x="818" 
d="M360 478q0 -19 -7.5 -35.5t-20 -28.5t-29.5 -18.5t-35 -6.5h-80q-18 0 -35 6.5t-29.5 18.5t-20 28.5t-7.5 35.5v129q0 18 7.5 34.5t20 28.5t29.5 19t35 7h80q18 0 35 -7t29.5 -19t20 -28.5t7.5 -34.5v-129zM244 19q-8 -13 -19.5 -21.5t-27.5 -8.5q-19 0 -31 11.5
t-12 25.5q0 11 2.5 19t12.5 22l418 624q8 12 19 20.5t26 8.5q20 0 32.5 -11.5t12.5 -26.5q0 -11 -3 -19t-13 -22zM722 89q0 -18 -7.5 -34.5t-20 -28.5t-29.5 -19t-35 -7h-79q-18 0 -35 7t-30 19t-20.5 28.5t-7.5 34.5v129q0 19 7.5 35t20.5 28t30 19t35 7h79q18 0 35 -6.5
t29.5 -18.5t20 -28.5t7.5 -35.5v-129zM277 458q13 0 13 14v141q0 13 -13 13h-98q-13 0 -13 -13v-141q0 -14 13 -14h98zM640 70q13 0 13 13v141q0 14 -13 14h-99q-13 0 -13 -14v-141q0 -13 13 -13h99z" />
    <glyph glyph-name="ampersand" unicode="&#x26;" horiz-adv-x="716" 
d="M629 53q11 -17 11 -28q0 -15 -10 -27t-30 -12q-17 0 -26 8t-18 19l-28 36q-28 -26 -62 -41t-72 -15h-146q-33 0 -60.5 11.5t-48 31.5t-32 46.5t-11.5 57.5v122q0 38 19.5 70.5t51.5 40.5q-21 13 -33 40t-12 51v94q0 33 11 60.5t31 47t47.5 30t60.5 10.5h112
q67 0 107.5 -41t40.5 -107v-41q0 -17 -12.5 -26t-29.5 -9t-29.5 9t-12.5 26v53q0 24 -15 41.5t-41 17.5h-128q-26 0 -42 -17.5t-16 -41.5v-107q0 -35 18.5 -54t47.5 -19h36q38 0 67.5 -17t49.5 -45l101 -142q2 11 4 25.5t2 26.5v46q0 17 12.5 26t29.5 9t29.5 -9t12.5 -26
v-39q0 -34 -9.5 -67t-25.5 -63zM392 74q25 0 47.5 11t40.5 29l-120 166q-17 23 -33 32.5t-39 9.5h-56q-8 0 -17 -4t-17 -11.5t-13 -18t-5 -23.5v-129q0 -25 17 -43.5t43 -18.5h152z" />
    <glyph glyph-name="quotesingle" unicode="'" horiz-adv-x="276" 
d="M167 494q0 -12 -8 -18t-21 -6t-21 6t-8 18l-14 99v93q0 17 13 25t30 8t30 -8t13 -25v-93z" />
    <glyph glyph-name="parenleft" unicode="(" horiz-adv-x="476" 
d="M356 -24q17 0 26 -12t9 -29t-9 -29t-26 -12h-84q-37 0 -69 13.5t-56 37.5t-37.5 56t-13.5 70v612q0 37 13.5 69t37.5 56t56 37.5t69 13.5h84q17 0 26 -12t9 -29t-9 -28.5t-26 -11.5h-92q-36 0 -60 -26t-24 -62v-626q0 -36 24 -62t60 -26h92z" />
    <glyph glyph-name="parenright" unicode=")" horiz-adv-x="476" 
d="M380 71q0 -38 -13.5 -70t-37.5 -56t-56 -37.5t-69 -13.5h-84q-17 0 -26 12t-9 29t9 29t26 12h92q36 0 60 26t24 62v626q0 36 -24 62t-60 26h-92q-17 0 -26 11.5t-9 28.5t9 29t26 12h84q37 0 69 -13.5t56 -37.5t37.5 -56t13.5 -69v-612z" />
    <glyph glyph-name="asterisk" unicode="*" horiz-adv-x="617" 
d="M515 254q8 -5 8 -18q0 -9 -4.5 -18.5t-11.5 -18t-16 -13.5t-18 -5q-4 0 -8 0.5t-8 4.5l-111 113l-8 -3l15 -158q1 -7 -3.5 -12.5t-12 -9t-15.5 -5.5t-14 -2q-5 0 -13 2t-15 5.5t-12 9t-4 12.5l14 158l-7 3l-111 -113q-4 -4 -8 -4.5t-8 -0.5q-9 0 -18 5t-16 13.5t-11.5 18
t-4.5 18.5q0 13 8 18l127 89v10l-127 89q-5 2 -6.5 7.5t-1.5 10.5q0 8 4.5 17.5t11.5 18t16 14t18 5.5t16 -5l111 -113l7 3l-14 158q-1 7 4 12.5t12 9t15 5.5t13 2q6 0 14 -2t15.5 -5.5t12 -9t3.5 -12.5l-15 -158l8 -3l111 113q7 5 16 5t18 -5.5t16 -14t11.5 -18t4.5 -17.5
q0 -5 -1.5 -10.5t-6.5 -7.5l-127 -89v-10z" />
    <glyph glyph-name="plus" unicode="+" horiz-adv-x="682" 
d="M382 127q0 -17 -12 -26t-30 -9q-17 0 -29.5 9t-12.5 26v179h-179q-17 0 -26 12t-9 29t9 30t26 13h179v178q0 17 12.5 25.5t29.5 8.5q18 0 30 -8.5t12 -25.5v-178h181q17 0 26 -13t9 -30t-9 -29t-26 -12h-181v-179z" />
    <glyph glyph-name="comma" unicode="," horiz-adv-x="240" 
d="M107 7q-27 0 -41 20t-14 41q0 34 21.5 52t53.5 18t52.5 -22t20.5 -52q0 -54 -18.5 -91t-56.5 -69q-17 -14 -35 -14q-11 0 -15.5 7t-4.5 12q0 13 9 20.5t19.5 16t19.5 22t9 39.5h-20z" />
    <glyph glyph-name="hyphen" unicode="-" horiz-adv-x="703" 
d="M560 467q21 0 31.5 -15t10.5 -36q0 -20 -10.5 -34t-31.5 -14h-417q-21 0 -31.5 14t-10.5 34q0 21 10.5 36t31.5 15h417z" />
    <glyph glyph-name="period" unicode="." horiz-adv-x="229" 
d="M114 -4q-29 0 -50 22t-21 52t21 52t50 22q30 0 51 -22t21 -52t-21 -52t-51 -22z" />
    <glyph glyph-name="slash" unicode="/" horiz-adv-x="527" 
d="M109 -90q-5 -11 -16 -20t-23 -9q-22 0 -35 10.5t-13 26.5q0 9 2 17t5 16l374 837q9 21 19 30t24 9q22 0 35 -10.5t13 -26.5q0 -9 -2 -17t-5 -16z" />
    <glyph glyph-name="zero" unicode="0" horiz-adv-x="685" 
d="M589 170q0 -35 -13 -66t-35.5 -54t-53.5 -36.5t-67 -13.5h-154q-36 0 -67 13t-54 36t-36 54t-13 67v356q0 34 12.5 65t35 54t53.5 37t69 14h154q38 0 69 -14t53.5 -37t34.5 -54t12 -65v-356zM428 82q16 0 30 6.5t24.5 18t16.5 26t6 30.5v370q0 15 -6 29.5t-16 26
t-24.5 18.5t-30.5 7h-170q-15 0 -29.5 -6.5t-25 -17.5t-17 -26t-6.5 -31v-370q0 -14 6 -28.5t16.5 -26t24.5 -19t31 -7.5h170z" />
    <glyph glyph-name="one" unicode="1" horiz-adv-x="499" 
d="M378 77q35 0 35 -37q0 -18 -9 -29t-26 -11h-257q-17 0 -26 11t-9 29q0 37 35 37h85v541h-85q-17 0 -26 11t-9 29q0 17 9 27.5t26 10.5h169v-619h88z" />
    <glyph glyph-name="two" unicode="2" horiz-adv-x="674" 
d="M558 82q17 0 26 -12t9 -29q0 -18 -9 -29.5t-26 -11.5h-462v73q0 55 29 100t72.5 82t94 69t94 61.5t72.5 58.5t29 62v46q0 24 -16.5 45t-45.5 21h-169q-35 0 -53.5 -18t-18.5 -60q0 -17 -14 -26.5t-31 -9.5t-30 9.5t-13 26.5q0 34 10.5 63.5t30 51.5t48.5 34.5t67 12.5
h164q35 0 64 -11.5t50 -31.5t32.5 -47t11.5 -58v-50q0 -47 -28.5 -85t-71 -71.5t-92.5 -64t-92.5 -60.5t-71 -62.5t-28.5 -69.5v-9h368z" />
    <glyph glyph-name="three" unicode="3" horiz-adv-x="677" 
d="M581 154q0 -35 -12.5 -64t-35 -50.5t-52.5 -33.5t-65 -12h-160q-70 0 -115 36.5t-45 107.5v18q0 17 13 26t30 9t31.5 -9t13.5 -26l-2 -23q-1 -27 16 -42t59 -15h167q15 0 28 5.5t23 15t16 22.5t6 27v107q0 26 -18 44.5t-42 18.5h-147q-17 0 -25.5 10.5t-8.5 28.5
q0 17 8.5 28t25.5 11h144q26 0 44.5 19t18.5 42v91q0 33 -19 53.5t-53 20.5l-171 -1q-35 0 -53.5 -18.5t-18.5 -60.5q0 -17 -13.5 -26.5t-30.5 -9.5t-30 9.5t-13 26.5q0 34 10.5 63.5t30 51.5t48.5 34.5t67 12.5h164q38 0 68.5 -12t52.5 -33t33.5 -50t11.5 -63v-80
q0 -33 -16.5 -62.5t-40.5 -46.5q26 -16 41.5 -45t15.5 -63v-93z" />
    <glyph glyph-name="four" unicode="4" horiz-adv-x="732" 
d="M538 28q0 -17 -12.5 -26t-29.5 -9t-31 9t-14 26v122h-315q-17 0 -31.5 7t-14.5 27q0 14 3.5 23t13.5 23l335 448q14 18 24.5 22t31.5 4q19 0 29.5 -10.5t10.5 -25.5v-436h70q17 0 26 -12t9 -29q0 -18 -9 -29.5t-26 -11.5h-70v-122zM452 232v328l-246 -328h246z" />
    <glyph glyph-name="five" unicode="5" horiz-adv-x="680" 
d="M584 164q0 -81 -50 -125.5t-131 -44.5h-147q-70 0 -115 36.5t-45 107.5v18q0 17 13 26t30 9t31.5 -9t13.5 -26l-2 -23q-1 -27 16 -42t59 -15h155q38 0 63 20.5t25 60.5v112q0 51 -24 73.5t-69 22.5q-31 0 -74 -1t-86 -1.5t-79.5 -1.5t-54.5 -1l7 259q1 32 25 54.5
t60 22.5h313q17 0 26 -12t9 -29q0 -18 -9 -29.5t-26 -11.5h-303q-13 0 -13 -13l-5 -159q11 0 31 0.5t46.5 1.5t57.5 1.5t64 0.5q85 0 136.5 -44.5t51.5 -132.5v-105z" />
    <glyph glyph-name="six" unicode="6" horiz-adv-x="694" 
d="M598 164q0 -36 -13 -67.5t-36.5 -54t-56 -35.5t-70.5 -13h-156q-38 0 -69 14t-53.5 37.5t-35 54t-12.5 63.5v343q0 37 13.5 72.5t39 63t60.5 44t79 16.5h139q37 0 66.5 -12.5t49.5 -34.5t30.5 -51.5t10.5 -63.5q0 -17 -13 -26.5t-30 -9.5q-18 0 -31 9.5t-13 26.5
q0 42 -18.5 60t-54.5 18h-134q-26 0 -46.5 -9.5t-34.5 -25.5t-22 -36.5t-8 -42.5l1 -162l67 60q17 15 41 24.5t46 9.5h99q36 0 66.5 -13t52 -35.5t34 -52.5t12.5 -64v-107zM425 76q43 0 66 22.5t23 65.5v112q0 38 -23 60t-57 22h-90q-40 0 -70 -27l-95 -85l1 -85
q0 -37 24.5 -61t59.5 -24h161z" />
    <glyph glyph-name="seven" unicode="7" horiz-adv-x="658" 
d="M305 28q0 -17 -13 -26t-30 -9t-31.5 9t-14.5 26v168q0 46 18.5 85.5t46.5 74t60.5 65t60.5 58.5t46.5 54t18.5 51v30h-345q-17 0 -25.5 12t-8.5 29t8.5 29t25.5 12h440v-90q0 -40 -19 -75t-47.5 -67t-62 -62.5t-62 -62t-47.5 -65.5t-19 -72v-174z" />
    <glyph glyph-name="eight" unicode="8" horiz-adv-x="690" 
d="M594 146q0 -32 -12.5 -59.5t-34 -48t-50 -32.5t-59.5 -12h-186q-32 0 -60 12t-49.5 32.5t-34 48t-12.5 59.5v105q0 32 15.5 59.5t43.5 44.5q-27 17 -43 47t-16 62v80q0 33 14 61.5t37 50t53 34t62 12.5h166q32 0 62 -12.5t53 -34t37 -50t14 -61.5v-80q0 -32 -16 -62
t-43 -47q28 -17 43.5 -44.5t15.5 -59.5v-105zM444 395q28 0 47 17t19 45v88q0 32 -23.5 53.5t-55.5 21.5h-172q-32 0 -55.5 -21.5t-23.5 -53.5v-88q0 -28 19 -45t47 -17h198zM436 76q32 0 53 18.5t21 50.5v106q0 27 -16.5 44.5t-44.5 17.5h-208q-28 0 -44.5 -17.5
t-16.5 -44.5v-106q0 -32 21 -50.5t53 -18.5h182z" />
    <glyph glyph-name="nine" unicode="9" horiz-adv-x="689" 
d="M593 178q0 -38 -13 -71t-37.5 -58.5t-59 -40t-76.5 -14.5h-139q-35 0 -65.5 9.5t-53.5 28.5t-36 46t-13 62v18q0 17 13 26t30 9t31 -9t13 -26l-1 -22q-1 -27 15.5 -43.5t58.5 -16.5h144q49 0 76.5 29.5t28.5 74.5v142l-36 -29q-40 -33 -85 -33h-128q-36 0 -66 13
t-52 35.5t-34 52.5t-12 64v110q0 34 12.5 64.5t34.5 53t53 36t67 13.5h152q39 0 71.5 -14t56 -37.5t37 -55t13.5 -66.5v-351zM509 412v120q0 38 -23.5 63t-61.5 25h-162q-34 0 -58 -22t-24 -56v-130q0 -14 6.5 -27t16.5 -23.5t23 -17t26 -6.5h125q24 0 37.5 4.5t30.5 18.5z
" />
    <glyph glyph-name="colon" unicode=":" horiz-adv-x="328" 
d="M163 430q-29 0 -50 21.5t-21 51.5q0 31 21 52.5t50 21.5q30 0 51 -21.5t21 -52.5q0 -30 -21 -51.5t-51 -21.5zM163 -4q-29 0 -50 22t-21 52t21 52t50 22q30 0 51 -22t21 -52t-21 -52t-51 -22z" />
    <glyph glyph-name="semicolon" unicode=";" horiz-adv-x="331" 
d="M166 430q-29 0 -50 21.5t-21 51.5q0 31 21 52.5t50 21.5t50.5 -21.5t21.5 -52.5q0 -30 -21.5 -51.5t-50.5 -21.5zM148 7q-26 0 -41 20t-15 41q0 34 22 52t54 18t52.5 -22t20.5 -52q0 -54 -18.5 -91t-56.5 -69q-17 -14 -35 -14q-11 0 -16 7t-5 12q0 13 9 20.5t20 16t20 22
t9 39.5h-20z" />
    <glyph glyph-name="less" unicode="&#x3c;" horiz-adv-x="526" 
d="M440 100q11 -8 14.5 -15t3.5 -15q0 -17 -11.5 -28t-26.5 -11q-12 0 -18 3.5t-19 13.5l-318 254q-8 6 -12.5 13.5t-4.5 19.5q0 21 17 33l318 255q13 10 19 13.5t18 3.5q15 0 26.5 -11t11.5 -28q0 -8 -3.5 -15t-14.5 -15l-289 -231v-9z" />
    <glyph glyph-name="equal" unicode="=" horiz-adv-x="607" 
d="M488 469q17 0 26 -12.5t9 -29.5t-9 -28t-26 -11h-369q-17 0 -26 11t-9 28t9 29.5t26 12.5h369zM488 296q17 0 26 -12.5t9 -29.5t-9 -28t-26 -11h-369q-17 0 -26 11t-9 28t9 29.5t26 12.5h369z" />
    <glyph glyph-name="greater" unicode="&#x3e;" horiz-adv-x="526" 
d="M143 48q-13 -10 -19.5 -13.5t-17.5 -3.5q-16 0 -27.5 11t-11.5 28q0 15 18 30l289 231v9l-289 231q-18 13 -18 30t11.5 28t27.5 11q11 0 17.5 -3.5t19.5 -13.5l318 -255q17 -12 17 -33q0 -12 -5 -19.5t-12 -13.5z" />
    <glyph glyph-name="question" unicode="?" horiz-adv-x="670" 
d="M379 206q0 -17 -12.5 -25.5t-29.5 -8.5t-30.5 8.5t-13.5 25.5v34q0 30 14.5 54.5t36 45.5t46.5 40t46.5 37t36 36.5t14.5 38.5v54q0 76 -75 76h-164q-35 0 -49.5 -18t-14.5 -60q0 -17 -14 -26.5t-31 -9.5t-30 9.5t-13 26.5q0 34 10.5 63.5t30 51.5t48.5 34.5t67 12.5h154
q84 0 126 -43.5t42 -112.5v-53q0 -33 -14.5 -59.5t-36 -48t-47 -40t-47 -37t-36 -37.5t-14.5 -41v-28zM402 58q0 -27 -19 -46t-46 -19t-46 19t-19 46t19 46.5t46 19.5t46 -19.5t19 -46.5z" />
    <glyph glyph-name="at" unicode="@" horiz-adv-x="787" 
d="M560 0q17 0 26 -12t9 -29q0 -18 -9 -28.5t-26 -10.5h-199q-53 0 -97 15t-76 44t-50 70.5t-18 95.5v306q0 118 65 181.5t180 63.5h133q38 0 69 -12.5t53.5 -34.5t34.5 -52t12 -65v-407h-217q-34 0 -62.5 10.5t-49 29t-32 44.5t-11.5 56v77q0 30 11.5 56t31.5 46t48.5 31.5
t63.5 11.5h133v52q0 35 -19.5 55t-57.5 20h-151q-78 0 -114.5 -42t-36.5 -114v-320q0 -63 38.5 -100.5t110.5 -37.5h207zM583 205v201h-133q-71 0 -71 -69v-66q0 -28 18 -46.5t53 -19.5h133z" />
    <glyph glyph-name="A" unicode="A" horiz-adv-x="660" 
d="M582 28q0 -17 -12.5 -26t-29.5 -9t-30.5 9t-13.5 26v202h-333v-202q0 -17 -12.5 -26t-29.5 -9t-30 9t-13 26v392q0 40 11.5 71.5t40.5 60.5l140 138q8 8 22.5 15t36.5 7q19 0 35 -7t24 -15l142 -138q30 -28 41 -60t11 -72v-392zM497 306v109q0 27 -6.5 46t-26.5 38
l-134 131l-134 -131q-20 -19 -26.5 -38t-6.5 -46v-109h334z" />
    <glyph glyph-name="B" unicode="B" horiz-adv-x="659" 
d="M577 168q0 -78 -44 -124t-131 -46h-306v700h305q39 0 71 -13t54.5 -35.5t35 -53.5t12.5 -68v-49q0 -54 -18.5 -82.5t-44.5 -43.5q28 -13 47 -45t19 -74v-66zM414 392q38 0 55.5 18.5t17.5 69.5v58q0 38 -22 60t-58 22h-228v-228h235zM400 74q42 0 66.5 20.5t24.5 62.5v65
q0 49 -18 70t-52 21h-242v-239h221z" />
    <glyph glyph-name="C" unicode="C" horiz-adv-x="649" 
d="M527 -6h-273q-38 0 -69 13.5t-53.5 36.5t-35 54t-12.5 66v368q0 36 12.5 67t35 54t53.5 36t69 13h276q17 0 26 -12t9 -29q0 -18 -9 -30.5t-26 -12.5h-282q-37 0 -57.5 -23.5t-20.5 -58.5v-378q0 -34 22.5 -57.5t55.5 -23.5h278q17 0 25.5 -12t8.5 -29q0 -18 -8.5 -29.5
t-25.5 -11.5z" />
    <glyph glyph-name="D" unicode="D" horiz-adv-x="688" 
d="M604 174q0 -36 -14 -68t-39 -56t-59 -38t-74 -14h-322v700h319q40 0 74.5 -14.5t60 -39t40 -58t14.5 -70.5v-342zM424 79q39 0 66 23t27 65v356q0 19 -7.5 36.5t-20 30t-30 20t-38.5 7.5h-241v-538h244z" />
    <glyph glyph-name="E" unicode="E" horiz-adv-x="592" 
d="M493 82q17 0 26 -12t9 -29q0 -18 -9 -29.5t-26 -11.5h-397v696h397q17 0 26 -12t9 -29q0 -18 -9 -29.5t-26 -11.5h-313v-225h240q17 0 26 -12t9 -29q0 -18 -9 -30t-26 -12h-240v-224h313z" />
    <glyph glyph-name="F" unicode="F" horiz-adv-x="552" 
d="M180 28q0 -17 -12 -26t-29 -9t-30 9t-13 26v668h392q17 0 26 -12t9 -29q0 -18 -9 -29.5t-26 -11.5h-308v-225h235q17 0 26 -12t9 -29q0 -18 -9 -30t-26 -12h-235v-278z" />
    <glyph glyph-name="G" unicode="G" horiz-adv-x="684" 
d="M600 138q0 -35 -13.5 -62t-37 -45t-54.5 -27.5t-65 -9.5h-176q-38 0 -69 13.5t-53.5 36.5t-35 54t-12.5 66v368q0 36 12.5 67t35 54t53.5 36t69 13h285q17 0 26 -12t9 -29q0 -18 -9 -30.5t-26 -12.5h-291q-37 0 -57.5 -23.5t-20.5 -58.5v-378q0 -34 22.5 -57.5
t55.5 -23.5h188q42 0 60 14.5t18 41.5v177h-119q-17 0 -26 10.5t-9 28.5q0 17 9 28.5t26 11.5h205v-251z" />
    <glyph glyph-name="H" unicode="H" horiz-adv-x="688" 
d="M592 28q0 -17 -12 -26t-29 -9t-30 9t-13 26v278h-328v-278q0 -17 -12 -26t-29 -9t-30 9t-13 26v642q0 17 13 25.5t30 8.5t29 -8.5t12 -25.5v-281h328v281q0 17 13 25.5t30 8.5t29 -8.5t12 -25.5v-642z" />
    <glyph glyph-name="I" unicode="I" horiz-adv-x="430" 
d="M334 79q17 0 25.5 -11t8.5 -28t-8.5 -28.5t-25.5 -11.5h-238q-17 0 -26 11.5t-9 28.5t9 28t26 11h77v538h-77q-17 0 -26 11t-9 28t9 28.5t26 11.5h238q17 0 25.5 -11.5t8.5 -28.5t-8.5 -28t-25.5 -11h-76v-538h76z" />
    <glyph glyph-name="J" unicode="J" horiz-adv-x="565" 
d="M469 164q0 -38 -12.5 -68t-34.5 -51.5t-52 -33t-64 -11.5h-102q-35 0 -65.5 11.5t-53 32.5t-36 50.5t-13.5 65.5v16q0 17 12.5 26t29.5 9t29.5 -9t12.5 -26v-27q0 -31 21.5 -50t54.5 -19h112q35 0 55.5 20.5t20.5 53.5v460h-116q-17 0 -26.5 12t-9.5 29t9.5 29t26.5 12
h201v-532z" />
    <glyph glyph-name="K" unicode="K" horiz-adv-x="646" 
d="M566 60q11 -17 11 -28q0 -15 -11 -27t-31 -12q-16 0 -26 7.5t-18 19.5l-204 317l-105 -122l2 -187q0 -17 -13.5 -26t-30.5 -9t-30.5 9t-13.5 26v642q0 17 13.5 25.5t30.5 8.5t30.5 -8.5t13.5 -25.5v-328l306 344q5 6 14.5 12t22.5 6q18 0 28.5 -12t10.5 -26
q0 -10 -2.5 -15.5t-13.5 -18.5l-207 -229z" />
    <glyph glyph-name="L" unicode="L" horiz-adv-x="553" 
d="M478 82q17 0 25.5 -12t8.5 -29q0 -18 -8.5 -29.5t-25.5 -11.5h-382v670q0 17 13.5 25.5t30.5 8.5t31 -8.5t14 -25.5v-588h293z" />
    <glyph glyph-name="M" unicode="M" horiz-adv-x="749" 
d="M653 28q0 -17 -12.5 -26t-29.5 -9t-31 9t-14 26v494l4 40l-14 -27l-143 -185q-18 -21 -37 -21q-22 0 -40 21l-143 185l-14 27l3 -40v-494q0 -17 -12.5 -26t-29.5 -9t-30.5 9t-13.5 26v638q0 15 9 26.5t35 11.5q10 0 16.5 -1t12 -4.5t11 -10t13.5 -17.5l177 -237h9
l177 237q8 11 13 17.5t10.5 10t12 4.5t16.5 1q26 0 35.5 -11.5t9.5 -26.5v-638z" />
    <glyph glyph-name="N" unicode="N" horiz-adv-x="691" 
d="M595 28q0 -17 -12.5 -26t-29.5 -9t-30.5 9t-13.5 26v169l-300 335l-30 38l3 -60v-482q0 -17 -12.5 -26t-29.5 -9t-30.5 9t-13.5 26v640q0 13 9 24.5t31 11.5q10 0 16.5 -1t12 -4t11.5 -8.5t14 -14.5l288 -317l34 -43l-3 54v300q0 17 13.5 25.5t30.5 8.5t29.5 -8.5
t12.5 -25.5v-642z" />
    <glyph glyph-name="O" unicode="O" horiz-adv-x="677" 
d="M599 166q0 -36 -13.5 -67t-37.5 -54.5t-57 -37t-72 -13.5h-161q-39 0 -72 13.5t-57 37t-37.5 54.5t-13.5 67v363q0 36 14 67.5t38 55t56 37t68 13.5h168q37 0 69.5 -13.5t56.5 -37t37.5 -55t13.5 -67.5v-363zM427 76q19 0 35 7t28 18.5t18.5 26.5t6.5 32v376
q0 17 -6.5 32.5t-18 27t-26.5 18t-33 6.5h-185q-37 0 -60.5 -24.5t-23.5 -59.5v-376q0 -34 24.5 -59t63.5 -25h177z" />
    <glyph glyph-name="P" unicode="P" horiz-adv-x="622" 
d="M180 28q0 -17 -12 -26t-29 -9t-30 9t-13 26v672h304q36 0 67 -12.5t53.5 -34t35 -52t12.5 -66.5v-66q0 -34 -12 -64t-34 -52t-53 -35t-69 -13h-220v-277zM406 384q38 0 58 20.5t20 57.5v83q0 35 -21.5 55t-54.5 20h-228v-236h226z" />
    <glyph glyph-name="Q" unicode="Q" horiz-adv-x="677" 
d="M572 40q9 -11 9 -26q0 -16 -11 -25t-28 -9q-10 0 -17 5t-15 14l-62 80l-30 -31q-26 -28 -55.5 -41t-56.5 -13h-48q-39 0 -72 13.5t-57 37t-37.5 54.5t-13.5 67v363q0 36 14 67.5t38 55t56 37t68 13.5h168q37 0 69.5 -13.5t56.5 -37t37.5 -55t13.5 -67.5v-212
q0 -37 -9 -69.5t-33 -56.5l-58 -59zM400 144l-76 100q-8 11 -8 25t10.5 24.5t27.5 10.5t32 -20l66 -87l40 41q13 12 18 31t5 43v224q0 17 -6.5 32.5t-18 27t-26.5 18t-33 6.5h-185q-37 0 -60.5 -24.5t-23.5 -59.5v-376q0 -34 24.5 -60t63.5 -26h50q14 0 30 8t29 21z" />
    <glyph glyph-name="R" unicode="R" horiz-adv-x="662" 
d="M578 28q0 -17 -12.5 -26t-29.5 -9t-30.5 9t-13.5 26v190q0 43 -22 65t-62 22h-228v-277q0 -17 -12 -26t-29 -9t-30 9t-13 26v672h314q36 0 67 -12.5t53.5 -34t35 -52t12.5 -66.5v-66q0 -51 -21 -85.5t-52 -48.5q31 -11 52 -41.5t21 -69.5v-196zM416 384q39 0 58.5 20.5
t19.5 57.5v83q0 35 -21 55t-54 20h-239v-236h236z" />
    <glyph glyph-name="S" unicode="S" horiz-adv-x="617" 
d="M551 154q0 -35 -12.5 -64.5t-34.5 -50.5t-52 -32.5t-66 -11.5h-256q-20 0 -29.5 11.5t-9.5 28.5t9 29.5t26 12.5h266q38 0 56.5 21t18.5 56v76q0 29 -17.5 49t-48.5 22l-178 18q-34 4 -62.5 16.5t-49.5 32t-33 46.5t-12 61v69q0 35 13.5 64t36 50t52 32.5t62.5 11.5h245
q21 0 29 -13t8 -30t-9 -28.5t-28 -11.5h-253q-32 0 -52 -20.5t-20 -53.5v-77q0 -24 17.5 -42t47.5 -22l177 -20q75 -9 117 -50t42 -107v-73z" />
    <glyph glyph-name="T" unicode="T" horiz-adv-x="611" 
d="M350 28q0 -17 -13.5 -26t-30.5 -9t-32 9t-15 26v586h-185q-17 0 -25.5 11.5t-8.5 28.5t8.5 29.5t25.5 12.5h462q17 0 26 -12.5t9 -29.5t-9 -28.5t-26 -11.5h-186v-586z" />
    <glyph glyph-name="U" unicode="U" horiz-adv-x="674" 
d="M590 169q0 -36 -13.5 -67.5t-38 -55.5t-59 -38t-76.5 -14h-132q-42 0 -76.5 14t-59 38t-38 55.5t-13.5 67.5v501q0 17 13.5 25.5t30.5 8.5t31 -8.5t14 -25.5v-508q0 -37 23 -62.5t66 -25.5h151q42 0 65.5 25.5t23.5 62.5v508q0 17 13.5 25.5t30.5 8.5t30.5 -8.5
t13.5 -25.5v-501z" />
    <glyph glyph-name="V" unicode="V" horiz-adv-x="655" 
d="M413 34q-24 -26 -40 -38t-45 -12t-45.5 12t-40.5 38l-118 126q-24 25 -35 51t-11 70v389q0 17 13.5 25.5t30.5 8.5t30.5 -8.5t13.5 -25.5v-384q0 -29 4.5 -44t19.5 -31l133 -139h12l131 139q14 16 19 31t5 44v384q0 17 13 25.5t31 8.5q17 0 30 -8.5t13 -25.5v-389
q0 -44 -11 -70t-34 -51z" />
    <glyph glyph-name="W" unicode="W" horiz-adv-x="780" 
d="M586 13q-23 -29 -58 -29q-36 0 -56 29l-77 119h-10l-77 -119q-20 -29 -56 -29q-35 0 -58 29l-70 97q-20 29 -30 55.5t-10 62.5v442q0 17 13.5 25.5t30.5 8.5t30.5 -8.5t13.5 -25.5v-442q0 -22 3.5 -37.5t16.5 -32.5l58 -84h8l65 101l17.5 28t7.5 29v254q0 17 12.5 26
t29.5 9t29.5 -9t12.5 -26v-254q0 -17 8 -29t18 -28l64 -101h8l58 84q13 17 16.5 32.5t3.5 37.5v442q0 17 14 25.5t31 8.5t30 -8.5t13 -25.5v-442q0 -36 -10 -62.5t-30 -55.5z" />
    <glyph glyph-name="X" unicode="X" horiz-adv-x="658" 
d="M578 28q0 -17 -13 -26t-30 -9t-30.5 9t-13.5 26v80q0 23 -5.5 37t-23.5 29l-142 127h-8l-120 -127q-17 -18 -22.5 -32.5t-5.5 -43.5v-70q0 -17 -13 -26t-30 -9t-30 9t-13 26v75q0 41 10 67.5t38 55.5l125 130l-129 118q-21 20 -32.5 44t-11.5 69v83q0 17 13 25.5t30 8.5
t30 -8.5t13 -25.5v-89q0 -21 4 -31t18 -23l146 -132h10l128 140q12 14 17 23.5t5 27.5v84q0 17 13.5 25.5t30.5 8.5t30.5 -8.5t13.5 -25.5v-89q0 -32 -8.5 -54.5t-32.5 -46.5l-137 -139l122 -111q16 -14 26.5 -26.5t16.5 -26t8.5 -29t2.5 -35.5v-85z" />
    <glyph glyph-name="Y" unicode="Y" horiz-adv-x="618" 
d="M353 28q0 -17 -12.5 -26t-29.5 -9t-31 9t-14 26v235l-166 152q-40 39 -40 106v149q0 17 12.5 25.5t29.5 8.5t29.5 -8.5t12.5 -25.5v-144q0 -22 3 -35t17 -25l136 -124h17l135 124q13 11 17 24.5t4 35.5v144q0 17 13 25.5t30 8.5t29.5 -8.5t12.5 -25.5v-149
q0 -36 -8 -59.5t-32 -46.5l-165 -152v-235z" />
    <glyph glyph-name="Z" unicode="Z" horiz-adv-x="594" 
d="M508 80q17 0 26.5 -11.5t9.5 -28.5t-9.5 -28.5t-26.5 -11.5h-405q-23 0 -32.5 12t-9.5 26q0 18 5.5 30.5t19.5 34.5l338 513h-332q-17 0 -26.5 11t-9.5 28t9.5 29t26.5 12h400q23 0 32.5 -12t9.5 -26q0 -17 -6 -31.5t-19 -33.5l-337 -513h336z" />
    <glyph glyph-name="bracketleft" unicode="[" horiz-adv-x="475" 
d="M356 -24q17 0 26 -12t9 -29t-9 -29t-26 -12h-260v965h260q17 0 26 -12t9 -29t-9 -28.5t-26 -11.5h-176v-802h176z" />
    <glyph glyph-name="backslash" unicode="\" horiz-adv-x="527" 
d="M498 -49q3 -8 5 -16t2 -17q0 -16 -13 -26.5t-35 -10.5q-13 0 -23.5 9t-15.5 20l-378 847q-3 8 -5.5 16t-2.5 17q0 16 13.5 26.5t34.5 10.5q15 0 25 -9t19 -30z" />
    <glyph glyph-name="bracketright" unicode="]" horiz-adv-x="475" 
d="M379 -106h-260q-17 0 -26 12t-9 29t9 29t26 12h176v802h-176q-17 0 -26 11.5t-9 28.5t9 29t26 12h260v-965z" />
    <glyph glyph-name="asciicircum" unicode="^" horiz-adv-x="480" 
d="M431 547q13 -13 13 -26q0 -14 -11.5 -24t-26.5 -10q-16 0 -29 15l-137 129l-137 -129q-14 -15 -29 -15t-26.5 10t-11.5 24q0 13 13 26l157 149q7 6 14.5 10t19.5 4t19.5 -4t14.5 -10z" />
    <glyph glyph-name="underscore" unicode="_" horiz-adv-x="592" 
d="M592 0q17 0 25.5 -12.5t8.5 -29.5t-8.5 -28.5t-25.5 -11.5h-592q-17 0 -26 11.5t-9 28.5t9 29.5t26 12.5h592z" />
    <glyph glyph-name="grave" unicode="`" horiz-adv-x="317" 
d="M246 624q5 -9 9 -15.5t4 -13.5q0 -8 -7.5 -15.5t-18.5 -7.5q-15 0 -29 14l-125 127q-11 14 -11 32q0 16 12 27.5t32 11.5q18 0 29 -8.5t25 -29.5z" />
    <glyph glyph-name="a" unicode="a" horiz-adv-x="613" 
d="M535 28q0 -17 -12.5 -26t-29.5 -9t-29.5 9t-12.5 26v24l-33 -28q-17 -14 -43 -22t-55 -8h-93q-70 0 -112.5 37.5t-42.5 100.5v73q0 29 12 55t32 45t46 30t55 11h95q22 0 44 -10t40 -24l56 -47v91q0 81 -90 80h-194q-17 0 -26 11t-9 28t9 29t26 12h199q38 0 69 -12.5
t53 -34t34 -50.5t12 -63v-328zM451 140v30l-81 72q-17 15 -32 21.5t-37 6.5h-80q-32 0 -49 -19t-17 -48v-78q0 -27 18 -42t48 -15h109q22 0 36 7t28 19z" />
    <glyph glyph-name="b" unicode="b" horiz-adv-x="631" 
d="M559 158q0 -35 -12 -65t-33.5 -52t-51.5 -34.5t-67 -12.5h-85q-29 0 -56 8t-44 22l-42 38v-34q0 -17 -12.5 -26t-29.5 -9t-29.5 9t-12.5 26v642q0 17 12.5 25.5t29.5 8.5t29.5 -8.5t12.5 -25.5v-248l64 60q17 16 40.5 25t45.5 9h77q36 0 66 -13t52 -35t34 -52t12 -64
v-194zM403 71q14 0 27 6t23 16.5t16 23t6 26.5v222q0 13 -6.5 26.5t-16.5 23.5t-23 16.5t-26 6.5h-74q-22 0 -39 -6t-32 -20l-90 -86v-168l66 -62q25 -25 66 -25h103z" />
    <glyph glyph-name="c" unicode="c" horiz-adv-x="600" 
d="M463 78q17 0 26 -12t9 -29q0 -18 -9 -29.5t-26 -11.5h-217q-38 0 -70 12t-55 33.5t-36 52.5t-13 69v183q0 36 13 67.5t36 54t54.5 35.5t69.5 13h126q76 0 119.5 -40.5t43.5 -109.5v-11q0 -17 -12.5 -26t-29.5 -9t-29.5 9t-12.5 26v15q0 64 -74 64h-136q-42 -1 -63 -24
t-21 -56v-202q0 -30 22 -52t62 -22h223z" />
    <glyph glyph-name="d" unicode="d" horiz-adv-x="631" 
d="M547 28q0 -17 -12.5 -26t-29.5 -9t-29.5 9t-12.5 26v34l-42 -38q-16 -14 -43 -22t-56 -8h-86q-37 0 -67 12.5t-51.5 34.5t-33.5 52t-12 65v194q0 34 12 64t34 52t52 35t66 13h77q22 0 46 -9t41 -25l63 -60v248q0 17 12.5 25.5t29.5 8.5q18 0 30 -8.5t12 -25.5v-642z
M463 158v168l-90 86q-15 14 -32 20t-39 6h-74q-13 0 -26 -6.5t-23 -16.5t-16.5 -23.5t-6.5 -26.5v-222q0 -14 6 -26.5t16 -23t23 -16.5t27 -6h103q41 0 66 25z" />
    <glyph glyph-name="e" unicode="e" horiz-adv-x="605" 
d="M460 73q17 0 26.5 -11t9.5 -28q0 -18 -9.5 -29t-26.5 -11h-218q-38 0 -69 12t-53.5 33.5t-35 51.5t-12.5 65v196q0 34 12.5 64t34.5 52t52 35t65 13h138q34 0 64.5 -13t52.5 -35t35 -52t13 -64v-58q0 -14 -7 -27.5t-18.5 -24t-25.5 -17.5t-28 -7h-304v-75q0 -16 7 -29
t18 -22t25 -14t28 -5h226zM438 294q8 0 12.5 6t4.5 12v49q0 13 -6 26.5t-16 23.5t-23 16.5t-27 6.5h-151q-15 0 -28.5 -6t-24 -16.5t-17 -23.5t-6.5 -27v-67h282z" />
    <glyph glyph-name="f" unicode="f" horiz-adv-x="494" 
d="M258 28q0 -17 -12.5 -26t-29.5 -9t-29.5 9t-12.5 26v361h-112q-17 0 -25.5 12t-8.5 29t8.5 28.5t25.5 11.5h112v84q0 69 42 108.5t112 39.5h74q17 0 26 -12t9 -29q0 -18 -9 -29.5t-26 -11.5h-82q-29 0 -45.5 -17t-16.5 -45v-88h144q17 0 26 -11.5t9 -28.5t-9 -29t-26 -12
h-144v-361z" />
    <glyph glyph-name="g" unicode="g" horiz-adv-x="626" 
d="M367 162q19 0 35 7.5t28 19.5t18.5 27.5t6.5 31.5v109q0 35 -22 57t-57 22h-131q-37 0 -60.5 -25.5t-23.5 -60.5v-102q0 -16 6.5 -31.5t18 -27.5t27.5 -19.5t35 -7.5h119zM380 -235q42 0 63 19t21 61q0 37 -17 56t-55 19h-42.5t-40.5 -1q-34 -1 -69 -1h-56q-86 0 -86 62
q0 17 18 43l62 77q-45 19 -73 59.5t-28 94.5v89q0 36 14 67.5t38 55t56 37t68 13.5h277q17 0 26 -11.5t9 -25.5q0 -17 -9 -28t-26 -11h-33q22 -15 32 -42.5t10 -54.5v-89q0 -35 -13.5 -66t-37.5 -54.5t-57 -37t-72 -13.5h-102l-64 -83h191q40 0 71 -12t51.5 -32.5t31 -49
t10.5 -61.5q0 -36 -13 -66t-35.5 -51.5t-54.5 -33t-69 -11.5h-141q-76 0 -119.5 40.5t-43.5 109.5v6q0 17 12.5 26t29.5 9q18 0 30 -9t12 -26v-9q0 -65 74 -65h150z" />
    <glyph glyph-name="h" unicode="h" horiz-adv-x="637" 
d="M559 28q0 -17 -12.5 -26t-29.5 -9t-29.5 9t-12.5 26v337q0 13 -6.5 26.5t-16.5 23.5t-23 16.5t-26 6.5h-74q-22 0 -39 -6t-32 -20l-90 -86v-298q0 -17 -12.5 -26t-29.5 -9t-29.5 9t-12.5 26v642q0 17 12.5 25.5t29.5 8.5t29.5 -8.5t12.5 -25.5v-248l64 60q17 16 40.5 25
t45.5 9h77q36 0 66 -13t52 -35t34 -52t12 -64v-324z" />
    <glyph glyph-name="i" unicode="i" horiz-adv-x="386" 
d="M250 630q0 -14 -10 -24t-24 -10h-44q-15 0 -24.5 10t-9.5 24v40q0 14 9.5 24t24.5 10h44q14 0 24 -10t10 -24v-40zM322 74q34 0 34 -37t-34 -37h-245q-35 0 -35 37t35 37h78v359h-78q-17 0 -26 10.5t-9 28.5q0 17 9 27.5t26 10.5h162v-436h83z" />
    <glyph glyph-name="j" unicode="j" horiz-adv-x="358" 
d="M281 630q0 -14 -10.5 -24t-24.5 -10h-43q-14 0 -24.5 10t-10.5 24v40q0 14 10.5 24t24.5 10h43q14 0 24.5 -10t10.5 -24v-40zM268 -31q0 -33 -13 -61.5t-35.5 -49.5t-51.5 -33t-60 -12h-121q-17 0 -26 11.5t-9 29.5q0 17 9 28.5t26 11.5h121q31 0 52.5 21t21.5 50v467
h-81q-17 0 -26 11t-9 29q0 17 9 27.5t26 10.5h167v-541z" />
    <glyph glyph-name="k" unicode="k" horiz-adv-x="572" 
d="M521 55q11 -14 11 -27q0 -16 -11 -25.5t-31 -9.5q-17 0 -26.5 8t-18.5 19l-165 222l-112 -100v-114q0 -17 -12.5 -26t-29.5 -9t-29.5 9t-12.5 26v642q0 17 12.5 25.5t29.5 8.5q18 0 30 -8.5t12 -25.5v-417l266 246q6 5 17 11.5t23 6.5q14 0 25.5 -12t11.5 -26
q0 -10 -2 -16.5t-15 -17.5l-156 -144z" />
    <glyph glyph-name="l" unicode="l" horiz-adv-x="396" 
d="M322 74q34 0 34 -37t-34 -37h-245q-35 0 -35 37t35 37h83v546h-83q-17 0 -26 10.5t-9 28.5q0 37 35 37h167v-622h78z" />
    <glyph glyph-name="m" unicode="m" horiz-adv-x="824" 
d="M746 28q0 -17 -13 -26t-30 -9t-30 9t-13 26v349q0 27 -12.5 43.5t-39.5 16.5h-20q-19 0 -29.5 -4.5t-24.5 -17.5l-72 -66v-321q0 -17 -13 -26t-30 -9t-30 9t-13 26v349q0 25 -14 42.5t-38 17.5h-13q-9 0 -22 -7t-26 -18l-93 -82v-302q0 -17 -13 -26t-30 -9t-30 9t-13 26
v454q0 17 13 26t30 9t30 -9t13 -26v-55l64 54q21 17 39.5 26t36.5 9h13q42 0 73 -22.5t49 -61.5l54 50q37 34 77 34h35q33 0 58.5 -11.5t42.5 -32t25.5 -48t8.5 -60.5v-336z" />
    <glyph glyph-name="n" unicode="n" horiz-adv-x="630" 
d="M552 28q0 -17 -12.5 -26t-29.5 -9t-29.5 9t-12.5 26v337q0 13 -6.5 26.5t-16.5 23.5t-23 16.5t-26 6.5h-67q-22 0 -39 -6t-32 -20l-90 -86v-298q0 -17 -12 -26t-29 -9t-30 9t-13 26v454q0 17 12.5 26t29.5 9t29.5 -9t12.5 -26v-60l64 60q17 16 40.5 25t45.5 9h70
q36 0 66 -13t52 -35t34 -52t12 -64v-324z" />
    <glyph glyph-name="o" unicode="o" horiz-adv-x="626" 
d="M554 166q0 -36 -13.5 -67t-37.5 -54.5t-57 -37t-72 -13.5h-122q-39 0 -72 13.5t-57 37t-37.5 54.5t-13.5 67v177q0 36 14 67.5t38 55t56 37t68 13.5h130q37 0 69.5 -13.5t56 -37t37 -55t13.5 -67.5v-177zM383 76q38 0 62.5 25t24.5 59v190q0 17 -6.5 32.5t-18 27
t-26.5 18t-33 6.5h-146q-37 0 -60.5 -24.5t-23.5 -59.5v-190q0 -34 24.5 -59t63.5 -25h139z" />
    <glyph glyph-name="p" unicode="p" horiz-adv-x="637" 
d="M559 173q0 -35 -12 -65.5t-33.5 -52.5t-51.5 -34.5t-67 -12.5h-85q-29 0 -56 8t-44 22l-42 39v-235q0 -17 -12.5 -26t-29.5 -9t-29.5 9t-12.5 26v643q0 17 12.5 26t29.5 9q18 0 30 -9t12 -26v-63l64 60q17 16 40.5 25t45.5 9h77q36 0 66 -13t52 -35t34 -52t12 -64v-179z
M403 85q14 0 27 6t23 16.5t16 23t6 26.5v208q0 13 -6.5 26.5t-16.5 23.5t-23 16.5t-26 6.5h-74q-22 0 -39 -6t-32 -20l-90 -86v-153l66 -63q13 -12 28.5 -18.5t37.5 -6.5h103z" />
    <glyph glyph-name="q" unicode="q" horiz-adv-x="624" 
d="M540 -158q0 -17 -12.5 -26t-29.5 -9t-29.5 7.5t-12.5 27.5v229l-34 -28q-36 -30 -97 -30h-92q-70 0 -112.5 37.5t-42.5 100.5v225q0 29 12 54.5t32 44.5t46 30t55 11h94q22 0 44.5 -9t39.5 -25l54 -46v49q0 17 13 26t30 9q18 0 30 -9t12 -26v-643zM456 161v181l-82 71
q-16 14 -31 20t-37 6h-79q-32 0 -49 -19t-17 -48v-227q0 -27 18 -41.5t48 -14.5h108q22 0 35.5 6.5t27.5 18.5z" />
    <glyph glyph-name="r" unicode="r" horiz-adv-x="478" 
d="M168 28q0 -17 -12.5 -26t-29.5 -9t-29.5 9t-12.5 26v454q0 17 12.5 26t29.5 9t29.5 -9t12.5 -26v-62l58 59q16 16 36.5 25.5t49.5 9.5h102q17 0 26 -12t9 -29t-9 -28.5t-26 -11.5h-89q-16 0 -25.5 -1t-16 -4t-12 -7.5t-13.5 -11.5l-90 -87v-294z" />
    <glyph glyph-name="s" unicode="s" horiz-adv-x="596" 
d="M377 73q31 0 50 20t19 49q0 30 -19 48t-51 20l-150 6q-35 2 -64.5 13.5t-50.5 31t-33 46t-12 58.5q0 28 11 55t31 48t48 33.5t62 12.5h245q17 0 26 -12t9 -29t-9 -29.5t-26 -12.5l-247 1q-28 0 -47 -20.5t-19 -47.5q0 -31 23.5 -48t52.5 -18l152 -5q34 -1 62 -14
t48 -33.5t31 -46.5t11 -53q0 -30 -11 -57.5t-31.5 -48.5t-49 -34t-62.5 -13h-257q-17 0 -26 12t-9 29t9 28t26 11h258z" />
    <glyph glyph-name="t" unicode="t" horiz-adv-x="502" 
d="M422 82q17 0 26.5 -12t9.5 -29q0 -18 -9.5 -29.5t-26.5 -11.5h-112q-75 0 -116.5 40t-41.5 118v273h-84q-17 0 -25.5 10.5t-8.5 28.5q0 17 8.5 28.5t25.5 11.5h84v160q0 17 13 25.5t31 8.5q17 0 28.5 -8.5t11.5 -25.5v-160h111q17 0 26 -11.5t9 -28.5q0 -18 -9 -28.5
t-26 -10.5h-111v-274q0 -42 16.5 -58.5t58.5 -16.5h111z" />
    <glyph glyph-name="u" unicode="u" horiz-adv-x="631" 
d="M547 28q0 -17 -12.5 -26t-29.5 -9t-29.5 9t-12.5 26v34l-42 -38q-16 -14 -43 -22t-56 -8h-80q-37 0 -67 12.5t-51.5 34.5t-33.5 52t-12 65v327q0 17 12.5 26t29.5 9q18 0 30 -9t12 -26v-342q0 -14 6 -26.5t16 -23t23 -16.5t27 -6h97q41 0 66 25l66 62v327q0 17 12.5 26
t29.5 9q18 0 30 -9t12 -26v-457z" />
    <glyph glyph-name="v" unicode="v" horiz-adv-x="622" 
d="M372 14q-8 -10 -22 -17.5t-39 -7.5q-18 0 -35.5 7.5t-25.5 17.5l-132 153q-22 26 -31 49t-9 59v210q0 17 13 26t30 9q18 0 30.5 -9t12.5 -26v-205q0 -22 3.5 -33t17.5 -27l117 -147h15l120 147q14 16 17 27t3 33v205q0 17 13 26t30 9q18 0 31 -9t13 -26v-210
q0 -36 -9 -59t-31 -49z" />
    <glyph glyph-name="w" unicode="w" horiz-adv-x="748" 
d="M559 14q-8 -12 -21.5 -19.5t-29.5 -7.5q-20 0 -34 7.5t-22 19.5l-74 116h-8l-75 -116q-8 -12 -22 -19.5t-33 -7.5q-17 0 -30.5 7.5t-21.5 19.5l-64 102q-18 29 -29 55.5t-11 62.5v251q0 17 13 26t30 9q18 0 31.5 -9t13.5 -26v-251q0 -22 4.5 -37t15.5 -33l46 -86h9
l65 103q9 16 14 28t5 29v88q0 17 12.5 26t29.5 9q18 0 30.5 -9t12.5 -26v-88q0 -17 5.5 -29t14.5 -28l64 -103h10l46 86q11 18 15.5 33t4.5 37v251q0 17 13 26t30 9q18 0 31.5 -9t13.5 -26v-251q0 -36 -11 -62.5t-29 -55.5z" />
    <glyph glyph-name="x" unicode="x" horiz-adv-x="613" 
d="M535 24q0 -17 -13.5 -26t-30.5 -9q-18 0 -32 9t-14 26v18q0 21 -2.5 29.5t-12.5 18.5l-118 119h-11l-114 -119q-10 -11 -14.5 -19t-4.5 -29v-18q0 -17 -14 -26t-32 -9q-17 0 -30.5 9t-13.5 26v17q0 37 7.5 56t24.5 36l119 119v10l-119 118q-17 17 -24.5 36.5t-7.5 56.5
v14q0 17 13.5 26t30.5 9q18 0 32 -9t14 -26v-15q0 -20 4.5 -28.5t14.5 -19.5l114 -119h11l118 119q10 10 12.5 19t2.5 29v15q0 17 14 26t32 9q17 0 30.5 -9t13.5 -26v-14q0 -37 -7.5 -56.5t-24.5 -36.5l-119 -118v-10l119 -119q17 -17 24.5 -36t7.5 -56v-17z" />
    <glyph glyph-name="y" unicode="y" horiz-adv-x="618" 
d="M534 -8q0 -37 -14 -69.5t-38.5 -56.5t-58.5 -38t-74 -14h-174q-17 0 -26 12t-9 29t9 28t26 11h173q49 0 75.5 27t26.5 72v74l-34 -27q-36 -30 -97 -30h-92q-70 0 -112.5 37.5t-42.5 100.5v337q0 17 12 26t29 9q18 0 30 -9t12 -26v-342q0 -27 18 -42t48 -15h108
q22 0 35.5 7t27.5 19l58 46v327q0 17 12.5 26t29.5 9q18 0 30 -9t12 -26v-493z" />
    <glyph glyph-name="z" unicode="z" horiz-adv-x="600" 
d="M497 77q17 0 26 -11t9 -28t-9 -27.5t-26 -10.5h-376q-19 0 -31 11t-12 29t7.5 30t20.5 26l298 336h-288q-17 0 -25.5 10.5t-8.5 27.5t8.5 28.5t25.5 11.5h363q20 0 31 -10.5t11 -24.5q0 -18 -7 -33.5t-23 -33.5l-294 -331h300z" />
    <glyph glyph-name="braceleft" unicode="{" horiz-adv-x="535" 
d="M415 -82q17 0 26 -11.5t9 -28.5t-9 -29t-26 -12h-83q-33 0 -60.5 11t-48 31.5t-32 48.5t-11.5 61v234q0 34 -18 53.5t-48 27.5l-18 4v80l18 4q30 8 48 27.5t18 53.5v234q0 33 11.5 61t32 48.5t48 31.5t60.5 11h83q17 0 26 -12t9 -29t-9 -28.5t-26 -11.5h-89
q-24 0 -42 -20t-18 -44v-254q0 -26 -9.5 -46t-20.5 -34q-12 -15 -30 -28v-8q18 -13 30 -28q11 -14 20.5 -34t9.5 -46v-254q0 -24 18 -44t42 -20h89z" />
    <glyph glyph-name="bar" unicode="|" horiz-adv-x="276" 
d="M180 -112q0 -17 -12.5 -25.5t-29.5 -8.5t-29.5 8.5t-12.5 25.5v950q0 17 12.5 25.5t29.5 8.5t29.5 -8.5t12.5 -25.5v-950z" />
    <glyph glyph-name="braceright" unicode="}" horiz-adv-x="535" 
d="M355 -11q0 -33 -11.5 -61t-32 -48.5t-48 -31.5t-60.5 -11h-83q-17 0 -26 12t-9 29t9 28.5t26 11.5h89q24 0 42 20t18 44v254q0 26 9.5 46t20.5 34q12 15 30 28v8q-18 13 -30 28q-11 14 -20.5 34t-9.5 46v254q0 24 -18 44t-42 20h-89q-17 0 -26 11.5t-9 28.5t9 29t26 12
h83q33 0 60.5 -11t48 -31.5t32 -48.5t11.5 -61v-234q0 -34 18.5 -53.5t47.5 -27.5l18 -4v-80l-18 -4q-29 -8 -47.5 -27.5t-18.5 -53.5v-234z" />
    <glyph glyph-name="asciitilde" unicode="~" horiz-adv-x="491" 
d="M467 677q0 -52 -35 -86t-98 -34q-25 0 -49.5 12t-47.5 27t-44.5 27t-40.5 12q-29 0 -44.5 -15t-15.5 -37q0 -10 -7.5 -18.5t-26.5 -8.5q-16 0 -25 8t-9 19q0 25 9.5 47t26.5 38t41.5 25.5t54.5 9.5q25 0 49.5 -11.5t47.5 -26t44 -26t39 -11.5q32 0 47 14.5t15 34.5
q0 10 8 18.5t27 8.5q16 0 25 -8t9 -19z" />
    <glyph glyph-name="uni00A0" unicode="&#xa0;" horiz-adv-x="360" 
 />
    <glyph glyph-name="exclamdown" unicode="&#xa1;" horiz-adv-x="326" 
d="M229 640q0 -27 -19.5 -46.5t-46.5 -19.5t-46 19.5t-19 46.5t19 45.5t46 18.5t46.5 -18.5t19.5 -45.5zM230 26q0 -28 -19.5 -42.5t-47.5 -14.5t-47.5 14.5t-19.5 42.5v62l34 393q1 13 10.5 18.5t22.5 5.5t23 -5.5t11 -18.5l33 -393v-62z" />
    <glyph glyph-name="cent" unicode="&#xa2;" horiz-adv-x="577" 
d="M360 -84q0 -13 -7 -20.5t-25 -7.5t-25.5 7.5t-7.5 20.5v223h-36q-35 0 -64.5 12t-51.5 33t-34.5 50.5t-12.5 65.5v103q0 35 12 64.5t34 50.5t51.5 32.5t65.5 11.5h36v208q0 13 7.5 20.5t25.5 7.5t25 -7.5t7 -20.5v-208h98q17 0 26.5 -12t9.5 -29q0 -18 -9.5 -29.5
t-26.5 -11.5h-207q-71 0 -71 -66v-127q0 -29 20 -47.5t51 -18.5h207q17 0 26.5 -12t9.5 -29q0 -18 -9.5 -29.5t-26.5 -11.5h-98v-223z" />
    <glyph glyph-name="sterling" unicode="&#xa3;" horiz-adv-x="679" 
d="M558 144q17 0 26.5 -12t9.5 -29q0 -18 -9.5 -29.5t-26.5 -11.5h-438q-17 0 -26.5 11.5t-9.5 29.5q0 17 9.5 29t26.5 12h60v144h-68q-13 0 -20.5 7t-7.5 25q0 34 28 34h68v121q0 36 12 66.5t34 52.5t53 34.5t70 12.5h23q76 0 119.5 -40.5t43.5 -109.5v-11q0 -17 -12.5 -26
t-29.5 -9t-29.5 9t-12.5 26v14q0 65 -74 65h-35q-38 0 -58 -24.5t-20 -55.5v-125h120q28 0 28 -34q0 -18 -7.5 -25t-20.5 -7h-120v-144h294z" />
    <glyph glyph-name="yen" unicode="&#xa5;" horiz-adv-x="677" 
d="M382 86q0 -17 -13 -26.5t-31 -9.5q-17 0 -30 9.5t-13 26.5v74h-90q-24 0 -24 27q0 16 6.5 22t17.5 6h90v69l-6 6h-84q-24 0 -24 28t24 28h39l-106 116q-23 26 -32.5 53t-9.5 63v29q0 17 12.5 26t29.5 9q18 0 30 -9t12 -26v-25q0 -21 3 -36t17 -31l129 -153h15l131 153
q14 16 17.5 31t3.5 36l-2 25q-1 17 13.5 26t31.5 9q18 0 30 -9t12 -26v-29q0 -36 -9.5 -63t-32.5 -53l-106 -116h43q24 0 24 -28t-24 -28h-88l-6 -6v-69h94q11 0 17.5 -6t6.5 -22q0 -27 -24 -27h-94v-74z" />
    <glyph glyph-name="brokenbar" unicode="&#xa6;" horiz-adv-x="276" 
d="M180 461q0 -17 -12.5 -26t-29.5 -9t-29.5 9t-12.5 26v377q0 17 12.5 25.5t29.5 8.5t29.5 -8.5t12.5 -25.5v-377zM180 -114q0 -17 -12.5 -26t-29.5 -9t-29.5 9t-12.5 26v377q0 17 12.5 26t29.5 9t29.5 -9t12.5 -26v-377z" />
    <glyph glyph-name="section" unicode="&#xa7;" horiz-adv-x="605" 
d="M539 67q0 -32 -12.5 -60.5t-34 -49.5t-50 -33.5t-60.5 -12.5h-158q-38 0 -68 11.5t-51.5 32.5t-33 49.5t-11.5 63.5q0 20 13 29.5t30 9.5t30 -11t13 -28q0 -75 75 -75h163q28 0 49.5 20t21.5 53v25q0 25 -19.5 43.5t-49.5 25.5l-164 36q-32 7 -59.5 19t-48 31t-32.5 44
t-12 58v18q0 16 5.5 32.5t14.5 31t21 26t26 17.5q-27 15 -45 45.5t-18 68.5v30q0 34 12 63.5t33.5 51.5t52.5 34t69 12h114q38 0 68.5 -11.5t52 -32t33 -49.5t11.5 -63q0 -20 -13.5 -29.5t-30.5 -9.5t-30 11t-13 28q0 75 -74 75l-129 -1q-33 0 -52.5 -20.5t-19.5 -51.5v-44
q0 -25 18 -42t42 -22l168 -36q31 -7 59 -19t49 -30.5t33 -44t12 -58.5v-16q0 -18 -5 -35t-14 -32t-20.5 -26t-24.5 -17q13 -6 24.5 -18t20.5 -27.5t14 -34t5 -37.5v-18zM390 236q13 -3 25 2.5t21 16t14 24t5 26.5v29q0 24 -18.5 41.5t-41.5 22.5l-162 36q-16 4 -30.5 -1.5
t-25 -16.5t-17 -24.5t-6.5 -24.5v-26q0 -25 18 -42t42 -22z" />
    <glyph glyph-name="dieresis" unicode="&#xa8;" horiz-adv-x="540" 
d="M444 847q0 -24 -16.5 -40.5t-41.5 -16.5q-24 0 -40.5 16.5t-16.5 40.5q0 25 16.5 41.5t40.5 16.5q25 0 41.5 -16.5t16.5 -41.5zM211 847q0 -24 -16.5 -40.5t-40.5 -16.5q-25 0 -41.5 16.5t-16.5 40.5q0 25 16.5 41.5t41.5 16.5q24 0 40.5 -16.5t16.5 -41.5z" />
    <glyph glyph-name="copyright" unicode="&#xa9;" horiz-adv-x="726" 
d="M630 184q0 -21 -8 -40t-22 -32.5t-32.5 -21.5t-39.5 -8h-330q-21 0 -39.5 8t-32.5 21.5t-22 32.5t-8 40v328q0 21 8 40t22 33.5t32.5 22.5t39.5 8h330q21 0 39.5 -8t32.5 -22.5t22 -33.5t8 -40v-328zM528 142q17 0 29.5 12.5t12.5 29.5v328q0 17 -12.5 29.5t-29.5 12.5
h-330q-17 0 -29.5 -12.5t-12.5 -29.5v-328q0 -17 12.5 -29.5t29.5 -12.5h330zM485 263q0 -36 -23.5 -55.5t-59.5 -19.5h-70q-38 0 -62.5 26t-24.5 62v131q0 37 24.5 62t62.5 25h72q39 0 60 -24t21 -58q0 -9 -7 -14.5t-16 -5.5t-16 5.5t-7 14.5q0 39 -37 39h-72
q-19 0 -30 -12t-11 -30v-135q0 -18 12 -30t29 -12h72q21 0 29.5 7t8.5 21l-1 12q0 9 7 13.5t16 4.5t16 -4.5t7 -13.5v-9z" />
    <glyph glyph-name="ordfeminine" unicode="&#xaa;" 
 />
    <glyph glyph-name="guillemotleft" unicode="&#xab;" horiz-adv-x="869" 
d="M755 49q18 -17 18 -30q0 -16 -11.5 -27t-27.5 -11q-11 0 -18 3t-19 14l-247 214q-8 8 -12.5 15t-4.5 19t4.5 19t12.5 13l247 218q12 10 19 13t18 3q16 0 27.5 -10.5t11.5 -27.5q0 -14 -18 -30l-219 -194v-9zM406 49q18 -17 18 -30q0 -16 -11.5 -27t-27.5 -11q-11 0 -18 3
t-19 14l-247 214q-8 8 -12.5 15t-4.5 19t4.5 19t12.5 13l247 218q12 10 19 13t18 3q16 0 27.5 -10.5t11.5 -27.5q0 -14 -18 -30l-219 -194v-9z" />
    <glyph glyph-name="logicalnot" unicode="&#xac;" 
 />
    <glyph glyph-name="registered" unicode="&#xae;" horiz-adv-x="726" 
d="M630 184q0 -21 -8 -40t-22 -32.5t-32.5 -21.5t-39.5 -8h-330q-21 0 -39.5 8t-32.5 21.5t-22 32.5t-8 40v328q0 21 8 40t22 33.5t32.5 22.5t39.5 8h330q21 0 39.5 -8t32.5 -22.5t22 -33.5t8 -40v-328zM528 142q17 0 29.5 12.5t12.5 29.5v328q0 17 -12.5 29.5t-29.5 12.5
h-330q-17 0 -29.5 -12.5t-12.5 -29.5v-328q0 -17 12.5 -29.5t29.5 -12.5h330zM480 202q0 -8 -6 -12.5t-14 -4.5t-15 4.5t-7 12.5v72q0 40 -38 40h-107v-112q0 -17 -19 -17q-8 0 -14.5 4.5t-6.5 12.5v294h147q34 0 57 -22t23 -56v-26q0 -25 -10.5 -41t-24.5 -22
q14 -5 24.5 -20t10.5 -33v-74zM403 352q37 0 37 37v33q0 17 -10 26.5t-26 9.5h-111v-106h110z" />
    <glyph glyph-name="macron" unicode="&#xaf;" horiz-adv-x="629" 
d="M492 1034q21 0 29.5 -10t8.5 -30q0 -21 -8.5 -31t-29.5 -10h-354q-21 0 -29 10t-8 31q0 20 8 30t29 10h354z" />
    <glyph glyph-name="degree" unicode="&#xb0;" horiz-adv-x="287" 
d="M263 763q0 -25 -9.5 -46.5t-26 -38t-38 -26t-46.5 -9.5q-24 0 -46 9.5t-38 26t-25.5 38t-9.5 46.5t9.5 46.5t25.5 37.5t38 25.5t46 9.5q25 0 46.5 -9.5t38 -25.5t26 -37.5t9.5 -46.5zM215 762q0 31 -22 52t-51 21q-31 0 -52.5 -21t-21.5 -52q0 -30 21.5 -51t52.5 -21
q29 0 51 21t22 51z" />
    <glyph glyph-name="plusminus" unicode="&#xb1;" horiz-adv-x="682" 
d="M382 229q0 -17 -12 -26t-30 -9q-17 0 -29.5 9t-12.5 26v179h-179q-17 0 -26 12t-9 29t9 30t26 13h179v178q0 17 12.5 25.5t29.5 8.5q18 0 30 -8.5t12 -25.5v-178h181q17 0 26 -13t9 -30t-9 -29t-26 -12h-181v-179zM563 74q17 0 26 -10.5t9 -27.5q0 -36 -35 -36h-444
q-35 0 -35 36q0 17 9 27.5t26 10.5h444z" />
    <glyph glyph-name="uni00B2" unicode="&#xb2;" 
 />
    <glyph glyph-name="uni00B3" unicode="&#xb3;" 
 />
    <glyph glyph-name="acute" unicode="&#xb4;" horiz-adv-x="317" 
d="M113 586q-8 -8 -15.5 -11t-13.5 -3q-12 0 -19 7.5t-7 15.5q0 7 4 13.5t9 15.5l80 122q14 21 25.5 29.5t29.5 8.5q20 0 31 -11t11 -27q0 -20 -10 -30z" />
    <glyph glyph-name="uni00B5" unicode="&#xb5;" 
 />
    <glyph glyph-name="uni00B5" unicode="&#x3bc;" 
 />
    <glyph glyph-name="paragraph" unicode="&#xb6;" horiz-adv-x="758" 
d="M568 -220q0 -17 -12.5 -25.5t-29.5 -8.5t-29.5 8.5t-12.5 25.5v916h-123v-916q0 -17 -12.5 -25.5t-29.5 -8.5t-29.5 8.5t-12.5 25.5v453h-50q-66 0 -104.5 38.5t-38.5 104.5v256q0 66 38.5 104.5t104.5 38.5h401q17 0 25.5 -11t8.5 -28t-8.5 -28.5t-25.5 -11.5h-60v-916z
" />
    <glyph glyph-name="periodcentered" unicode="&#xb7;" horiz-adv-x="275" 
d="M137 332q-17 0 -32.5 7t-27 19t-18.5 28t-7 34t6.5 34.5t18 29t27 19.5t33.5 7q36 0 61 -26.5t25 -63.5q0 -36 -25 -62t-61 -26z" />
    <glyph glyph-name="cedilla" unicode="&#xb8;" horiz-adv-x="379" 
d="M114 -240q-9 0 -15.5 7t-6.5 17t6.5 17.5t15.5 7.5h40q32 0 45 12.5t13 34.5q0 28 -11.5 38t-40.5 10h-23q-22 0 -22 18v17l42 78h63l-38 -73h16q40 0 62.5 -24.5t22.5 -58.5q0 -43 -30 -72t-87 -29h-52z" />
    <glyph glyph-name="uni00B9" unicode="&#xb9;" 
 />
    <glyph glyph-name="ordmasculine" unicode="&#xba;" 
 />
    <glyph glyph-name="guillemotright" unicode="&#xbb;" horiz-adv-x="869" 
d="M521 -2q-12 -11 -19 -14t-18 -3q-16 0 -27.5 11t-11.5 27q0 13 18 30l219 192v9l-219 194q-18 16 -18 30q0 17 11.5 27.5t27.5 10.5q11 0 18 -3t19 -13l247 -218q8 -6 12.5 -13t4.5 -19t-4.5 -19t-12.5 -15zM172 -2q-12 -11 -19 -14t-19 -3q-15 0 -26.5 11t-11.5 27
q0 13 18 30l218 192v9l-218 194q-18 16 -18 30q0 17 11.5 27.5t26.5 10.5q12 0 19 -3t19 -13l247 -218q8 -6 12.5 -13t4.5 -19t-4.5 -19t-12.5 -15z" />
    <glyph glyph-name="onequarter" unicode="&#xbc;" 
 />
    <glyph glyph-name="onehalf" unicode="&#xbd;" 
 />
    <glyph glyph-name="threequarters" unicode="&#xbe;" 
 />
    <glyph glyph-name="questiondown" unicode="&#xbf;" horiz-adv-x="670" 
d="M332 575q-27 0 -45.5 19.5t-18.5 46.5t18.5 46t45.5 19t46 -19t19 -46t-19 -46.5t-46 -19.5zM421 77q35 0 50 18t15 60q0 17 13.5 26.5t30.5 9.5t30.5 -9.5t13.5 -26.5q0 -34 -10.5 -63.5t-30.5 -51.5t-49 -34.5t-66 -12.5h-154q-84 0 -126 43t-42 113v53q0 33 14.5 59
t36 48t46.5 40.5t46.5 36.5t36 37t14.5 41v28q0 17 12.5 26t29.5 9t31 -9t14 -26v-34q0 -29 -14.5 -53.5t-36 -45.5t-47 -40t-47 -37t-36 -37t-14.5 -39v-54q0 -75 76 -75h163z" />
    <glyph glyph-name="Agrave" unicode="&#xc0;" horiz-adv-x="660" 
d="M582 28q0 -17 -12.5 -26t-29.5 -9t-30.5 9t-13.5 26v202h-333v-202q0 -17 -12.5 -26t-29.5 -9t-30 9t-13 26v392q0 40 11.5 71.5t40.5 60.5l140 138q8 8 22.5 15t36.5 7q19 0 35 -7t24 -15l142 -138q30 -28 41 -60t11 -72v-392zM497 306v109q0 27 -6.5 46t-26.5 38
l-134 131l-134 -131q-20 -19 -26.5 -38t-6.5 -46v-109h334zM358 817q5 -9 9 -15.5t4 -13.5q0 -8 -7.5 -15.5t-18.5 -7.5q-15 0 -29 14l-125 127q-11 14 -11 32q0 16 12 27.5t32 11.5q18 0 29 -8.5t25 -29.5z" />
    <glyph glyph-name="Aacute" unicode="&#xc1;" horiz-adv-x="660" 
d="M582 28q0 -17 -12.5 -26t-29.5 -9t-30.5 9t-13.5 26v202h-333v-202q0 -17 -12.5 -26t-29.5 -9t-30 9t-13 26v392q0 40 11.5 71.5t40.5 60.5l140 138q8 8 22.5 15t36.5 7q19 0 35 -7t24 -15l142 -138q30 -28 41 -60t11 -72v-392zM497 306v109q0 27 -6.5 46t-26.5 38
l-134 131l-134 -131q-20 -19 -26.5 -38t-6.5 -46v-109h334zM323 780q-8 -8 -15.5 -11t-13.5 -3q-12 0 -19 7.5t-7 15.5q0 7 4 13.5t9 15.5l80 122q14 21 25.5 29.5t29.5 8.5q20 0 31 -11t11 -27q0 -20 -10 -30z" />
    <glyph glyph-name="Acircumflex" unicode="&#xc2;" horiz-adv-x="660" 
d="M582 28q0 -17 -12.5 -26t-29.5 -9t-30.5 9t-13.5 26v202h-333v-202q0 -17 -12.5 -26t-29.5 -9t-30 9t-13 26v392q0 40 11.5 71.5t40.5 60.5l140 138q8 8 22.5 15t36.5 7q19 0 35 -7t24 -15l142 -138q30 -28 41 -60t11 -72v-392zM497 306v109q0 27 -6.5 46t-26.5 38
l-134 131l-134 -131q-20 -19 -26.5 -38t-6.5 -46v-109h334zM498 817q8 -6 10.5 -12.5t2.5 -13.5q0 -14 -11.5 -23.5t-26.5 -9.5q-8 0 -15.5 5.5t-13.5 10.5l-120 103l-120 -103q-7 -5 -14 -10.5t-15 -5.5q-15 0 -26.5 9.5t-11.5 23.5q0 7 2.5 13.5t10.5 12.5l140 119
q7 6 14.5 9.5t19.5 3.5q20 0 33 -13z" />
    <glyph glyph-name="Atilde" unicode="&#xc3;" horiz-adv-x="660" 
d="M582 28q0 -17 -12.5 -26t-29.5 -9t-30.5 9t-13.5 26v202h-333v-202q0 -17 -12.5 -26t-29.5 -9t-30 9t-13 26v392q0 40 11.5 71.5t40.5 60.5l140 138q8 8 22.5 15t36.5 7q19 0 35 -7t24 -15l142 -138q30 -28 41 -60t11 -72v-392zM497 306v109q0 27 -6.5 46t-26.5 38
l-134 131l-134 -131q-20 -19 -26.5 -38t-6.5 -46v-109h334zM540 890q0 -51 -33.5 -83t-90.5 -32q-27 0 -50 13t-44 28.5t-40.5 28.5t-38.5 13q-29 0 -41.5 -13.5t-12.5 -35.5q0 -10 -7.5 -22.5t-26.5 -12.5q-16 0 -25 12t-9 23q0 51 32.5 82t89.5 31q27 0 50.5 -12.5
t44.5 -28t40.5 -28t37.5 -12.5q32 0 43.5 14.5t11.5 34.5q0 11 8 22t27 11q16 0 25 -11t9 -22z" />
    <glyph glyph-name="Adieresis" unicode="&#xc4;" horiz-adv-x="660" 
d="M582 28q0 -17 -12.5 -26t-29.5 -9t-30.5 9t-13.5 26v202h-333v-202q0 -17 -12.5 -26t-29.5 -9t-30 9t-13 26v392q0 40 11.5 71.5t40.5 60.5l140 138q8 8 22.5 15t36.5 7q19 0 35 -7t24 -15l142 -138q30 -28 41 -60t11 -72v-392zM497 306v109q0 27 -6.5 46t-26.5 38
l-134 131l-134 -131q-20 -19 -26.5 -38t-6.5 -46v-109h334zM502 847q0 -24 -16.5 -40.5t-41.5 -16.5q-24 0 -40.5 16.5t-16.5 40.5q0 25 16.5 41.5t40.5 16.5q25 0 41.5 -16.5t16.5 -41.5zM269 847q0 -24 -16.5 -40.5t-40.5 -16.5q-25 0 -41.5 16.5t-16.5 40.5
q0 25 16.5 41.5t41.5 16.5q24 0 40.5 -16.5t16.5 -41.5z" />
    <glyph glyph-name="Aring" unicode="&#xc5;" horiz-adv-x="660" 
d="M582 28q0 -17 -12.5 -26t-29.5 -9t-30.5 9t-13.5 26v202h-333v-202q0 -17 -12.5 -26t-29.5 -9t-30 9t-13 26v392q0 40 11.5 71.5t40.5 60.5l140 138q8 8 22.5 15t36.5 7q19 0 35 -7t24 -15l142 -138q30 -28 41 -60t11 -72v-392zM497 306v109q0 27 -6.5 46t-26.5 38
l-134 131l-134 -131q-20 -19 -26.5 -38t-6.5 -46v-109h334zM439 851q0 -23 -8.5 -43.5t-23.5 -35.5t-35.5 -24t-44.5 -9q-23 0 -43 9t-35 24t-23.5 35.5t-8.5 43.5t8.5 43t23.5 35t35 23.5t43 8.5q24 0 44.5 -8.5t35.5 -23.5t23.5 -35t8.5 -43zM390 851q0 25 -18 43t-43 18
q-26 0 -43 -18t-17 -43t17 -42.5t43 -17.5q25 0 43 17.5t18 42.5z" />
    <glyph glyph-name="AE" unicode="&#xc6;" horiz-adv-x="995" 
d="M898 82q17 0 25 -12t8 -29q0 -18 -9 -29.5t-26 -11.5h-399v230h-334v-202q0 -17 -12.5 -26t-29.5 -9t-30 9t-13 26v392q0 40 11.5 71.5t40.5 60.5l140 138q8 8 22.5 15t36.5 7q19 0 35 -7t24 -15l109 -115v121h401q17 0 25 -12t8 -29q0 -18 -9 -28.5t-26 -10.5h-315v-227
h242q17 0 26 -12t9 -29q0 -18 -9 -30t-26 -12h-241v-224h316zM497 306v109q0 27 -6.5 46t-26.5 38l-134 131l-134 -131q-20 -19 -26.5 -38t-6.5 -46v-109h334z" />
    <glyph glyph-name="Ccedilla" unicode="&#xc7;" horiz-adv-x="649" 
d="M527 -6h-273q-38 0 -69 13.5t-53.5 36.5t-35 54t-12.5 66v368q0 36 12.5 67t35 54t53.5 36t69 13h276q17 0 26 -12t9 -29q0 -18 -9 -30.5t-26 -12.5h-282q-37 0 -57.5 -23.5t-20.5 -58.5v-378q0 -34 22.5 -57.5t55.5 -23.5h278q17 0 25.5 -12t8.5 -29q0 -18 -8.5 -29.5
t-25.5 -11.5zM294 -240q-9 0 -15.5 7t-6.5 17t6.5 17.5t15.5 7.5h40q32 0 45 12.5t13 34.5q0 28 -11.5 38t-40.5 10h-23q-22 0 -22 18v17l42 78h63l-38 -73h16q40 0 62.5 -24.5t22.5 -58.5q0 -43 -30 -72t-87 -29h-52z" />
    <glyph glyph-name="Egrave" unicode="&#xc8;" horiz-adv-x="592" 
d="M493 82q17 0 26 -12t9 -29q0 -18 -9 -29.5t-26 -11.5h-397v696h397q17 0 26 -12t9 -29q0 -18 -9 -29.5t-26 -11.5h-313v-225h240q17 0 26 -12t9 -29q0 -18 -9 -30t-26 -12h-240v-224h313zM328 817q5 -9 9 -15.5t4 -13.5q0 -8 -7.5 -15.5t-18.5 -7.5q-15 0 -29 14
l-125 127q-11 14 -11 32q0 16 12 27.5t32 11.5q18 0 29 -8.5t25 -29.5z" />
    <glyph glyph-name="Eacute" unicode="&#xc9;" horiz-adv-x="592" 
d="M493 82q17 0 26 -12t9 -29q0 -18 -9 -29.5t-26 -11.5h-397v696h397q17 0 26 -12t9 -29q0 -18 -9 -29.5t-26 -11.5h-313v-225h240q17 0 26 -12t9 -29q0 -18 -9 -30t-26 -12h-240v-224h313zM309 780q-8 -8 -15.5 -11t-13.5 -3q-12 0 -19 7.5t-7 15.5q0 7 4 13.5t9 15.5
l80 122q14 21 25.5 29.5t29.5 8.5q20 0 31 -11t11 -27q0 -20 -10 -30z" />
    <glyph glyph-name="Ecircumflex" unicode="&#xca;" horiz-adv-x="592" 
d="M493 82q17 0 26 -12t9 -29q0 -18 -9 -29.5t-26 -11.5h-397v696h397q17 0 26 -12t9 -29q0 -18 -9 -29.5t-26 -11.5h-313v-225h240q17 0 26 -12t9 -29q0 -18 -9 -30t-26 -12h-240v-224h313zM490 817q8 -6 10.5 -12.5t2.5 -13.5q0 -14 -11.5 -23.5t-26.5 -9.5
q-8 0 -15.5 5.5t-13.5 10.5l-120 103l-120 -103q-7 -5 -14 -10.5t-15 -5.5q-15 0 -26.5 9.5t-11.5 23.5q0 7 2.5 13.5t10.5 12.5l140 119q7 6 14.5 9.5t19.5 3.5q20 0 33 -13z" />
    <glyph glyph-name="Edieresis" unicode="&#xcb;" horiz-adv-x="592" 
d="M493 82q17 0 26 -12t9 -29q0 -18 -9 -29.5t-26 -11.5h-397v696h397q17 0 26 -12t9 -29q0 -18 -9 -29.5t-26 -11.5h-313v-225h240q17 0 26 -12t9 -29q0 -18 -9 -30t-26 -12h-240v-224h313zM484 847q0 -24 -16.5 -40.5t-41.5 -16.5q-24 0 -40.5 16.5t-16.5 40.5
q0 25 16.5 41.5t40.5 16.5q25 0 41.5 -16.5t16.5 -41.5zM251 847q0 -24 -16.5 -40.5t-40.5 -16.5q-25 0 -41.5 16.5t-16.5 40.5q0 25 16.5 41.5t41.5 16.5q24 0 40.5 -16.5t16.5 -41.5z" />
    <glyph glyph-name="Igrave" unicode="&#xcc;" horiz-adv-x="430" 
d="M334 79q17 0 25.5 -11t8.5 -28t-8.5 -28.5t-25.5 -11.5h-238q-17 0 -26 11.5t-9 28.5t9 28t26 11h77v538h-77q-17 0 -26 11t-9 28t9 28.5t26 11.5h238q17 0 25.5 -11.5t8.5 -28.5t-8.5 -28t-25.5 -11h-76v-538h76zM246 817q5 -9 9 -15.5t4 -13.5q0 -8 -7.5 -15.5
t-18.5 -7.5q-15 0 -29 14l-125 127q-11 14 -11 32q0 16 12 27.5t32 11.5q18 0 29 -8.5t25 -29.5z" />
    <glyph glyph-name="Iacute" unicode="&#xcd;" horiz-adv-x="430" 
d="M334 79q17 0 25.5 -11t8.5 -28t-8.5 -28.5t-25.5 -11.5h-238q-17 0 -26 11.5t-9 28.5t9 28t26 11h77v538h-77q-17 0 -26 11t-9 28t9 28.5t26 11.5h238q17 0 25.5 -11.5t8.5 -28.5t-8.5 -28t-25.5 -11h-76v-538h76zM226 780q-8 -8 -15.5 -11t-13.5 -3q-12 0 -19 7.5
t-7 15.5q0 7 4 13.5t9 15.5l80 122q14 21 25.5 29.5t29.5 8.5q20 0 31 -11t11 -27q0 -20 -10 -30z" />
    <glyph glyph-name="Icircumflex" unicode="&#xce;" horiz-adv-x="430" 
d="M334 79q17 0 25.5 -11t8.5 -28t-8.5 -28.5t-25.5 -11.5h-238q-17 0 -26 11.5t-9 28.5t9 28t26 11h77v538h-77q-17 0 -26 11t-9 28t9 28.5t26 11.5h238q17 0 25.5 -11.5t8.5 -28.5t-8.5 -28t-25.5 -11h-76v-538h76zM397 817q8 -6 10.5 -12.5t2.5 -13.5q0 -14 -11.5 -23.5
t-26.5 -9.5q-8 0 -15.5 5.5t-13.5 10.5l-120 103l-120 -103q-7 -5 -14 -10.5t-15 -5.5q-15 0 -26.5 9.5t-11.5 23.5q0 7 2.5 13.5t10.5 12.5l140 119q7 6 14.5 9.5t19.5 3.5q20 0 33 -13z" />
    <glyph glyph-name="Idieresis" unicode="&#xcf;" horiz-adv-x="430" 
d="M334 79q17 0 25.5 -11t8.5 -28t-8.5 -28.5t-25.5 -11.5h-238q-17 0 -26 11.5t-9 28.5t9 28t26 11h77v538h-77q-17 0 -26 11t-9 28t9 28.5t26 11.5h238q17 0 25.5 -11.5t8.5 -28.5t-8.5 -28t-25.5 -11h-76v-538h76zM392 847q0 -24 -16.5 -40.5t-41.5 -16.5
q-24 0 -40.5 16.5t-16.5 40.5q0 25 16.5 41.5t40.5 16.5q25 0 41.5 -16.5t16.5 -41.5zM159 847q0 -24 -16.5 -40.5t-40.5 -16.5q-25 0 -41.5 16.5t-16.5 40.5q0 25 16.5 41.5t41.5 16.5q24 0 40.5 -16.5t16.5 -41.5z" />
    <glyph glyph-name="Eth" unicode="&#xd0;" horiz-adv-x="688" 
d="M604 174q0 -36 -14 -68t-39 -56t-59 -38t-74 -14h-322v312h-34q-17 0 -25.5 11t-8.5 28t8.5 28.5t25.5 11.5h34v309h319q40 0 74.5 -14.5t60 -39t40 -58t14.5 -70.5v-342zM424 79q39 0 66 23t27 65v356q0 19 -7.5 36.5t-20 30t-30 20t-38.5 7.5h-241v-228h157
q17 0 26 -11.5t9 -28.5t-9 -28t-26 -11h-157v-231h244z" />
    <glyph glyph-name="Ntilde" unicode="&#xd1;" horiz-adv-x="691" 
d="M595 28q0 -17 -12.5 -26t-29.5 -9t-30.5 9t-13.5 26v169l-300 335l-30 38l3 -60v-482q0 -17 -12.5 -26t-29.5 -9t-30.5 9t-13.5 26v640q0 13 9 24.5t31 11.5q10 0 16.5 -1t12 -4t11.5 -8.5t14 -14.5l288 -317l34 -43l-3 54v300q0 17 13.5 25.5t30.5 8.5t29.5 -8.5
t12.5 -25.5v-642zM558 890q0 -51 -33.5 -83t-90.5 -32q-27 0 -50 13t-44 28.5t-40.5 28.5t-38.5 13q-29 0 -41.5 -13.5t-12.5 -35.5q0 -10 -7.5 -22.5t-26.5 -12.5q-16 0 -25 12t-9 23q0 51 32.5 82t89.5 31q27 0 50.5 -12.5t44.5 -28t40.5 -28t37.5 -12.5q32 0 43.5 14.5
t11.5 34.5q0 11 8 22t27 11q16 0 25 -11t9 -22z" />
    <glyph glyph-name="Ograve" unicode="&#xd2;" horiz-adv-x="677" 
d="M599 166q0 -36 -13.5 -67t-37.5 -54.5t-57 -37t-72 -13.5h-161q-39 0 -72 13.5t-57 37t-37.5 54.5t-13.5 67v363q0 36 14 67.5t38 55t56 37t68 13.5h168q37 0 69.5 -13.5t56.5 -37t37.5 -55t13.5 -67.5v-363zM427 76q19 0 35 7t28 18.5t18.5 26.5t6.5 32v376
q0 17 -6.5 32.5t-18 27t-26.5 18t-33 6.5h-185q-37 0 -60.5 -24.5t-23.5 -59.5v-376q0 -34 24.5 -59t63.5 -25h177zM376 817q5 -9 9 -15.5t4 -13.5q0 -8 -7.5 -15.5t-18.5 -7.5q-15 0 -29 14l-125 127q-11 14 -11 32q0 16 12 27.5t32 11.5q18 0 29 -8.5t25 -29.5z" />
    <glyph glyph-name="Oacute" unicode="&#xd3;" horiz-adv-x="677" 
d="M599 166q0 -36 -13.5 -67t-37.5 -54.5t-57 -37t-72 -13.5h-161q-39 0 -72 13.5t-57 37t-37.5 54.5t-13.5 67v363q0 36 14 67.5t38 55t56 37t68 13.5h168q37 0 69.5 -13.5t56.5 -37t37.5 -55t13.5 -67.5v-363zM427 76q19 0 35 7t28 18.5t18.5 26.5t6.5 32v376
q0 17 -6.5 32.5t-18 27t-26.5 18t-33 6.5h-185q-37 0 -60.5 -24.5t-23.5 -59.5v-376q0 -34 24.5 -59t63.5 -25h177zM370 780q-8 -8 -15.5 -11t-13.5 -3q-12 0 -19 7.5t-7 15.5q0 7 4 13.5t9 15.5l80 122q14 21 25.5 29.5t29.5 8.5q20 0 31 -11t11 -27q0 -20 -10 -30z" />
    <glyph glyph-name="Ocircumflex" unicode="&#xd4;" horiz-adv-x="677" 
d="M599 166q0 -36 -13.5 -67t-37.5 -54.5t-57 -37t-72 -13.5h-161q-39 0 -72 13.5t-57 37t-37.5 54.5t-13.5 67v363q0 36 14 67.5t38 55t56 37t68 13.5h168q37 0 69.5 -13.5t56.5 -37t37.5 -55t13.5 -67.5v-363zM427 76q19 0 35 7t28 18.5t18.5 26.5t6.5 32v376
q0 17 -6.5 32.5t-18 27t-26.5 18t-33 6.5h-185q-37 0 -60.5 -24.5t-23.5 -59.5v-376q0 -34 24.5 -59t63.5 -25h177zM516 817q8 -6 10.5 -12.5t2.5 -13.5q0 -14 -11.5 -23.5t-26.5 -9.5q-8 0 -15.5 5.5t-13.5 10.5l-120 103l-120 -103q-7 -5 -14 -10.5t-15 -5.5
q-15 0 -26.5 9.5t-11.5 23.5q0 7 2.5 13.5t10.5 12.5l140 119q7 6 14.5 9.5t19.5 3.5q20 0 33 -13z" />
    <glyph glyph-name="Otilde" unicode="&#xd5;" horiz-adv-x="677" 
d="M599 166q0 -36 -13.5 -67t-37.5 -54.5t-57 -37t-72 -13.5h-161q-39 0 -72 13.5t-57 37t-37.5 54.5t-13.5 67v363q0 36 14 67.5t38 55t56 37t68 13.5h168q37 0 69.5 -13.5t56.5 -37t37.5 -55t13.5 -67.5v-363zM427 76q19 0 35 7t28 18.5t18.5 26.5t6.5 32v376
q0 17 -6.5 32.5t-18 27t-26.5 18t-33 6.5h-185q-37 0 -60.5 -24.5t-23.5 -59.5v-376q0 -34 24.5 -59t63.5 -25h177zM558 890q0 -51 -33.5 -83t-90.5 -32q-27 0 -50 13t-44 28.5t-40.5 28.5t-38.5 13q-29 0 -41.5 -13.5t-12.5 -35.5q0 -10 -7.5 -22.5t-26.5 -12.5
q-16 0 -25 12t-9 23q0 51 32.5 82t89.5 31q27 0 50.5 -12.5t44.5 -28t40.5 -28t37.5 -12.5q32 0 43.5 14.5t11.5 34.5q0 11 8 22t27 11q16 0 25 -11t9 -22z" />
    <glyph glyph-name="Odieresis" unicode="&#xd6;" horiz-adv-x="677" 
d="M599 166q0 -36 -13.5 -67t-37.5 -54.5t-57 -37t-72 -13.5h-161q-39 0 -72 13.5t-57 37t-37.5 54.5t-13.5 67v363q0 36 14 67.5t38 55t56 37t68 13.5h168q37 0 69.5 -13.5t56.5 -37t37.5 -55t13.5 -67.5v-363zM427 76q19 0 35 7t28 18.5t18.5 26.5t6.5 32v376
q0 17 -6.5 32.5t-18 27t-26.5 18t-33 6.5h-185q-37 0 -60.5 -24.5t-23.5 -59.5v-376q0 -34 24.5 -59t63.5 -25h177zM512 847q0 -24 -16.5 -40.5t-41.5 -16.5q-24 0 -40.5 16.5t-16.5 40.5q0 25 16.5 41.5t40.5 16.5q25 0 41.5 -16.5t16.5 -41.5zM279 847q0 -24 -16.5 -40.5
t-40.5 -16.5q-25 0 -41.5 16.5t-16.5 40.5q0 25 16.5 41.5t41.5 16.5q24 0 40.5 -16.5t16.5 -41.5z" />
    <glyph glyph-name="multiply" unicode="&#xd7;" horiz-adv-x="626" 
d="M510 212q11 -11 11 -24q0 -19 -14 -32t-32 -13q-16 0 -25 9l-137 138l-138 -138q-9 -9 -24 -9q-19 0 -32 13t-13 32q0 14 10 24l137 137l-137 138q-10 9 -10 24q0 19 13 32.5t32 13.5q13 0 24 -11l138 -137l137 137q11 11 25 11q18 0 32 -13.5t14 -32.5q0 -13 -11 -24
l-138 -138z" />
    <glyph glyph-name="Oslash" unicode="&#xd8;" horiz-adv-x="677" 
d="M599 166q0 -36 -13.5 -67t-37.5 -54.5t-57 -37t-72 -13.5h-161q-19 0 -36.5 3.5t-34.5 9.5l-32 -57q-5 -8 -13 -15.5t-18 -7.5q-17 0 -26.5 8t-9.5 21q0 7 1 13.5t5 11.5l36 63q-25 24 -38.5 55.5t-13.5 66.5v363q0 36 14 67.5t38 55t56 37t68 13.5h168q39 0 76 -17
l29 49q9 16 15.5 23t17.5 7q17 0 26.5 -8t9.5 -20q0 -16 -6 -26l-37 -64q22 -24 34 -53.5t12 -63.5v-363zM427 76q19 0 35 7t28 18.5t18.5 26.5t6.5 32v376q0 8 -2 16l-4 16l-281 -490q5 -1 10.5 -1.5t11.5 -0.5h177zM162 160q0 -21 11 -41l285 497q-9 4 -27 4h-185
q-37 0 -60.5 -24.5t-23.5 -59.5v-376z" />
    <glyph glyph-name="Ugrave" unicode="&#xd9;" horiz-adv-x="674" 
d="M590 169q0 -36 -13.5 -67.5t-38 -55.5t-59 -38t-76.5 -14h-132q-42 0 -76.5 14t-59 38t-38 55.5t-13.5 67.5v501q0 17 13.5 25.5t30.5 8.5t31 -8.5t14 -25.5v-508q0 -37 23 -62.5t66 -25.5h151q42 0 65.5 25.5t23.5 62.5v508q0 17 13.5 25.5t30.5 8.5t30.5 -8.5
t13.5 -25.5v-501zM365 817q5 -9 9 -15.5t4 -13.5q0 -8 -7.5 -15.5t-18.5 -7.5q-15 0 -29 14l-125 127q-11 14 -11 32q0 16 12 27.5t32 11.5q18 0 29 -8.5t25 -29.5z" />
    <glyph glyph-name="Uacute" unicode="&#xda;" horiz-adv-x="674" 
d="M590 169q0 -36 -13.5 -67.5t-38 -55.5t-59 -38t-76.5 -14h-132q-42 0 -76.5 14t-59 38t-38 55.5t-13.5 67.5v501q0 17 13.5 25.5t30.5 8.5t31 -8.5t14 -25.5v-508q0 -37 23 -62.5t66 -25.5h151q42 0 65.5 25.5t23.5 62.5v508q0 17 13.5 25.5t30.5 8.5t30.5 -8.5
t13.5 -25.5v-501zM364 780q-8 -8 -15.5 -11t-13.5 -3q-12 0 -19 7.5t-7 15.5q0 7 4 13.5t9 15.5l80 122q14 21 25.5 29.5t29.5 8.5q20 0 31 -11t11 -27q0 -20 -10 -30z" />
    <glyph glyph-name="Ucircumflex" unicode="&#xdb;" horiz-adv-x="674" 
d="M590 169q0 -36 -13.5 -67.5t-38 -55.5t-59 -38t-76.5 -14h-132q-42 0 -76.5 14t-59 38t-38 55.5t-13.5 67.5v501q0 17 13.5 25.5t30.5 8.5t31 -8.5t14 -25.5v-508q0 -37 23 -62.5t66 -25.5h151q42 0 65.5 25.5t23.5 62.5v508q0 17 13.5 25.5t30.5 8.5t30.5 -8.5
t13.5 -25.5v-501zM514 817q8 -6 10.5 -12.5t2.5 -13.5q0 -14 -11.5 -23.5t-26.5 -9.5q-8 0 -15.5 5.5t-13.5 10.5l-120 103l-120 -103q-7 -5 -14 -10.5t-15 -5.5q-15 0 -26.5 9.5t-11.5 23.5q0 7 2.5 13.5t10.5 12.5l140 119q7 6 14.5 9.5t19.5 3.5q20 0 33 -13z" />
    <glyph glyph-name="Udieresis" unicode="&#xdc;" horiz-adv-x="674" 
d="M590 169q0 -36 -13.5 -67.5t-38 -55.5t-59 -38t-76.5 -14h-132q-42 0 -76.5 14t-59 38t-38 55.5t-13.5 67.5v501q0 17 13.5 25.5t30.5 8.5t31 -8.5t14 -25.5v-508q0 -37 23 -62.5t66 -25.5h151q42 0 65.5 25.5t23.5 62.5v508q0 17 13.5 25.5t30.5 8.5t30.5 -8.5
t13.5 -25.5v-501zM512 847q0 -24 -16.5 -40.5t-41.5 -16.5q-24 0 -40.5 16.5t-16.5 40.5q0 25 16.5 41.5t40.5 16.5q25 0 41.5 -16.5t16.5 -41.5zM279 847q0 -24 -16.5 -40.5t-40.5 -16.5q-25 0 -41.5 16.5t-16.5 40.5q0 25 16.5 41.5t41.5 16.5q24 0 40.5 -16.5t16.5 -41.5
z" />
    <glyph glyph-name="Yacute" unicode="&#xdd;" horiz-adv-x="618" 
d="M353 28q0 -17 -12.5 -26t-29.5 -9t-31 9t-14 26v235l-166 152q-40 39 -40 106v149q0 17 12.5 25.5t29.5 8.5t29.5 -8.5t12.5 -25.5v-144q0 -22 3 -35t17 -25l136 -124h17l135 124q13 11 17 24.5t4 35.5v144q0 17 13 25.5t30 8.5t29.5 -8.5t12.5 -25.5v-149
q0 -36 -8 -59.5t-32 -46.5l-165 -152v-235zM317 780q-8 -8 -15.5 -11t-13.5 -3q-12 0 -19 7.5t-7 15.5q0 7 4 13.5t9 15.5l80 122q14 21 25.5 29.5t29.5 8.5q20 0 31 -11t11 -27q0 -20 -10 -30z" />
    <glyph glyph-name="Thorn" unicode="&#xde;" horiz-adv-x="622" 
d="M568 335q0 -34 -12 -64t-34 -52.5t-53 -35.5t-69 -13h-220v-142q0 -17 -12 -26t-29 -9t-30 9t-13 26v642q0 17 13 25.5t30 8.5t29 -8.5t12 -25.5v-105h220q36 0 67 -12t53.5 -34t35 -52t12.5 -66v-66zM406 250q78 0 78 78v82q0 35 -21.5 55.5t-54.5 20.5h-228v-236h226z
" />
    <glyph glyph-name="germandbls" unicode="&#xdf;" horiz-adv-x="684" 
d="M462 74q31 0 52.5 19t21.5 45q0 15 -6 26.5t-15.5 19t-21.5 12t-23 6.5l-55 12q-57 12 -88.5 46t-31.5 88q0 34 9.5 58.5t24 44t31.5 36t31.5 35t24 41.5t9.5 55t-20 56t-55 24h-94q-38 0 -57 -25t-19 -57v-701q0 -17 -12.5 -26t-29.5 -9t-29.5 9t-12.5 26v697
q0 36 11.5 66t33.5 52.5t52.5 35t69.5 12.5h77q37 0 68.5 -13t53.5 -35t34.5 -51t12.5 -60q0 -37 -10 -65t-24.5 -50.5t-31.5 -41.5t-31.5 -36.5t-24.5 -36.5t-10 -41q0 -24 17 -40t37 -21l53 -11q66 -14 100 -51t34 -89q0 -31 -13 -57t-34.5 -45t-49.5 -29.5t-59 -10.5
h-148q-18 0 -26 11.5t-8 28.5t8.5 28t25.5 11z" />
    <glyph glyph-name="agrave" unicode="&#xe0;" horiz-adv-x="613" 
d="M535 28q0 -17 -12.5 -26t-29.5 -9t-29.5 9t-12.5 26v24l-33 -28q-17 -14 -43 -22t-55 -8h-93q-70 0 -112.5 37.5t-42.5 100.5v73q0 29 12 55t32 45t46 30t55 11h95q22 0 44 -10t40 -24l56 -47v91q0 81 -90 80h-194q-17 0 -26 11t-9 28t9 29t26 12h199q38 0 69 -12.5
t53 -34t34 -50.5t12 -63v-328zM451 140v30l-81 72q-17 15 -32 21.5t-37 6.5h-80q-32 0 -49 -19t-17 -48v-78q0 -27 18 -42t48 -15h109q22 0 36 7t28 19zM332 649q5 -9 9 -15.5t4 -13.5q0 -8 -7.5 -15.5t-18.5 -7.5q-15 0 -29 14l-125 127q-11 14 -11 32q0 16 12 27.5
t32 11.5q18 0 29 -8.5t25 -29.5z" />
    <glyph glyph-name="aacute" unicode="&#xe1;" horiz-adv-x="613" 
d="M535 28q0 -17 -12.5 -26t-29.5 -9t-29.5 9t-12.5 26v24l-33 -28q-17 -14 -43 -22t-55 -8h-93q-70 0 -112.5 37.5t-42.5 100.5v73q0 29 12 55t32 45t46 30t55 11h95q22 0 44 -10t40 -24l56 -47v91q0 81 -90 80h-194q-17 0 -26 11t-9 28t9 29t26 12h199q38 0 69 -12.5
t53 -34t34 -50.5t12 -63v-328zM451 140v30l-81 72q-17 15 -32 21.5t-37 6.5h-80q-32 0 -49 -19t-17 -48v-78q0 -27 18 -42t48 -15h109q22 0 36 7t28 19zM311 608q-8 -8 -15.5 -11t-13.5 -3q-12 0 -19 7.5t-7 15.5q0 7 4 13.5t9 15.5l80 122q14 21 25.5 29.5t29.5 8.5
q20 0 31 -11t11 -27q0 -20 -10 -30z" />
    <glyph glyph-name="acircumflex" unicode="&#xe2;" horiz-adv-x="613" 
d="M535 28q0 -17 -12.5 -26t-29.5 -9t-29.5 9t-12.5 26v24l-33 -28q-17 -14 -43 -22t-55 -8h-93q-70 0 -112.5 37.5t-42.5 100.5v73q0 29 12 55t32 45t46 30t55 11h95q22 0 44 -10t40 -24l56 -47v91q0 81 -90 80h-194q-17 0 -26 11t-9 28t9 29t26 12h199q38 0 69 -12.5
t53 -34t34 -50.5t12 -63v-328zM451 140v30l-81 72q-17 15 -32 21.5t-37 6.5h-80q-32 0 -49 -19t-17 -48v-78q0 -27 18 -42t48 -15h109q22 0 36 7t28 19zM489 655q8 -6 10.5 -12.5t2.5 -13.5q0 -14 -11.5 -23.5t-26.5 -9.5q-8 0 -15.5 5.5t-13.5 10.5l-120 103l-120 -103
q-7 -5 -14 -10.5t-15 -5.5q-15 0 -26.5 9.5t-11.5 23.5q0 7 2.5 13.5t10.5 12.5l140 119q7 6 14.5 9.5t19.5 3.5q20 0 33 -13z" />
    <glyph glyph-name="atilde" unicode="&#xe3;" horiz-adv-x="613" 
d="M535 28q0 -17 -12.5 -26t-29.5 -9t-29.5 9t-12.5 26v24l-33 -28q-17 -14 -43 -22t-55 -8h-93q-70 0 -112.5 37.5t-42.5 100.5v73q0 29 12 55t32 45t46 30t55 11h95q22 0 44 -10t40 -24l56 -47v91q0 81 -90 80h-194q-17 0 -26 11t-9 28t9 29t26 12h199q38 0 69 -12.5
t53 -34t34 -50.5t12 -63v-328zM451 140v30l-81 72q-17 15 -32 21.5t-37 6.5h-80q-32 0 -49 -19t-17 -48v-78q0 -27 18 -42t48 -15h109q22 0 36 7t28 19zM515 726q0 -51 -33.5 -83t-90.5 -32q-27 0 -50 13t-44 28.5t-40.5 28.5t-38.5 13q-29 0 -41.5 -13.5t-12.5 -35.5
q0 -10 -7.5 -22.5t-26.5 -12.5q-16 0 -25 12t-9 23q0 51 32.5 82t89.5 31q27 0 50.5 -12.5t44.5 -28t40.5 -28t37.5 -12.5q32 0 43.5 14.5t11.5 34.5q0 11 8 22t27 11q16 0 25 -11t9 -22z" />
    <glyph glyph-name="adieresis" unicode="&#xe4;" horiz-adv-x="613" 
d="M535 28q0 -17 -12.5 -26t-29.5 -9t-29.5 9t-12.5 26v24l-33 -28q-17 -14 -43 -22t-55 -8h-93q-70 0 -112.5 37.5t-42.5 100.5v73q0 29 12 55t32 45t46 30t55 11h95q22 0 44 -10t40 -24l56 -47v91q0 81 -90 80h-194q-17 0 -26 11t-9 28t9 29t26 12h199q38 0 69 -12.5
t53 -34t34 -50.5t12 -63v-328zM451 140v30l-81 72q-17 15 -32 21.5t-37 6.5h-80q-32 0 -49 -19t-17 -48v-78q0 -27 18 -42t48 -15h109q22 0 36 7t28 19zM472 673q0 -24 -16.5 -40.5t-41.5 -16.5q-24 0 -40.5 16.5t-16.5 40.5q0 25 16.5 41.5t40.5 16.5q25 0 41.5 -16.5
t16.5 -41.5zM239 673q0 -24 -16.5 -40.5t-40.5 -16.5q-25 0 -41.5 16.5t-16.5 40.5q0 25 16.5 41.5t41.5 16.5q24 0 40.5 -16.5t16.5 -41.5z" />
    <glyph glyph-name="aring" unicode="&#xe5;" horiz-adv-x="613" 
d="M535 28q0 -17 -12.5 -26t-29.5 -9t-29.5 9t-12.5 26v24l-33 -28q-17 -14 -43 -22t-55 -8h-93q-70 0 -112.5 37.5t-42.5 100.5v73q0 29 12 55t32 45t46 30t55 11h95q22 0 44 -10t40 -24l56 -47v91q0 81 -90 80h-194q-17 0 -26 11t-9 28t9 29t26 12h199q38 0 69 -12.5
t53 -34t34 -50.5t12 -63v-328zM451 140v30l-81 72q-17 15 -32 21.5t-37 6.5h-80q-32 0 -49 -19t-17 -48v-78q0 -27 18 -42t48 -15h109q22 0 36 7t28 19zM403 710q0 -23 -8.5 -43.5t-23.5 -35.5t-35.5 -24t-44.5 -9q-23 0 -43 9t-35 24t-23.5 35.5t-8.5 43.5t8.5 43t23.5 35
t35 23.5t43 8.5q24 0 44.5 -8.5t35.5 -23.5t23.5 -35t8.5 -43zM354 710q0 25 -18 43t-43 18q-26 0 -43 -18t-17 -43t17 -42.5t43 -17.5q25 0 43 17.5t18 42.5z" />
    <glyph glyph-name="ae" unicode="&#xe6;" horiz-adv-x="984" 
d="M832 73q17 0 26.5 -11t9.5 -28q0 -18 -9.5 -29t-26.5 -11h-232q-25 0 -46 9.5t-37 23t-25.5 27.5t-10.5 23l-65 -53q-36 -30 -97 -30h-92q-70 0 -112.5 37.5t-42.5 100.5v73q0 29 12 55t32 45t46 30t55 11h94q22 0 44 -10t40 -24l56 -47v91q0 81 -90 80h-200
q-17 0 -26 11t-9 28t9 29t26 12h206q42 0 74 -13.5t53 -38.5q23 24 54.5 38t67.5 14h138q34 0 64 -13t52 -35t35 -52t13 -64v-58q0 -14 -7 -27.5t-18.5 -24t-25.5 -17.5t-28 -7h-304v-68q0 -18 7 -32t18 -24t25 -15.5t28 -5.5h219zM817 294q8 0 12.5 6t4.5 12v49
q0 30 -22 51.5t-50 21.5h-151q-15 0 -28.5 -6t-24 -16.5t-17 -23.5t-6.5 -27v-67h282zM450 142v28l-82 71q-16 14 -31 21t-37 7h-79q-32 0 -49 -19t-17 -48v-76q0 -27 18 -41.5t48 -14.5h108q22 0 35.5 6.5t27.5 18.5z" />
    <glyph glyph-name="ccedilla" unicode="&#xe7;" horiz-adv-x="600" 
d="M463 78q17 0 26 -12t9 -29q0 -18 -9 -29.5t-26 -11.5h-217q-38 0 -70 12t-55 33.5t-36 52.5t-13 69v183q0 36 13 67.5t36 54t54.5 35.5t69.5 13h126q76 0 119.5 -40.5t43.5 -109.5v-11q0 -17 -12.5 -26t-29.5 -9t-29.5 9t-12.5 26v15q0 64 -74 64h-136q-42 -1 -63 -24
t-21 -56v-202q0 -30 22 -52t62 -22h223zM242 -240q-9 0 -15.5 7t-6.5 17t6.5 17.5t15.5 7.5h40q32 0 45 12.5t13 34.5q0 28 -11.5 38t-40.5 10h-23q-22 0 -22 18v17l42 78h63l-38 -73h16q40 0 62.5 -24.5t22.5 -58.5q0 -43 -30 -72t-87 -29h-52z" />
    <glyph glyph-name="egrave" unicode="&#xe8;" horiz-adv-x="605" 
d="M460 73q17 0 26.5 -11t9.5 -28q0 -18 -9.5 -29t-26.5 -11h-218q-38 0 -69 12t-53.5 33.5t-35 51.5t-12.5 65v196q0 34 12.5 64t34.5 52t52 35t65 13h138q34 0 64.5 -13t52.5 -35t35 -52t13 -64v-58q0 -14 -7 -27.5t-18.5 -24t-25.5 -17.5t-28 -7h-304v-75q0 -16 7 -29
t18 -22t25 -14t28 -5h226zM438 294q8 0 12.5 6t4.5 12v49q0 13 -6 26.5t-16 23.5t-23 16.5t-27 6.5h-151q-15 0 -28.5 -6t-24 -16.5t-17 -23.5t-6.5 -27v-67h282zM318 649q5 -9 9 -15.5t4 -13.5q0 -8 -7.5 -15.5t-18.5 -7.5q-15 0 -29 14l-125 127q-11 14 -11 32
q0 16 12 27.5t32 11.5q18 0 29 -8.5t25 -29.5z" />
    <glyph glyph-name="eacute" unicode="&#xe9;" horiz-adv-x="605" 
d="M460 73q17 0 26.5 -11t9.5 -28q0 -18 -9.5 -29t-26.5 -11h-218q-38 0 -69 12t-53.5 33.5t-35 51.5t-12.5 65v196q0 34 12.5 64t34.5 52t52 35t65 13h138q34 0 64.5 -13t52.5 -35t35 -52t13 -64v-58q0 -14 -7 -27.5t-18.5 -24t-25.5 -17.5t-28 -7h-304v-75q0 -16 7 -29
t18 -22t25 -14t28 -5h226zM438 294q8 0 12.5 6t4.5 12v49q0 13 -6 26.5t-16 23.5t-23 16.5t-27 6.5h-151q-15 0 -28.5 -6t-24 -16.5t-17 -23.5t-6.5 -27v-67h282zM311 608q-8 -8 -15.5 -11t-13.5 -3q-12 0 -19 7.5t-7 15.5q0 7 4 13.5t9 15.5l80 122q14 21 25.5 29.5
t29.5 8.5q20 0 31 -11t11 -27q0 -20 -10 -30z" />
    <glyph glyph-name="ecircumflex" unicode="&#xea;" horiz-adv-x="605" 
d="M460 73q17 0 26.5 -11t9.5 -28q0 -18 -9.5 -29t-26.5 -11h-218q-38 0 -69 12t-53.5 33.5t-35 51.5t-12.5 65v196q0 34 12.5 64t34.5 52t52 35t65 13h138q34 0 64.5 -13t52.5 -35t35 -52t13 -64v-58q0 -14 -7 -27.5t-18.5 -24t-25.5 -17.5t-28 -7h-304v-75q0 -16 7 -29
t18 -22t25 -14t28 -5h226zM438 294q8 0 12.5 6t4.5 12v49q0 13 -6 26.5t-16 23.5t-23 16.5t-27 6.5h-151q-15 0 -28.5 -6t-24 -16.5t-17 -23.5t-6.5 -27v-67h282zM489 655q8 -6 10.5 -12.5t2.5 -13.5q0 -14 -11.5 -23.5t-26.5 -9.5q-8 0 -15.5 5.5t-13.5 10.5l-120 103
l-120 -103q-7 -5 -14 -10.5t-15 -5.5q-15 0 -26.5 9.5t-11.5 23.5q0 7 2.5 13.5t10.5 12.5l140 119q7 6 14.5 9.5t19.5 3.5q20 0 33 -13z" />
    <glyph glyph-name="edieresis" unicode="&#xeb;" horiz-adv-x="605" 
d="M460 73q17 0 26.5 -11t9.5 -28q0 -18 -9.5 -29t-26.5 -11h-218q-38 0 -69 12t-53.5 33.5t-35 51.5t-12.5 65v196q0 34 12.5 64t34.5 52t52 35t65 13h138q34 0 64.5 -13t52.5 -35t35 -52t13 -64v-58q0 -14 -7 -27.5t-18.5 -24t-25.5 -17.5t-28 -7h-304v-75q0 -16 7 -29
t18 -22t25 -14t28 -5h226zM438 294q8 0 12.5 6t4.5 12v49q0 13 -6 26.5t-16 23.5t-23 16.5t-27 6.5h-151q-15 0 -28.5 -6t-24 -16.5t-17 -23.5t-6.5 -27v-67h282zM472 673q0 -24 -16.5 -40.5t-41.5 -16.5q-24 0 -40.5 16.5t-16.5 40.5q0 25 16.5 41.5t40.5 16.5
q25 0 41.5 -16.5t16.5 -41.5zM239 673q0 -24 -16.5 -40.5t-40.5 -16.5q-25 0 -41.5 16.5t-16.5 40.5q0 25 16.5 41.5t41.5 16.5q24 0 40.5 -16.5t16.5 -41.5z" />
    <glyph glyph-name="igrave" unicode="&#xec;" horiz-adv-x="386" 
d="M322 74q34 0 34 -37t-34 -37h-245q-35 0 -35 37t35 37h78v359h-78q-17 0 -26 10.5t-9 28.5q0 17 9 27.5t26 10.5h162v-436h83zM231 649q5 -9 9 -15.5t4 -13.5q0 -8 -7.5 -15.5t-18.5 -7.5q-15 0 -29 14l-125 127q-11 14 -11 32q0 16 12 27.5t32 11.5q18 0 29 -8.5
t25 -29.5z" />
    <glyph glyph-name="iacute" unicode="&#xed;" horiz-adv-x="386" 
d="M322 74q34 0 34 -37t-34 -37h-245q-35 0 -35 37t35 37h78v359h-78q-17 0 -26 10.5t-9 28.5q0 17 9 27.5t26 10.5h162v-436h83zM168 608q-8 -8 -15.5 -11t-13.5 -3q-12 0 -19 7.5t-7 15.5q0 7 4 13.5t9 15.5l80 122q14 21 25.5 29.5t29.5 8.5q20 0 31 -11t11 -27
q0 -20 -10 -30z" />
    <glyph glyph-name="icircumflex" unicode="&#xee;" horiz-adv-x="386" 
d="M322 74q34 0 34 -37t-34 -37h-245q-35 0 -35 37t35 37h78v359h-78q-17 0 -26 10.5t-9 28.5q0 17 9 27.5t26 10.5h162v-436h83zM369 655q8 -6 10.5 -12.5t2.5 -13.5q0 -14 -11.5 -23.5t-26.5 -9.5q-8 0 -15.5 5.5t-13.5 10.5l-120 103l-120 -103q-7 -5 -14 -10.5t-15 -5.5
q-15 0 -26.5 9.5t-11.5 23.5q0 7 2.5 13.5t10.5 12.5l140 119q7 6 14.5 9.5t19.5 3.5q20 0 33 -13z" />
    <glyph glyph-name="idieresis" unicode="&#xef;" horiz-adv-x="386" 
d="M322 74q34 0 34 -37t-34 -37h-245q-35 0 -35 37t35 37h78v359h-78q-17 0 -26 10.5t-9 28.5q0 17 9 27.5t26 10.5h162v-436h83zM374 673q0 -24 -16.5 -40.5t-41.5 -16.5q-24 0 -40.5 16.5t-16.5 40.5q0 25 16.5 41.5t40.5 16.5q25 0 41.5 -16.5t16.5 -41.5zM141 673
q0 -24 -16.5 -40.5t-40.5 -16.5q-25 0 -41.5 16.5t-16.5 40.5q0 25 16.5 41.5t41.5 16.5q24 0 40.5 -16.5t16.5 -41.5z" />
    <glyph glyph-name="eth" unicode="&#xf0;" horiz-adv-x="626" 
d="M554 180q0 -41 -12.5 -75.5t-36.5 -59t-59 -38t-81 -13.5h-141q-35 0 -66 11.5t-54.5 33t-37 51.5t-13.5 68v30q0 66 41.5 106t110.5 50l265 38v28q0 38 -9 69.5t-24 56.5l-42 -60q-9 -14 -28 -14q-15 0 -25.5 10t-10.5 21q0 8 2.5 13.5t6.5 10.5l50 66q-24 17 -53 25.5
t-72 8.5h-66q-17 0 -26 10.5t-9 27.5t9 29t26 12h65q49 0 92.5 -12.5t77.5 -37.5l32 44q8 14 26 14q15 0 25.5 -9.5t10.5 -21.5q0 -17 -7 -24l-37 -47q34 -37 52 -86.5t18 -115.5v-220zM373 76q97 0 97 97v131l-273 -39q-31 -5 -45.5 -25t-14.5 -44v-45q0 -35 20.5 -55
t58.5 -20h157z" />
    <glyph glyph-name="ntilde" unicode="&#xf1;" horiz-adv-x="630" 
d="M552 28q0 -17 -12.5 -26t-29.5 -9t-29.5 9t-12.5 26v337q0 13 -6.5 26.5t-16.5 23.5t-23 16.5t-26 6.5h-67q-22 0 -39 -6t-32 -20l-90 -86v-298q0 -17 -12 -26t-29 -9t-30 9t-13 26v454q0 17 12.5 26t29.5 9t29.5 -9t12.5 -26v-60l64 60q17 16 40.5 25t45.5 9h70
q36 0 66 -13t52 -35t34 -52t12 -64v-324zM519 726q0 -51 -33.5 -83t-90.5 -32q-27 0 -50 13t-44 28.5t-40.5 28.5t-38.5 13q-29 0 -41.5 -13.5t-12.5 -35.5q0 -10 -7.5 -22.5t-26.5 -12.5q-16 0 -25 12t-9 23q0 51 32.5 82t89.5 31q27 0 50.5 -12.5t44.5 -28t40.5 -28
t37.5 -12.5q32 0 43.5 14.5t11.5 34.5q0 11 8 22t27 11q16 0 25 -11t9 -22z" />
    <glyph glyph-name="ograve" unicode="&#xf2;" horiz-adv-x="626" 
d="M554 166q0 -36 -13.5 -67t-37.5 -54.5t-57 -37t-72 -13.5h-122q-39 0 -72 13.5t-57 37t-37.5 54.5t-13.5 67v177q0 36 14 67.5t38 55t56 37t68 13.5h130q37 0 69.5 -13.5t56 -37t37 -55t13.5 -67.5v-177zM383 76q38 0 62.5 25t24.5 59v190q0 17 -6.5 32.5t-18 27
t-26.5 18t-33 6.5h-146q-37 0 -60.5 -24.5t-23.5 -59.5v-190q0 -34 24.5 -59t63.5 -25h139zM347 649q5 -9 9 -15.5t4 -13.5q0 -8 -7.5 -15.5t-18.5 -7.5q-15 0 -29 14l-125 127q-11 14 -11 32q0 16 12 27.5t32 11.5q18 0 29 -8.5t25 -29.5z" />
    <glyph glyph-name="oacute" unicode="&#xf3;" horiz-adv-x="626" 
d="M554 166q0 -36 -13.5 -67t-37.5 -54.5t-57 -37t-72 -13.5h-122q-39 0 -72 13.5t-57 37t-37.5 54.5t-13.5 67v177q0 36 14 67.5t38 55t56 37t68 13.5h130q37 0 69.5 -13.5t56 -37t37 -55t13.5 -67.5v-177zM383 76q38 0 62.5 25t24.5 59v190q0 17 -6.5 32.5t-18 27
t-26.5 18t-33 6.5h-146q-37 0 -60.5 -24.5t-23.5 -59.5v-190q0 -34 24.5 -59t63.5 -25h139zM334 608q-8 -8 -15.5 -11t-13.5 -3q-12 0 -19 7.5t-7 15.5q0 7 4 13.5t9 15.5l80 122q14 21 25.5 29.5t29.5 8.5q20 0 31 -11t11 -27q0 -20 -10 -30z" />
    <glyph glyph-name="ocircumflex" unicode="&#xf4;" horiz-adv-x="626" 
d="M554 166q0 -36 -13.5 -67t-37.5 -54.5t-57 -37t-72 -13.5h-122q-39 0 -72 13.5t-57 37t-37.5 54.5t-13.5 67v177q0 36 14 67.5t38 55t56 37t68 13.5h130q37 0 69.5 -13.5t56 -37t37 -55t13.5 -67.5v-177zM383 76q38 0 62.5 25t24.5 59v190q0 17 -6.5 32.5t-18 27
t-26.5 18t-33 6.5h-146q-37 0 -60.5 -24.5t-23.5 -59.5v-190q0 -34 24.5 -59t63.5 -25h139zM489 655q8 -6 10.5 -12.5t2.5 -13.5q0 -14 -11.5 -23.5t-26.5 -9.5q-8 0 -15.5 5.5t-13.5 10.5l-120 103l-120 -103q-7 -5 -14 -10.5t-15 -5.5q-15 0 -26.5 9.5t-11.5 23.5
q0 7 2.5 13.5t10.5 12.5l140 119q7 6 14.5 9.5t19.5 3.5q20 0 33 -13z" />
    <glyph glyph-name="otilde" unicode="&#xf5;" horiz-adv-x="626" 
d="M554 166q0 -36 -13.5 -67t-37.5 -54.5t-57 -37t-72 -13.5h-122q-39 0 -72 13.5t-57 37t-37.5 54.5t-13.5 67v177q0 36 14 67.5t38 55t56 37t68 13.5h130q37 0 69.5 -13.5t56 -37t37 -55t13.5 -67.5v-177zM383 76q38 0 62.5 25t24.5 59v190q0 17 -6.5 32.5t-18 27
t-26.5 18t-33 6.5h-146q-37 0 -60.5 -24.5t-23.5 -59.5v-190q0 -34 24.5 -59t63.5 -25h139zM515 726q0 -51 -33.5 -83t-90.5 -32q-27 0 -50 13t-44 28.5t-40.5 28.5t-38.5 13q-29 0 -41.5 -13.5t-12.5 -35.5q0 -10 -7.5 -22.5t-26.5 -12.5q-16 0 -25 12t-9 23q0 51 32.5 82
t89.5 31q27 0 50.5 -12.5t44.5 -28t40.5 -28t37.5 -12.5q32 0 43.5 14.5t11.5 34.5q0 11 8 22t27 11q16 0 25 -11t9 -22z" />
    <glyph glyph-name="odieresis" unicode="&#xf6;" horiz-adv-x="626" 
d="M554 166q0 -36 -13.5 -67t-37.5 -54.5t-57 -37t-72 -13.5h-122q-39 0 -72 13.5t-57 37t-37.5 54.5t-13.5 67v177q0 36 14 67.5t38 55t56 37t68 13.5h130q37 0 69.5 -13.5t56 -37t37 -55t13.5 -67.5v-177zM383 76q38 0 62.5 25t24.5 59v190q0 17 -6.5 32.5t-18 27
t-26.5 18t-33 6.5h-146q-37 0 -60.5 -24.5t-23.5 -59.5v-190q0 -34 24.5 -59t63.5 -25h139zM493 673q0 -24 -16.5 -40.5t-41.5 -16.5q-24 0 -40.5 16.5t-16.5 40.5q0 25 16.5 41.5t40.5 16.5q25 0 41.5 -16.5t16.5 -41.5zM260 673q0 -24 -16.5 -40.5t-40.5 -16.5
q-25 0 -41.5 16.5t-16.5 40.5q0 25 16.5 41.5t41.5 16.5q24 0 40.5 -16.5t16.5 -41.5z" />
    <glyph glyph-name="divide" unicode="&#xf7;" horiz-adv-x="680" 
d="M401 539q0 -25 -18 -42.5t-43 -17.5t-42.5 17.5t-17.5 42.5t17.5 43t42.5 18t43 -18t18 -43zM562 389q17 0 25.5 -12.5t8.5 -29.5t-8.5 -28.5t-25.5 -11.5h-443q-17 0 -26 11.5t-9 28.5t9 29.5t26 12.5h443zM401 150q0 -24 -18 -42t-43 -18t-42.5 18t-17.5 42
q0 26 17.5 43.5t42.5 17.5t43 -17.5t18 -43.5z" />
    <glyph glyph-name="oslash" unicode="&#xf8;" horiz-adv-x="626" 
d="M554 166q0 -36 -13.5 -67t-37.5 -54.5t-57 -37t-72 -13.5h-122q-38 0 -74 14l-26 -34q-5 -8 -12 -14.5t-16 -6.5q-16 0 -25.5 7.5t-9.5 19.5q0 6 1 12.5t4 11.5l30 39q-25 23 -38.5 55t-13.5 68v177q0 36 14 67.5t38 55t56 37t68 13.5h130q45 0 83 -20l20 27l15 21t16 7
q16 0 25.5 -7.5t9.5 -19.5q0 -6 -1 -12.5t-4 -11.5l-32 -42q21 -23 32.5 -53t11.5 -62v-177zM383 76q38 0 62.5 25t24.5 59v190q0 24 -10 40l-232 -313q5 -1 8.5 -1h7.5h139zM156 160q0 -28 17 -51l239 322q-12 3 -26 3h-146q-37 0 -60.5 -24.5t-23.5 -59.5v-190z" />
    <glyph glyph-name="ugrave" unicode="&#xf9;" horiz-adv-x="631" 
d="M547 28q0 -17 -12.5 -26t-29.5 -9t-29.5 9t-12.5 26v34l-42 -38q-16 -14 -43 -22t-56 -8h-80q-37 0 -67 12.5t-51.5 34.5t-33.5 52t-12 65v327q0 17 12.5 26t29.5 9q18 0 30 -9t12 -26v-342q0 -14 6 -26.5t16 -23t23 -16.5t27 -6h97q41 0 66 25l66 62v327q0 17 12.5 26
t29.5 9q18 0 30 -9t12 -26v-457zM340 649q5 -9 9 -15.5t4 -13.5q0 -8 -7.5 -15.5t-18.5 -7.5q-15 0 -29 14l-125 127q-11 14 -11 32q0 16 12 27.5t32 11.5q18 0 29 -8.5t25 -29.5z" />
    <glyph glyph-name="uacute" unicode="&#xfa;" horiz-adv-x="631" 
d="M547 28q0 -17 -12.5 -26t-29.5 -9t-29.5 9t-12.5 26v34l-42 -38q-16 -14 -43 -22t-56 -8h-80q-37 0 -67 12.5t-51.5 34.5t-33.5 52t-12 65v327q0 17 12.5 26t29.5 9q18 0 30 -9t12 -26v-342q0 -14 6 -26.5t16 -23t23 -16.5t27 -6h97q41 0 66 25l66 62v327q0 17 12.5 26
t29.5 9q18 0 30 -9t12 -26v-457zM311 608q-8 -8 -15.5 -11t-13.5 -3q-12 0 -19 7.5t-7 15.5q0 7 4 13.5t9 15.5l80 122q14 21 25.5 29.5t29.5 8.5q20 0 31 -11t11 -27q0 -20 -10 -30z" />
    <glyph glyph-name="ucircumflex" unicode="&#xfb;" horiz-adv-x="631" 
d="M547 28q0 -17 -12.5 -26t-29.5 -9t-29.5 9t-12.5 26v34l-42 -38q-16 -14 -43 -22t-56 -8h-80q-37 0 -67 12.5t-51.5 34.5t-33.5 52t-12 65v327q0 17 12.5 26t29.5 9q18 0 30 -9t12 -26v-342q0 -14 6 -26.5t16 -23t23 -16.5t27 -6h97q41 0 66 25l66 62v327q0 17 12.5 26
t29.5 9q18 0 30 -9t12 -26v-457zM489 655q8 -6 10.5 -12.5t2.5 -13.5q0 -14 -11.5 -23.5t-26.5 -9.5q-8 0 -15.5 5.5t-13.5 10.5l-120 103l-120 -103q-7 -5 -14 -10.5t-15 -5.5q-15 0 -26.5 9.5t-11.5 23.5q0 7 2.5 13.5t10.5 12.5l140 119q7 6 14.5 9.5t19.5 3.5
q20 0 33 -13z" />
    <glyph glyph-name="udieresis" unicode="&#xfc;" horiz-adv-x="631" 
d="M547 28q0 -17 -12.5 -26t-29.5 -9t-29.5 9t-12.5 26v34l-42 -38q-16 -14 -43 -22t-56 -8h-80q-37 0 -67 12.5t-51.5 34.5t-33.5 52t-12 65v327q0 17 12.5 26t29.5 9q18 0 30 -9t12 -26v-342q0 -14 6 -26.5t16 -23t23 -16.5t27 -6h97q41 0 66 25l66 62v327q0 17 12.5 26
t29.5 9q18 0 30 -9t12 -26v-457zM488 673q0 -24 -16.5 -40.5t-41.5 -16.5q-24 0 -40.5 16.5t-16.5 40.5q0 25 16.5 41.5t40.5 16.5q25 0 41.5 -16.5t16.5 -41.5zM255 673q0 -24 -16.5 -40.5t-40.5 -16.5q-25 0 -41.5 16.5t-16.5 40.5q0 25 16.5 41.5t41.5 16.5
q24 0 40.5 -16.5t16.5 -41.5z" />
    <glyph glyph-name="yacute" unicode="&#xfd;" horiz-adv-x="618" 
d="M534 -8q0 -37 -14 -69.5t-38.5 -56.5t-58.5 -38t-74 -14h-174q-17 0 -26 12t-9 29t9 28t26 11h173q49 0 75.5 27t26.5 72v74l-34 -27q-36 -30 -97 -30h-92q-70 0 -112.5 37.5t-42.5 100.5v337q0 17 12 26t29 9q18 0 30 -9t12 -26v-342q0 -27 18 -42t48 -15h108
q22 0 35.5 7t27.5 19l58 46v327q0 17 12.5 26t29.5 9q18 0 30 -9t12 -26v-493zM319 608q-8 -8 -15.5 -11t-13.5 -3q-12 0 -19 7.5t-7 15.5q0 7 4 13.5t9 15.5l80 122q14 21 25.5 29.5t29.5 8.5q20 0 31 -11t11 -27q0 -20 -10 -30z" />
    <glyph glyph-name="thorn" unicode="&#xfe;" horiz-adv-x="637" 
d="M559 173q0 -35 -12 -65.5t-33.5 -52.5t-51.5 -34.5t-67 -12.5h-85q-29 0 -56 8t-44 22l-42 39v-235q0 -17 -12.5 -26t-29.5 -9t-29.5 9t-12.5 26v828q0 17 12.5 25.5t29.5 8.5q18 0 30 -8.5t12 -25.5v-248l64 60q17 16 40.5 25t45.5 9h77q36 0 66 -13t52 -35t34 -52
t12 -64v-179zM403 85q14 0 27 6t23 16.5t16 23t6 26.5v208q0 13 -6.5 26.5t-16.5 23.5t-23 16.5t-26 6.5h-74q-22 0 -39 -6t-32 -20l-90 -86v-153l66 -63q13 -12 28.5 -18.5t37.5 -6.5h103z" />
    <glyph glyph-name="ydieresis" unicode="&#xff;" horiz-adv-x="618" 
d="M534 -8q0 -37 -14 -69.5t-38.5 -56.5t-58.5 -38t-74 -14h-174q-17 0 -26 12t-9 29t9 28t26 11h173q49 0 75.5 27t26.5 72v74l-34 -27q-36 -30 -97 -30h-92q-70 0 -112.5 37.5t-42.5 100.5v337q0 17 12 26t29 9q18 0 30 -9t12 -26v-342q0 -27 18 -42t48 -15h108
q22 0 35.5 7t27.5 19l58 46v327q0 17 12.5 26t29.5 9q18 0 30 -9t12 -26v-493zM472 673q0 -24 -16.5 -40.5t-41.5 -16.5q-24 0 -40.5 16.5t-16.5 40.5q0 25 16.5 41.5t40.5 16.5q25 0 41.5 -16.5t16.5 -41.5zM239 673q0 -24 -16.5 -40.5t-40.5 -16.5q-25 0 -41.5 16.5
t-16.5 40.5q0 25 16.5 41.5t41.5 16.5q24 0 40.5 -16.5t16.5 -41.5z" />
    <glyph glyph-name="dotlessi" unicode="&#x131;" horiz-adv-x="386" 
d="M322 74q34 0 34 -37t-34 -37h-245q-35 0 -35 37t35 37h78v359h-78q-17 0 -26 10.5t-9 28.5q0 17 9 27.5t26 10.5h162v-436h83z" />
    <glyph glyph-name="Lslash" unicode="&#x141;" horiz-adv-x="614" 
d="M536 82q17 0 26 -12t9 -29q0 -18 -9 -29.5t-26 -11.5h-386v310h-50q-17 0 -26 11t-9 28t9 28.5t26 11.5h50v281q0 17 13.5 25.5t30.5 8.5t31 -8.5t14 -25.5v-281h149q17 0 25.5 -11.5t8.5 -28.5t-8.5 -28t-25.5 -11h-149v-228h297z" />
    <glyph glyph-name="lslash" unicode="&#x142;" horiz-adv-x="403" 
d="M324 74q35 0 35 -37t-35 -37h-239q-35 0 -35 37q0 17 9.5 27t25.5 10h77v239h-77q-17 0 -26 11t-9 28q0 37 35 37h77v231h-77q-17 0 -26 10.5t-9 28.5q0 37 35 37h161v-307h78q35 0 35 -37q0 -17 -9 -28t-26 -11h-78v-239h78z" />
    <glyph glyph-name="OE" unicode="&#x152;" horiz-adv-x="984" 
d="M886 82q17 0 25.5 -12t8.5 -29q0 -18 -8.5 -29.5t-25.5 -11.5h-628q-36 0 -69 13t-57.5 35.5t-39 54t-14.5 69.5v351q0 36 14.5 67.5t38.5 55t56 37t67 13.5h632q17 0 25.5 -12t8.5 -29q0 -18 -8.5 -29.5t-25.5 -11.5h-315v-225h241q17 0 26 -12t9 -29q0 -18 -9.5 -30
t-26.5 -12h-240v-224h315zM487 82v532h-241q-36 0 -60 -24.5t-24 -59.5v-364q0 -36 26 -60t62 -24h237z" />
    <glyph glyph-name="oe" unicode="&#x153;" horiz-adv-x="1003" 
d="M851 73q17 0 26.5 -11t9.5 -28q0 -18 -9.5 -29t-26.5 -11h-210q-42 0 -77 17t-55 44q-22 -27 -57.5 -44t-77.5 -17h-122q-39 0 -72 13.5t-57 37t-37.5 54.5t-13.5 67v177q0 36 14 67.5t38 55t56 37t68 13.5h130q40 0 74 -17t57 -43q20 26 53.5 43t72.5 17h138
q34 0 64 -12.5t52 -35t35 -52.5t13 -64v-58q0 -14 -7 -27.5t-18.5 -24t-25.5 -17.5t-28 -7h-304v-75q0 -16 7 -29t18 -22t25 -14t28 -5h219zM836 294q8 0 12.5 6t4.5 12v49q0 30 -22 51.5t-50 21.5h-151q-15 0 -28.5 -6t-24 -16.5t-17 -23.5t-6.5 -27v-67h282zM383 76
q38 0 62.5 25t24.5 59v190v2q0 17 -6.5 32t-18 26t-26.5 17.5t-33 6.5h-146q-37 0 -60.5 -24.5t-23.5 -59.5v-190q0 -34 24.5 -59t63.5 -25h139z" />
    <glyph glyph-name="Scaron" unicode="&#x160;" horiz-adv-x="622" 
d="M556 154q0 -35 -12.5 -64.5t-34.5 -50.5t-52 -32.5t-66 -11.5h-256q-20 0 -29.5 11.5t-9.5 28.5t9 29.5t26 12.5h266q38 0 56.5 21t18.5 56v76q0 29 -17.5 49t-48.5 22l-178 18q-34 4 -62.5 16.5t-49.5 32t-33 46.5t-12 61v69q0 35 13.5 64t36 50t52 32.5t62.5 11.5h245
q21 0 29 -13t8 -30t-9 -28.5t-28 -11.5h-253q-32 0 -52 -20.5t-20 -53.5v-77q0 -24 17.5 -42t47.5 -22l177 -20q75 -9 117 -50t42 -107v-73zM338 770q-6 -6 -14 -10t-19 -4q-12 0 -19.5 4t-14.5 10l-140 119q-8 7 -10.5 13t-2.5 14q0 14 11.5 23t26.5 9q8 0 15 -5t14 -11
l120 -102l120 102q6 6 13.5 11t15.5 5q15 0 26.5 -9t11.5 -23q0 -8 -2.5 -14t-10.5 -13z" />
    <glyph glyph-name="scaron" unicode="&#x161;" horiz-adv-x="596" 
d="M377 73q31 0 50 20t19 49q0 30 -19 48t-51 20l-150 6q-35 2 -64.5 13.5t-50.5 31t-33 46t-12 58.5q0 28 11 55t31 48t48 33.5t62 12.5h245q17 0 26 -12t9 -29t-9 -29.5t-26 -12.5l-247 1q-28 0 -47 -20.5t-19 -47.5q0 -31 23.5 -48t52.5 -18l152 -5q34 -1 62 -14
t48 -33.5t31 -46.5t11 -53q0 -30 -11 -57.5t-31.5 -48.5t-49 -34t-62.5 -13h-257q-17 0 -26 12t-9 29t9 28t26 11h258zM338 606q-6 -6 -14 -10t-19 -4q-12 0 -19.5 4t-14.5 10l-140 119q-8 7 -10.5 13t-2.5 14q0 14 11.5 23t26.5 9q8 0 15 -5t14 -11l120 -102l120 102
q6 6 13.5 11t15.5 5q15 0 26.5 -9t11.5 -23q0 -8 -2.5 -14t-10.5 -13z" />
    <glyph glyph-name="Ydieresis" unicode="&#x178;" horiz-adv-x="618" 
d="M353 28q0 -17 -12.5 -26t-29.5 -9t-31 9t-14 26v235l-166 152q-40 39 -40 106v149q0 17 12.5 25.5t29.5 8.5t29.5 -8.5t12.5 -25.5v-144q0 -22 3 -35t17 -25l136 -124h17l135 124q13 11 17 24.5t4 35.5v144q0 17 13 25.5t30 8.5t29.5 -8.5t12.5 -25.5v-149
q0 -36 -8 -59.5t-32 -46.5l-165 -152v-235zM482 847q0 -24 -16.5 -40.5t-41.5 -16.5q-24 0 -40.5 16.5t-16.5 40.5q0 25 16.5 41.5t40.5 16.5q25 0 41.5 -16.5t16.5 -41.5zM249 847q0 -24 -16.5 -40.5t-40.5 -16.5q-25 0 -41.5 16.5t-16.5 40.5q0 25 16.5 41.5t41.5 16.5
q24 0 40.5 -16.5t16.5 -41.5z" />
    <glyph glyph-name="Zcaron" unicode="&#x17d;" horiz-adv-x="594" 
d="M508 80q17 0 26.5 -11.5t9.5 -28.5t-9.5 -28.5t-26.5 -11.5h-405q-23 0 -32.5 12t-9.5 26q0 18 5.5 30.5t19.5 34.5l338 513h-332q-17 0 -26.5 11t-9.5 28t9.5 29t26.5 12h400q23 0 32.5 -12t9.5 -26q0 -17 -6 -31.5t-19 -33.5l-337 -513h336zM338 770q-6 -6 -14 -10
t-19 -4q-12 0 -19.5 4t-14.5 10l-140 119q-8 7 -10.5 13t-2.5 14q0 14 11.5 23t26.5 9q8 0 15 -5t14 -11l120 -102l120 102q6 6 13.5 11t15.5 5q15 0 26.5 -9t11.5 -23q0 -8 -2.5 -14t-10.5 -13z" />
    <glyph glyph-name="zcaron" unicode="&#x17e;" horiz-adv-x="600" 
d="M497 77q17 0 26 -11t9 -28t-9 -27.5t-26 -10.5h-376q-19 0 -31 11t-12 29t7.5 30t20.5 26l298 336h-288q-17 0 -25.5 10.5t-8.5 27.5t8.5 28.5t25.5 11.5h363q20 0 31 -10.5t11 -24.5q0 -18 -7 -33.5t-23 -33.5l-294 -331h300zM338 606q-6 -6 -14 -10t-19 -4
q-12 0 -19.5 4t-14.5 10l-140 119q-8 7 -10.5 13t-2.5 14q0 14 11.5 23t26.5 9q8 0 15 -5t14 -11l120 -102l120 102q6 6 13.5 11t15.5 5q15 0 26.5 -9t11.5 -23q0 -8 -2.5 -14t-10.5 -13z" />
    <glyph glyph-name="florin" unicode="&#x192;" 
 />
    <glyph glyph-name="circumflex" unicode="&#x2c6;" horiz-adv-x="610" 
d="M479 817q8 -6 10.5 -12.5t2.5 -13.5q0 -14 -11.5 -23.5t-26.5 -9.5q-8 0 -15.5 5.5t-13.5 10.5l-120 103l-120 -103q-7 -5 -14 -10.5t-15 -5.5q-15 0 -26.5 9.5t-11.5 23.5q0 7 2.5 13.5t10.5 12.5l140 119q7 6 14.5 9.5t19.5 3.5q20 0 33 -13z" />
    <glyph glyph-name="caron" unicode="&#x2c7;" horiz-adv-x="610" 
d="M338 770q-6 -6 -14 -10t-19 -4q-12 0 -19.5 4t-14.5 10l-140 119q-8 7 -10.5 13t-2.5 14q0 14 11.5 23t26.5 9q8 0 15 -5t14 -11l120 -102l120 102q6 6 13.5 11t15.5 5q15 0 26.5 -9t11.5 -23q0 -8 -2.5 -14t-10.5 -13z" />
    <glyph glyph-name="breve" unicode="&#x2d8;" horiz-adv-x="595" 
d="M486 857q-20 -26 -46 -45q-23 -17 -58.5 -31t-83.5 -14t-84 14t-59 31q-26 19 -46 45q-4 7 -4.5 12t-0.5 13q0 14 11.5 24.5t27.5 10.5q9 0 15 -3t11 -7q8 -9 16.5 -17t18.5 -16q17 -13 40.5 -23.5t53.5 -10.5t53.5 10.5t40.5 23.5q18 14 34 33q5 4 11 7t15 3
q16 0 27.5 -10.5t11.5 -24.5q0 -8 -0.5 -13t-4.5 -12z" />
    <glyph glyph-name="dotaccent" unicode="&#x2d9;" horiz-adv-x="342" 
d="M246 834q0 -31 -22 -52.5t-54 -21.5q-30 0 -52 21.5t-22 52.5q0 32 22 54t52 22q32 0 54 -22t22 -54z" />
    <glyph glyph-name="ring" unicode="&#x2da;" horiz-adv-x="414" 
d="M318 851q0 -23 -8.5 -43.5t-23.5 -35.5t-35.5 -24t-44.5 -9q-23 0 -43 9t-35 24t-23.5 35.5t-8.5 43.5t8.5 43t23.5 35t35 23.5t43 8.5q24 0 44.5 -8.5t35.5 -23.5t23.5 -35t8.5 -43zM269 851q0 25 -18 43t-43 18q-26 0 -43 -18t-17 -43t17 -42.5t43 -17.5q25 0 43 17.5
t18 42.5z" />
    <glyph glyph-name="ogonek" unicode="&#x2db;" horiz-adv-x="379" 
d="M262 -191q9 0 15 -7.5t6 -17.5t-6 -17t-15 -7h-52q-58 0 -88 29t-30 72q0 34 23 58.5t63 24.5h15l-37 73h62l42 -78v-17q0 -18 -21 -18h-23q-29 0 -41 -10t-12 -38q0 -22 13.5 -34.5t45.5 -12.5h40z" />
    <glyph glyph-name="tilde" unicode="&#x2dc;" horiz-adv-x="611" 
d="M515 890q0 -51 -33.5 -83t-90.5 -32q-27 0 -50 13t-44 28.5t-40.5 28.5t-38.5 13q-29 0 -41.5 -13.5t-12.5 -35.5q0 -10 -7.5 -22.5t-26.5 -12.5q-16 0 -25 12t-9 23q0 51 32.5 82t89.5 31q27 0 50.5 -12.5t44.5 -28t40.5 -28t37.5 -12.5q32 0 43.5 14.5t11.5 34.5
q0 11 8 22t27 11q16 0 25 -11t9 -22z" />
    <glyph glyph-name="hungarumlaut" unicode="&#x2dd;" horiz-adv-x="602" 
d="M364 774q-8 -8 -15.5 -10.5t-13.5 -2.5q-12 0 -19.5 7.5t-7.5 15.5q0 6 4 12.5t10 15.5l80 123q14 20 25.5 28t29.5 8q19 0 31 -11.5t12 -27.5q0 -18 -7 -22zM157 774q-7 -8 -14.5 -10.5t-14.5 -2.5q-11 0 -18.5 7.5t-7.5 15.5q0 6 4 12.5t9 15.5l81 123q14 20 25.5 28
t29.5 8q19 0 31 -11.5t12 -27.5q0 -10 -2.5 -15t-4.5 -7z" />
    <glyph glyph-name="Delta" unicode="&#x394;" 
 />
    <glyph glyph-name="Delta" unicode="&#x2206;" 
 />
    <glyph glyph-name="Omega" unicode="&#x3a9;" 
 />
    <glyph glyph-name="Omega" unicode="&#x2126;" 
 />
    <glyph glyph-name="pi" unicode="&#x3c0;" 
 />
    <glyph glyph-name="endash" unicode="&#x2013;" horiz-adv-x="448" 
d="M380 67q32 0 32 -33q0 -34 -32 -34h-313q-17 0 -24 8.5t-7 25.5t7 25t24 8h313z" />
    <glyph glyph-name="emdash" unicode="&#x2014;" horiz-adv-x="552" 
d="M552 67q17 0 24 -8t7 -25t-7 -25.5t-24 -8.5h-552q-17 0 -24 8.5t-7 25.5t7 25t24 8h552z" />
    <glyph glyph-name="quoteleft" unicode="&#x2018;" horiz-adv-x="288" 
d="M161 619q26 0 40.5 -20t14.5 -41q0 -33 -22 -51.5t-54 -18.5t-52.5 21.5t-20.5 53.5q0 54 19 90.5t57 68.5q18 15 35 15q11 0 15.5 -7t4.5 -12q0 -13 -9 -20.5t-20 -16.5t-20 -23t-9 -39h21z" />
    <glyph glyph-name="quoteright" unicode="&#x2019;" horiz-adv-x="288" 
d="M127 610q-26 0 -40.5 20t-14.5 41q0 33 22 51t54 18t52.5 -21.5t20.5 -52.5q0 -54 -19 -90.5t-57 -69.5q-20 -14 -35 -14q-11 0 -15.5 7t-4.5 12q0 13 9 20.5t20 16.5t20 22.5t9 39.5h-21z" />
    <glyph glyph-name="quotesinglbase" unicode="&#x201a;" horiz-adv-x="288" 
d="M127 5q-26 0 -40.5 20t-14.5 41q0 33 22 51.5t54 18.5t52.5 -21.5t20.5 -53.5q0 -54 -19 -90.5t-57 -68.5q-18 -15 -35 -15q-11 0 -15.5 7t-4.5 12q0 13 9 20.5t20 16.5t20 22.5t9 39.5h-21z" />
    <glyph glyph-name="quotedblleft" unicode="&#x201c;" horiz-adv-x="506" 
d="M379 619q26 0 40.5 -20t14.5 -41q0 -33 -21.5 -51.5t-53.5 -18.5t-52.5 21.5t-20.5 53.5q0 54 18.5 90.5t56.5 68.5q18 15 35 15q11 0 15.5 -7t4.5 -12q0 -13 -9 -20.5t-19.5 -16.5t-19.5 -23t-9 -39h20zM161 619q26 0 40.5 -20t14.5 -41q0 -33 -22 -51.5t-54 -18.5
t-52.5 21.5t-20.5 53.5q0 54 19 90.5t57 68.5q18 15 35 15q11 0 15.5 -7t4.5 -12q0 -13 -9 -20.5t-20 -16.5t-20 -23t-9 -39h21z" />
    <glyph glyph-name="quotedblright" unicode="&#x201d;" horiz-adv-x="506" 
d="M346 610q-26 0 -41 20t-15 41q0 33 22 51t54 18t52.5 -21t20.5 -53q0 -54 -18.5 -90.5t-56.5 -69.5q-20 -14 -35 -14q-11 0 -16 7t-5 12q0 13 9 20.5t20 16.5t20 22.5t9 39.5h-20zM127 610q-26 0 -40.5 20t-14.5 41q0 33 22 51t54 18t52.5 -21t20.5 -53q0 -54 -19 -90.5
t-57 -69.5q-20 -14 -35 -14q-11 0 -15.5 7t-4.5 12q0 13 9 20.5t20 16.5t20 22.5t9 39.5h-21z" />
    <glyph glyph-name="quotedblbase" unicode="&#x201e;" horiz-adv-x="506" 
d="M346 5q-26 0 -41 20t-15 41q0 33 22 51.5t54 18.5t52.5 -21.5t20.5 -53.5q0 -54 -18.5 -90.5t-56.5 -68.5q-18 -15 -35 -15q-11 0 -16 7t-5 12q0 13 9 20.5t20 16.5t20 22.5t9 39.5h-20zM127 5q-26 0 -40.5 20t-14.5 41q0 33 22 51.5t54 18.5t52.5 -21.5t20.5 -53.5
q0 -54 -19 -90.5t-57 -68.5q-18 -15 -35 -15q-11 0 -15.5 7t-4.5 12q0 13 9 20.5t20 16.5t20 22.5t9 39.5h-21z" />
    <glyph glyph-name="dagger" unicode="&#x2020;" horiz-adv-x="486" 
d="M280 223q0 -8 -8 -16.5t-28 -8.5t-29.5 8.5t-9.5 16.5v259h-84q-8 0 -16.5 6.5t-8.5 26.5t8.5 27.5t16.5 7.5h84v129q0 8 9.5 16.5t29.5 8.5t28 -8.5t8 -16.5v-129h85q8 0 16.5 -7.5t8.5 -27.5t-8.5 -26.5t-16.5 -6.5h-85v-259z" />
    <glyph glyph-name="daggerdbl" unicode="&#x2021;" horiz-adv-x="486" 
d="M280 223q0 -8 -8 -16.5t-28 -8.5t-29.5 8.5t-9.5 16.5v115h-84q-8 0 -16.5 6.5t-8.5 26.5t8.5 27.5t16.5 7.5h84v124h-84q-8 0 -16.5 6.5t-8.5 26.5t8.5 27.5t16.5 7.5h84v81q0 8 9.5 16.5t29.5 8.5t28 -8.5t8 -16.5v-81h85q8 0 16.5 -7.5t8.5 -27.5t-8.5 -26.5
t-16.5 -6.5h-85v-124h85q8 0 16.5 -7.5t8.5 -27.5t-8.5 -26.5t-16.5 -6.5h-85v-115z" />
    <glyph glyph-name="bullet" unicode="&#x2022;" horiz-adv-x="560" 
d="M464 352q0 -38 -14.5 -71.5t-39.5 -58.5t-58.5 -39.5t-71.5 -14.5t-71.5 14.5t-58.5 39.5t-39.5 58.5t-14.5 71.5t14.5 71.5t39.5 58.5t58.5 39.5t71.5 14.5t71.5 -14.5t58.5 -39.5t39.5 -58.5t14.5 -71.5z" />
    <glyph glyph-name="ellipsis" unicode="&#x2026;" horiz-adv-x="1182" 
d="M995 -4q-29 0 -50 22t-21 52t21 52t50 22t50.5 -22t21.5 -52t-21.5 -52t-50.5 -22zM592 -4q-29 0 -50 22t-21 52t21 52t50 22t50.5 -22t21.5 -52t-21.5 -52t-50.5 -22zM186 -4q-29 0 -50 22t-21 52t21 52t50 22q30 0 51 -22t21 -52t-21 -52t-51 -22z" />
    <glyph glyph-name="perthousand" unicode="&#x2030;" horiz-adv-x="1195" 
d="M1099 89q0 -18 -7.5 -34.5t-20 -28.5t-29.5 -19t-35 -7h-79q-19 0 -36 7t-29.5 19t-20 28.5t-7.5 34.5v129q0 19 7.5 35.5t20 28.5t29.5 18.5t36 6.5h79q18 0 35 -6.5t29.5 -18.5t20 -28.5t7.5 -35.5v-129zM360 478q0 -19 -7.5 -35.5t-20 -28.5t-29.5 -18.5t-35 -6.5h-80
q-18 0 -35 6.5t-29.5 18.5t-20 28.5t-7.5 35.5v129q0 18 7.5 34.5t20 28.5t29.5 19t35 7h80q18 0 35 -7t29.5 -19t20 -28.5t7.5 -34.5v-129zM244 19q-8 -13 -19.5 -21.5t-27.5 -8.5q-19 0 -31 11.5t-12 25.5q0 11 2.5 19t12.5 22l418 624q8 12 19 20.5t26 8.5
q20 0 32.5 -11.5t12.5 -26.5q0 -11 -3 -19t-13 -22zM722 89q0 -18 -7.5 -34.5t-20 -28.5t-29.5 -19t-35 -7h-79q-18 0 -35 7t-30 19t-20.5 28.5t-7.5 34.5v129q0 19 7.5 35t20.5 28t30 19t35 7h79q18 0 35 -6.5t29.5 -18.5t20 -28.5t7.5 -35.5v-129zM1016 70q14 0 14 13v141
q0 14 -14 14h-98q-13 0 -13 -14v-141q0 -13 13 -13h98zM277 458q13 0 13 14v141q0 13 -13 13h-98q-13 0 -13 -13v-141q0 -14 13 -14h98zM640 70q13 0 13 13v141q0 14 -13 14h-99q-13 0 -13 -14v-141q0 -13 13 -13h99z" />
    <glyph glyph-name="guilsinglleft" unicode="&#x2039;" horiz-adv-x="462" 
d="M342 182q18 -15 18 -30q0 -16 -11.5 -27t-26.5 -11q-12 0 -19 3t-19 14l-183 179q-8 7 -12.5 13.5t-4.5 18.5t4.5 18.5t12.5 13.5l183 179q12 11 19 14t19 3q15 0 26.5 -11t11.5 -27q0 -15 -18 -30l-158 -156v-9z" />
    <glyph glyph-name="guilsinglright" unicode="&#x203a;" horiz-adv-x="462" 
d="M178 131q-12 -11 -19 -14t-19 -3q-15 0 -26.5 11t-11.5 27q0 15 18 30l158 155v9l-158 156q-18 15 -18 30q0 16 11.5 27t26.5 11q12 0 19 -3t19 -14l183 -179q8 -7 12.5 -13.5t4.5 -18.5t-4.5 -18.5t-12.5 -13.5z" />
    <glyph glyph-name="fraction" unicode="&#x2044;" horiz-adv-x="670" 
d="M64 -102q-8 -12 -23.5 -23.5t-30.5 -11.5q-19 0 -33 14t-14 25t1.5 21t5.5 16l683 1014q15 23 25.5 32t23.5 9q21 0 36.5 -10t15.5 -29q0 -23 -10 -39z" />
    <glyph glyph-name="Euro" unicode="&#x20ac;" horiz-adv-x="660" 
d="M540 145q17 0 26.5 -12.5t9.5 -29.5q0 -18 -9.5 -29.5t-26.5 -11.5h-196q-34 0 -64 12t-52 33.5t-35 50.5t-13 63v20h-66q-25 0 -25 29t25 29h66v90h-66q-25 0 -25 29q0 28 25 28h66v36q0 34 13.5 63t36 50.5t52 33.5t62.5 12h196q17 0 26.5 -12.5t9.5 -30.5
q0 -17 -9.5 -29t-26.5 -12h-202q-32 0 -52 -19.5t-20 -50.5v-41h116q25 0 25 -28q0 -29 -25 -29h-116v-90h116q25 0 25 -29t-25 -29h-116v-26q0 -13 7 -25.5t17.5 -22.5t23 -16t24.5 -6h202z" />
    <glyph glyph-name="trademark" unicode="&#x2122;" horiz-adv-x="635" 
d="M563 456q0 -8 -6.5 -12.5t-15.5 -4.5q-8 0 -14.5 4.5t-6.5 12.5v152l1 20l-7 -14l-40 -49q-8 -11 -19 -11q-10 0 -19 11l-41 49l-7 14l2 -20v-152q0 -8 -6.5 -12.5t-15.5 -4.5q-8 0 -14 4.5t-6 13.5v223q0 8 4 14t16 6q11 0 15 -3t12 -14l57 -76h5l57 76q8 11 12 14t14 3
q14 0 18.5 -6t4.5 -14v-224zM204 457q0 -9 -7 -13.5t-16 -4.5t-16 4.5t-7 13.5v198l-69 -1q-17 0 -17 20q0 9 4.5 15t12.5 6h186q9 0 13 -6t4 -15q0 -19 -17 -19h-71v-198z" />
    <glyph glyph-name="partialdiff" unicode="&#x2202;" horiz-adv-x="626" 
d="M554 180q0 -88 -50.5 -137t-138.5 -49h-139q-36 0 -67.5 12t-54.5 33.5t-36.5 51.5t-13.5 67v30q0 34 11.5 61.5t32 47t48.5 31.5t60 16q67 11 132.5 20t131.5 18v28q0 96 -54.5 151.5t-150.5 55.5h-66q-17 0 -26 10.5t-9 27.5t9 29t26 12h65q66 0 119.5 -22t91.5 -61
t58.5 -93.5t20.5 -119.5v-220zM373 76q97 0 97 97v131l-272 -39q-28 -4 -44 -22.5t-16 -46.5v-45q0 -37 21.5 -56t57.5 -19h156z" />
    <glyph glyph-name="product" unicode="&#x220f;" 
 />
    <glyph glyph-name="summation" unicode="&#x2211;" 
 />
    <glyph glyph-name="minus" unicode="&#x2212;" horiz-adv-x="575" 
d="M467 389q17 0 26 -12.5t9 -29.5t-9 -28.5t-26 -11.5h-348q-17 0 -26 11.5t-9 28.5t9 29.5t26 12.5h348z" />
    <glyph glyph-name="radical" unicode="&#x221a;" 
 />
    <glyph glyph-name="infinity" unicode="&#x221e;" 
 />
    <glyph glyph-name="integral" unicode="&#x222b;" horiz-adv-x="588" 
d="M307 -84q0 -13 -7 -20.5t-25 -7.5t-25.5 7.5t-7.5 20.5v154h-146v564h146v136q0 13 7.5 20.5t25.5 7.5t25 -7.5t7 -20.5v-136h34q33 0 60.5 -12t47.5 -33t31.5 -49t11.5 -61v-12q0 -34 -9.5 -56t-21.5 -36q-12 -15 -31 -25q18 -8 31 -21q12 -12 21.5 -32t9.5 -51v-22
q0 -33 -11.5 -61t-31.5 -48.5t-47.5 -32.5t-60.5 -12h-34v-154zM335 389q42 0 57.5 18.5t15.5 58.5v25q0 24 -18 45.5t-42 21.5h-173v-169h160zM348 144q24 0 42 21.5t18 45.5v25q0 39 -13.5 59.5t-53.5 20.5h-166v-172h173z" />
    <glyph glyph-name="approxequal" unicode="&#x2248;" 
 />
    <glyph glyph-name="notequal" unicode="&#x2260;" horiz-adv-x="630" 
d="M511 296q17 0 26 -12.5t9 -29.5t-9 -28t-26 -11h-224l-40 -73q-5 -8 -13 -15.5t-18 -7.5q-17 0 -27.5 8t-10.5 21q0 15 6 26l22 41h-87q-17 0 -26 11t-9 28t9 29.5t26 12.5h132l51 96h-183q-17 0 -26 11.5t-9 28.5t9 29.5t26 12.5h228l35 64q9 15 16 22.5t18 7.5
q17 0 27.5 -8t10.5 -21q0 -8 -2 -14t-4 -11l-21 -40h84q17 0 26 -12.5t9 -29.5t-9 -28.5t-26 -11.5h-128l-52 -96h180z" />
    <glyph glyph-name="lessequal" unicode="&#x2264;" horiz-adv-x="570" 
d="M406 241q18 -17 18 -30q0 -16 -11.5 -27t-27.5 -11q-11 0 -18 3t-19 14l-247 214q-8 8 -12.5 15t-4.5 19t4.5 19t12.5 13l247 218q12 10 19 13t18 3q16 0 27.5 -10.5t11.5 -27.5q0 -14 -18 -30l-219 -194v-9zM451 74q17 0 26 -10.5t9 -27.5q0 -36 -35 -36h-332
q-35 0 -35 36q0 17 9 27.5t26 10.5h332z" />
    <glyph glyph-name="greaterequal" unicode="&#x2265;" horiz-adv-x="570" 
d="M222 190q-12 -11 -19 -14t-18 -3q-16 0 -27.5 11t-11.5 27q0 13 18 30l219 192v9l-219 194q-18 16 -18 30q0 17 11.5 27.5t27.5 10.5q11 0 18 -3t19 -13l247 -218q8 -6 12.5 -13t4.5 -19t-4.5 -19t-12.5 -15zM451 74q17 0 26 -10.5t9 -27.5q0 -36 -35 -36h-332
q-35 0 -35 36q0 17 9 27.5t26 10.5h332z" />
    <glyph glyph-name="lozenge" unicode="&#x25ca;" 
 />
    <glyph glyph-name="uniFB01" unicode="&#xfb01;" horiz-adv-x="845" 
d="M780 74q35 0 35 -37t-35 -37h-245q-35 0 -35 37q0 17 9.5 27t25.5 10h78v315h-355v-361q0 -17 -12.5 -26t-29.5 -9t-29.5 9t-12.5 26v361h-112q-17 0 -25.5 12t-8.5 29t8.5 28.5t25.5 11.5h112v84q0 69 42 108.5t112 39.5h148q17 0 26 -12t9 -29q0 -18 -9 -29.5
t-26 -11.5h-156q-29 0 -45.5 -17t-16.5 -45v-88h439v-396h83z" />
    <glyph glyph-name="uniFB02" unicode="&#xfb02;" horiz-adv-x="866" 
d="M792 74q35 0 35 -37t-35 -37h-245q-35 0 -35 37q0 17 9.5 27t25.5 10h83v543h-310q-29 0 -45.5 -17t-16.5 -46v-84h144q17 0 26 -11.5t9 -28.5t-9 -29t-26 -12h-144v-361q0 -17 -12.5 -26t-29.5 -9t-29.5 9t-12.5 26v361h-112q-17 0 -25.5 12t-8.5 29t8.5 28.5t25.5 11.5
h112v78q0 69 42 108.5t112 39.5h386v-622h78z" />
    <glyph glyph-name="glyph243" horiz-adv-x="960" 
d="M816 240q0 -38 -11 -58t-38 -34l-259 -134v311q0 19 4 31.5t18 20.5l186 95q8 3 16 5t16 2q27 0 47.5 -20.5t20.5 -56.5v-162zM484 -1l-340 169v335q0 26 7.5 40.5t29.5 25.5l210 108q25 13 47.5 18.5t42.5 5.5q23 0 46 -7t49 -20l146 -73q32 -17 32 -45
q0 -16 -10.5 -31.5t-30.5 -26.5l-190 -96q-24 -13 -31.5 -32t-7.5 -46v-325z" />
    </font>
</defs>
</svg>
