<?xml version="1.0" standalone="no"?>
<!DOCTYPE svg PUBLIC "-//W3C//DTD SVG 1.1//EN" "http://www.w3.org/Graphics/SVG/1.1/DTD/svg11.dtd" >
<svg>
<metadata>
Created by FontForge 20120731 at Fri Jan 20 04:53:39 2023
 By ffonts
</metadata>
<defs>
<font id="SquareDotMatrixRegular" horiz-adv-x="1241" >
  <font-face 
    font-family="Square Dot-Matrix"
    font-weight="400"
    font-stretch="normal"
    units-per-em="2048"
    panose-1="0 0 0 0 0 0 0 0 0 0"
    ascent="1638"
    descent="-410"
    x-height="1448"
    cap-height="1448"
    bbox="0 -216 2150 1663"
    underline-thickness="102"
    underline-position="-612"
    unicode-range="U+000A-25FC"
  />
<missing-glyph horiz-adv-x="748" 
d="M68 0v1365h544v-1365h-544zM136 68h408v1229h-408v-1229z" />
    <glyph glyph-name=".notdef" horiz-adv-x="748" 
d="M68 0v1365h544v-1365h-544zM136 68h408v1229h-408v-1229z" />
    <glyph glyph-name="glyph1" horiz-adv-x="0" 
 />
    <glyph glyph-name="glyph1" horiz-adv-x="0" 
 />
    <glyph glyph-name="glyph2" horiz-adv-x="682" 
 />
    <glyph glyph-name="uni000A" unicode="&#xa;" horiz-adv-x="0" 
 />
    <glyph glyph-name="uni000D" unicode="&#xd;" horiz-adv-x="0" 
 />
    <glyph glyph-name="space" unicode=" " horiz-adv-x="567" 
 />
    <glyph glyph-name="exclam" unicode="!" horiz-adv-x="358" 
d="M102 0v153h154v-153h-154zM102 432v153h154v-153h-154zM102 647v153h154v-153h-154zM102 863v153h154v-153h-154zM102 1079v153h154v-153h-154zM102 1295v153h154v-153h-154z" />
    <glyph glyph-name="dollar" unicode="$" 
d="M102 216v153h154v-153h-154zM102 863v153h154v-153h-154zM102 1079v153h154v-153h-154zM323 0v153h153v-153h-153zM323 647v153h153v-153h-153zM323 1295v153h153v-153h-153zM544 0v153h153v-153h-153zM544 -63h153v-153h-153v153zM544 216v153h153v-153h-153zM544 432
v153h153v-153h-153zM544 647v153h153v-153h-153zM544 863v153h153v-153h-153zM544 1079v153h153v-153h-153zM544 1295v153h153v-153h-153zM544 1510v153h153v-153h-153zM765 0v153h153v-153h-153zM765 647v153h153v-153h-153zM765 1295v153h153v-153h-153zM986 216v153h153
v-153h-153zM986 432v153h153v-153h-153zM986 1079v153h153v-153h-153z" />
    <glyph glyph-name="percent" unicode="%" 
d="M102 0v153h154v-153h-154zM102 216v153h154v-153h-154zM102 1079v153h154v-153h-154zM102 1295v153h154v-153h-154zM323 432v153h153v-153h-153zM323 1079v153h153v-153h-153zM323 1295v153h153v-153h-153zM544 647v153h153v-153h-153zM765 0v153h153v-153h-153zM765 216
v153h153v-153h-153zM765 863v153h153v-153h-153zM986 0v153h153v-153h-153zM986 216v153h153v-153h-153zM986 1079v153h153v-153h-153zM986 1295v153h153v-153h-153z" />
    <glyph glyph-name="parenleft" unicode="(" horiz-adv-x="579" 
d="M102 216v153h154v-153h-154zM102 432v153h154v-153h-154zM102 647v153h154v-153h-154zM102 863v153h154v-153h-154zM102 1079v153h154v-153h-154zM323 0v153h153v-153h-153zM323 1295v153h153v-153h-153z" />
    <glyph glyph-name="parenright" unicode=")" horiz-adv-x="579" 
d="M102 0v153h153v-153h-153zM102 1295v153h153v-153h-153zM323 216v153h153v-153h-153zM323 432v153h153v-153h-153zM323 647v153h153v-153h-153zM323 863v153h153v-153h-153zM323 1079v153h153v-153h-153z" />
    <glyph glyph-name="plus" unicode="+" 
d="M102 647v153h154v-153h-154zM323 647v153h153v-153h-153zM544 206v153h153v-153h-153zM544 426v154h153v-154h-153zM544 647v153h153v-153h-153zM544 868v153h153v-153h-153zM544 1089v153h153v-153h-153zM765 647v153h153v-153h-153zM986 647v153h153v-153h-153z" />
    <glyph glyph-name="hyphen" unicode="-" 
d="M102 647v153h154v-153h-154zM323 647v153h153v-153h-153zM544 647v153h153v-153h-153zM765 647v153h153v-153h-153zM986 647v153h153v-153h-153z" />
    <glyph glyph-name="slash" unicode="/" horiz-adv-x="1060" 
d="M102 134l77 133l133 -77l-77 -132zM210 321l77 133l132 -77l-76 -133zM318 508l77 132l132 -76l-76 -133zM426 695l77 132l132 -76l-76 -133zM536 881l76 132l133 -76l-77 -133zM643 1067l77 133l133 -77l-77 -132zM750 1255l76 133l133 -77l-77 -132z" />
    <glyph glyph-name="zero" unicode="0" 
d="M102 216v153h154v-153h-154zM102 432v153h154v-153h-154zM102 647v153h154v-153h-154zM102 863v153h154v-153h-154zM102 1079v153h154v-153h-154zM323 0v153h153v-153h-153zM323 432v153h153v-153h-153zM323 1295v153h153v-153h-153zM544 0v153h153v-153h-153zM544 647
v153h153v-153h-153zM544 1295v153h153v-153h-153zM765 0v153h153v-153h-153zM765 863v153h153v-153h-153zM765 1295v153h153v-153h-153zM986 216v153h153v-153h-153zM986 432v153h153v-153h-153zM986 647v153h153v-153h-153zM986 863v153h153v-153h-153zM986 1079v153h153
v-153h-153z" />
    <glyph glyph-name="one" unicode="1" horiz-adv-x="798" 
d="M102 0v153h154v-153h-154zM102 1079v153h154v-153h-154zM323 0v153h153v-153h-153zM323 216v153h153v-153h-153zM323 432v153h153v-153h-153zM323 647v153h153v-153h-153zM323 863v153h153v-153h-153zM323 1079v153h153v-153h-153zM323 1295v153h153v-153h-153zM544 0
v153h153v-153h-153z" />
    <glyph glyph-name="two" unicode="2" 
d="M102 0v153h154v-153h-154zM102 1079v153h154v-153h-154zM323 0v153h153v-153h-153zM323 216v153h153v-153h-153zM323 1295v153h153v-153h-153zM544 0v153h153v-153h-153zM544 432v153h153v-153h-153zM544 1295v153h153v-153h-153zM765 0v153h153v-153h-153zM765 647v153
h153v-153h-153zM765 1295v153h153v-153h-153zM986 0v153h153v-153h-153zM986 863v153h153v-153h-153zM986 1079v153h153v-153h-153z" />
    <glyph glyph-name="three" unicode="3" 
d="M102 0v153h154v-153h-154zM102 1295v153h154v-153h-154zM323 0v153h153v-153h-153zM323 647v153h153v-153h-153zM323 1295v153h153v-153h-153zM544 0v153h153v-153h-153zM544 647v153h153v-153h-153zM544 1295v153h153v-153h-153zM765 0v153h153v-153h-153zM765 647v153
h153v-153h-153zM765 1295v153h153v-153h-153zM986 216v153h153v-153h-153zM986 432v153h153v-153h-153zM986 863v153h153v-153h-153zM986 1079v153h153v-153h-153z" />
    <glyph glyph-name="four" unicode="4" 
d="M102 647v153h154v-153h-154zM102 863v153h154v-153h-154zM102 1079v153h154v-153h-154zM102 1295v153h154v-153h-154zM323 647v153h153v-153h-153zM544 647v153h153v-153h-153zM765 647v153h153v-153h-153zM986 0v153h153v-153h-153zM986 216v153h153v-153h-153zM986 432
v153h153v-153h-153zM986 647v153h153v-153h-153zM986 863v153h153v-153h-153zM986 1079v153h153v-153h-153zM986 1295v153h153v-153h-153z" />
    <glyph glyph-name="five" unicode="5" 
d="M102 0v153h154v-153h-154zM102 647v153h154v-153h-154zM102 863v153h154v-153h-154zM102 1079v153h154v-153h-154zM102 1295v153h154v-153h-154zM323 0v153h153v-153h-153zM323 647v153h153v-153h-153zM323 1295v153h153v-153h-153zM544 0v153h153v-153h-153zM544 647
v153h153v-153h-153zM544 1295v153h153v-153h-153zM765 0v153h153v-153h-153zM765 647v153h153v-153h-153zM765 1295v153h153v-153h-153zM986 216v153h153v-153h-153zM986 432v153h153v-153h-153zM986 1295v153h153v-153h-153z" />
    <glyph glyph-name="six" unicode="6" 
d="M102 216v153h154v-153h-154zM102 432v153h154v-153h-154zM102 647v153h154v-153h-154zM102 863v153h154v-153h-154zM102 1079v153h154v-153h-154zM323 0v153h153v-153h-153zM323 647v153h153v-153h-153zM323 1295v153h153v-153h-153zM544 0v153h153v-153h-153zM544 647
v153h153v-153h-153zM544 1295v153h153v-153h-153zM765 0v153h153v-153h-153zM765 647v153h153v-153h-153zM765 1295v153h153v-153h-153zM986 216v153h153v-153h-153zM986 432v153h153v-153h-153z" />
    <glyph glyph-name="seven" unicode="7" 
d="M102 1295v153h154v-153h-154zM323 1295v153h153v-153h-153zM544 0v153h153v-153h-153zM544 216v153h153v-153h-153zM544 432v153h153v-153h-153zM544 1295v153h153v-153h-153zM765 647v153h153v-153h-153zM765 1295v153h153v-153h-153zM986 863v153h153v-153h-153z
M986 1079v153h153v-153h-153zM986 1295v153h153v-153h-153z" />
    <glyph glyph-name="eight" unicode="8" 
d="M102 216v153h154v-153h-154zM102 432v153h154v-153h-154zM102 863v153h154v-153h-154zM102 1079v153h154v-153h-154zM323 0v153h153v-153h-153zM323 647v153h153v-153h-153zM323 1295v153h153v-153h-153zM544 0v153h153v-153h-153zM544 647v153h153v-153h-153zM544 1295
v153h153v-153h-153zM765 0v153h153v-153h-153zM765 647v153h153v-153h-153zM765 1295v153h153v-153h-153zM986 216v153h153v-153h-153zM986 432v153h153v-153h-153zM986 863v153h153v-153h-153zM986 1079v153h153v-153h-153z" />
    <glyph glyph-name="nine" unicode="9" 
d="M102 216v153h154v-153h-154zM102 863v153h154v-153h-154zM102 1079v153h154v-153h-154zM323 0v153h153v-153h-153zM323 647v153h153v-153h-153zM323 1295v153h153v-153h-153zM544 0v153h153v-153h-153zM544 647v153h153v-153h-153zM544 1295v153h153v-153h-153zM765 0
v153h153v-153h-153zM765 647v153h153v-153h-153zM765 1295v153h153v-153h-153zM986 216v153h153v-153h-153zM986 432v153h153v-153h-153zM986 647v153h153v-153h-153zM986 863v153h153v-153h-153zM986 1079v153h153v-153h-153z" />
    <glyph glyph-name="colon" unicode=":" horiz-adv-x="358" 
d="M102 316v153h153v-153h-153zM102 979v153h153v-153h-153z" />
    <glyph glyph-name="semicolon" unicode=";" horiz-adv-x="1083" 
d="M102 316v153h153v-153h-153zM102 979v153h153v-153h-153zM607 0v153h153v-153h-153zM607 1295v153h153v-153h-153zM828 216v153h153v-153h-153zM828 432v153h153v-153h-153zM828 647v153h153v-153h-153zM828 863v153h153v-153h-153zM828 1079v153h153v-153h-153z" />
    <glyph glyph-name="less" unicode="&#x3c;" horiz-adv-x="788" 
d="M102 647v153h154v-153h-154zM318 426v154h153v-154h-153zM318 868v153h153v-153h-153zM534 206v153h153v-153h-153zM534 1089v153h153v-153h-153z" />
    <glyph glyph-name="greater" unicode="&#x3e;" horiz-adv-x="788" 
d="M102 206v153h154v-153h-154zM102 1089v153h154v-153h-154zM318 426v154h153v-154h-153zM318 868v153h153v-153h-153zM534 647v153h153v-153h-153z" />
    <glyph glyph-name="question" unicode="?" 
d="M102 1079v153h154v-153h-154zM323 1295v153h153v-153h-153zM544 0v153h153v-153h-153zM544 432v153h153v-153h-153zM544 1295v153h153v-153h-153zM765 647v153h153v-153h-153zM765 1295v153h153v-153h-153zM986 863v153h153v-153h-153zM986 1079v153h153v-153h-153z" />
    <glyph glyph-name="A" unicode="A" 
d="M102 0v153h154v-153h-154zM102 216v153h154v-153h-154zM102 432v153h154v-153h-154zM102 647v153h154v-153h-154zM102 863v153h154v-153h-154zM102 1079v153h154v-153h-154zM323 647v153h153v-153h-153zM323 1295v153h153v-153h-153zM544 647v153h153v-153h-153z
M544 1295v153h153v-153h-153zM765 647v153h153v-153h-153zM765 1295v153h153v-153h-153zM986 0v153h153v-153h-153zM986 216v153h153v-153h-153zM986 432v153h153v-153h-153zM986 647v153h153v-153h-153zM986 863v153h153v-153h-153zM986 1079v153h153v-153h-153z" />
    <glyph glyph-name="A" unicode="&#xc4;" 
d="M102 0v153h154v-153h-154zM102 216v153h154v-153h-154zM102 432v153h154v-153h-154zM102 647v153h154v-153h-154zM102 863v153h154v-153h-154zM102 1079v153h154v-153h-154zM323 647v153h153v-153h-153zM323 1295v153h153v-153h-153zM544 647v153h153v-153h-153z
M544 1295v153h153v-153h-153zM765 647v153h153v-153h-153zM765 1295v153h153v-153h-153zM986 0v153h153v-153h-153zM986 216v153h153v-153h-153zM986 432v153h153v-153h-153zM986 647v153h153v-153h-153zM986 863v153h153v-153h-153zM986 1079v153h153v-153h-153z" />
    <glyph glyph-name="A" unicode="&#xc3;" 
d="M102 0v153h154v-153h-154zM102 216v153h154v-153h-154zM102 432v153h154v-153h-154zM102 647v153h154v-153h-154zM102 863v153h154v-153h-154zM102 1079v153h154v-153h-154zM323 647v153h153v-153h-153zM323 1295v153h153v-153h-153zM544 647v153h153v-153h-153z
M544 1295v153h153v-153h-153zM765 647v153h153v-153h-153zM765 1295v153h153v-153h-153zM986 0v153h153v-153h-153zM986 216v153h153v-153h-153zM986 432v153h153v-153h-153zM986 647v153h153v-153h-153zM986 863v153h153v-153h-153zM986 1079v153h153v-153h-153z" />
    <glyph glyph-name="A" unicode="&#xc2;" 
d="M102 0v153h154v-153h-154zM102 216v153h154v-153h-154zM102 432v153h154v-153h-154zM102 647v153h154v-153h-154zM102 863v153h154v-153h-154zM102 1079v153h154v-153h-154zM323 647v153h153v-153h-153zM323 1295v153h153v-153h-153zM544 647v153h153v-153h-153z
M544 1295v153h153v-153h-153zM765 647v153h153v-153h-153zM765 1295v153h153v-153h-153zM986 0v153h153v-153h-153zM986 216v153h153v-153h-153zM986 432v153h153v-153h-153zM986 647v153h153v-153h-153zM986 863v153h153v-153h-153zM986 1079v153h153v-153h-153z" />
    <glyph glyph-name="A" unicode="&#xc1;" 
d="M102 0v153h154v-153h-154zM102 216v153h154v-153h-154zM102 432v153h154v-153h-154zM102 647v153h154v-153h-154zM102 863v153h154v-153h-154zM102 1079v153h154v-153h-154zM323 647v153h153v-153h-153zM323 1295v153h153v-153h-153zM544 647v153h153v-153h-153z
M544 1295v153h153v-153h-153zM765 647v153h153v-153h-153zM765 1295v153h153v-153h-153zM986 0v153h153v-153h-153zM986 216v153h153v-153h-153zM986 432v153h153v-153h-153zM986 647v153h153v-153h-153zM986 863v153h153v-153h-153zM986 1079v153h153v-153h-153z" />
    <glyph glyph-name="A" unicode="&#xc0;" 
d="M102 0v153h154v-153h-154zM102 216v153h154v-153h-154zM102 432v153h154v-153h-154zM102 647v153h154v-153h-154zM102 863v153h154v-153h-154zM102 1079v153h154v-153h-154zM323 647v153h153v-153h-153zM323 1295v153h153v-153h-153zM544 647v153h153v-153h-153z
M544 1295v153h153v-153h-153zM765 647v153h153v-153h-153zM765 1295v153h153v-153h-153zM986 0v153h153v-153h-153zM986 216v153h153v-153h-153zM986 432v153h153v-153h-153zM986 647v153h153v-153h-153zM986 863v153h153v-153h-153zM986 1079v153h153v-153h-153z" />
    <glyph glyph-name="B" unicode="B" 
d="M102 0v153h154v-153h-154zM102 216v153h154v-153h-154zM102 432v153h154v-153h-154zM102 647v153h154v-153h-154zM102 863v153h154v-153h-154zM102 1079v153h154v-153h-154zM102 1295v153h154v-153h-154zM323 0v153h153v-153h-153zM323 647v153h153v-153h-153zM323 1295
v153h153v-153h-153zM544 0v153h153v-153h-153zM544 647v153h153v-153h-153zM544 1295v153h153v-153h-153zM765 0v153h153v-153h-153zM765 647v153h153v-153h-153zM765 1295v153h153v-153h-153zM986 216v153h153v-153h-153zM986 432v153h153v-153h-153zM986 863v153h153v-153
h-153zM986 1079v153h153v-153h-153z" />
    <glyph glyph-name="C" unicode="C" 
d="M102 216v153h154v-153h-154zM102 432v153h154v-153h-154zM102 647v153h154v-153h-154zM102 863v153h154v-153h-154zM102 1079v153h154v-153h-154zM323 0v153h153v-153h-153zM323 1295v153h153v-153h-153zM544 0v153h153v-153h-153zM544 1295v153h153v-153h-153zM765 0
v153h153v-153h-153zM765 1295v153h153v-153h-153zM986 216v153h153v-153h-153zM986 1079v153h153v-153h-153z" />
    <glyph glyph-name="D" unicode="D" 
d="M102 0v153h154v-153h-154zM102 216v153h154v-153h-154zM102 432v153h154v-153h-154zM102 647v153h154v-153h-154zM102 863v153h154v-153h-154zM102 1079v153h154v-153h-154zM102 1295v153h154v-153h-154zM323 0v153h153v-153h-153zM323 1295v153h153v-153h-153zM544 0
v153h153v-153h-153zM544 1295v153h153v-153h-153zM765 0v153h153v-153h-153zM765 1295v153h153v-153h-153zM986 216v153h153v-153h-153zM986 432v153h153v-153h-153zM986 647v153h153v-153h-153zM986 863v153h153v-153h-153zM986 1079v153h153v-153h-153z" />
    <glyph glyph-name="E" unicode="E" 
d="M102 0v153h154v-153h-154zM102 216v153h154v-153h-154zM102 432v153h154v-153h-154zM102 647v153h154v-153h-154zM102 863v153h154v-153h-154zM102 1079v153h154v-153h-154zM102 1295v153h154v-153h-154zM323 0v153h153v-153h-153zM323 647v153h153v-153h-153zM323 1295
v153h153v-153h-153zM544 0v153h153v-153h-153zM544 647v153h153v-153h-153zM544 1295v153h153v-153h-153zM765 0v153h153v-153h-153zM765 647v153h153v-153h-153zM765 1295v153h153v-153h-153zM986 0v153h153v-153h-153zM986 1295v153h153v-153h-153z" />
    <glyph glyph-name="E" unicode="&#xca;" 
d="M102 0v153h154v-153h-154zM102 216v153h154v-153h-154zM102 432v153h154v-153h-154zM102 647v153h154v-153h-154zM102 863v153h154v-153h-154zM102 1079v153h154v-153h-154zM102 1295v153h154v-153h-154zM323 0v153h153v-153h-153zM323 647v153h153v-153h-153zM323 1295
v153h153v-153h-153zM544 0v153h153v-153h-153zM544 647v153h153v-153h-153zM544 1295v153h153v-153h-153zM765 0v153h153v-153h-153zM765 647v153h153v-153h-153zM765 1295v153h153v-153h-153zM986 0v153h153v-153h-153zM986 1295v153h153v-153h-153z" />
    <glyph glyph-name="E" unicode="&#xc9;" 
d="M102 0v153h154v-153h-154zM102 216v153h154v-153h-154zM102 432v153h154v-153h-154zM102 647v153h154v-153h-154zM102 863v153h154v-153h-154zM102 1079v153h154v-153h-154zM102 1295v153h154v-153h-154zM323 0v153h153v-153h-153zM323 647v153h153v-153h-153zM323 1295
v153h153v-153h-153zM544 0v153h153v-153h-153zM544 647v153h153v-153h-153zM544 1295v153h153v-153h-153zM765 0v153h153v-153h-153zM765 647v153h153v-153h-153zM765 1295v153h153v-153h-153zM986 0v153h153v-153h-153zM986 1295v153h153v-153h-153z" />
    <glyph glyph-name="E" unicode="&#xc8;" 
d="M102 0v153h154v-153h-154zM102 216v153h154v-153h-154zM102 432v153h154v-153h-154zM102 647v153h154v-153h-154zM102 863v153h154v-153h-154zM102 1079v153h154v-153h-154zM102 1295v153h154v-153h-154zM323 0v153h153v-153h-153zM323 647v153h153v-153h-153zM323 1295
v153h153v-153h-153zM544 0v153h153v-153h-153zM544 647v153h153v-153h-153zM544 1295v153h153v-153h-153zM765 0v153h153v-153h-153zM765 647v153h153v-153h-153zM765 1295v153h153v-153h-153zM986 0v153h153v-153h-153zM986 1295v153h153v-153h-153z" />
    <glyph glyph-name="F" unicode="F" 
d="M102 0v153h154v-153h-154zM102 216v153h154v-153h-154zM102 432v153h154v-153h-154zM102 647v153h154v-153h-154zM102 863v153h154v-153h-154zM102 1079v153h154v-153h-154zM102 1295v153h154v-153h-154zM323 647v153h153v-153h-153zM323 1295v153h153v-153h-153z
M544 647v153h153v-153h-153zM544 1295v153h153v-153h-153zM765 647v153h153v-153h-153zM765 1295v153h153v-153h-153zM986 1295v153h153v-153h-153z" />
    <glyph glyph-name="G" unicode="G" 
d="M102 216v153h154v-153h-154zM102 432v153h154v-153h-154zM102 647v153h154v-153h-154zM102 863v153h154v-153h-154zM102 1079v153h154v-153h-154zM323 0v153h153v-153h-153zM323 1295v153h153v-153h-153zM544 0v153h153v-153h-153zM544 647v153h153v-153h-153zM544 1295
v153h153v-153h-153zM765 0v153h153v-153h-153zM765 647v153h153v-153h-153zM765 1295v153h153v-153h-153zM986 216v153h153v-153h-153zM986 432v153h153v-153h-153zM986 647v153h153v-153h-153zM986 1079v153h153v-153h-153z" />
    <glyph glyph-name="H" unicode="H" 
d="M102 0v153h154v-153h-154zM102 216v153h154v-153h-154zM102 432v153h154v-153h-154zM102 647v153h154v-153h-154zM102 863v153h154v-153h-154zM102 1079v153h154v-153h-154zM102 1295v153h154v-153h-154zM323 647v153h153v-153h-153zM544 647v153h153v-153h-153zM765 647
v153h153v-153h-153zM986 0v153h153v-153h-153zM986 216v153h153v-153h-153zM986 432v153h153v-153h-153zM986 647v153h153v-153h-153zM986 863v153h153v-153h-153zM986 1079v153h153v-153h-153zM986 1295v153h153v-153h-153z" />
    <glyph glyph-name="I" unicode="I" horiz-adv-x="798" 
d="M102 0v153h154v-153h-154zM102 1295v153h154v-153h-154zM323 0v153h153v-153h-153zM323 216v153h153v-153h-153zM323 432v153h153v-153h-153zM323 647v153h153v-153h-153zM323 863v153h153v-153h-153zM323 1079v153h153v-153h-153zM323 1295v153h153v-153h-153zM544 0
v153h153v-153h-153zM544 1295v153h153v-153h-153z" />
    <glyph glyph-name="I" unicode="&#xce;" horiz-adv-x="798" 
d="M102 0v153h154v-153h-154zM102 1295v153h154v-153h-154zM323 0v153h153v-153h-153zM323 216v153h153v-153h-153zM323 432v153h153v-153h-153zM323 647v153h153v-153h-153zM323 863v153h153v-153h-153zM323 1079v153h153v-153h-153zM323 1295v153h153v-153h-153zM544 0
v153h153v-153h-153zM544 1295v153h153v-153h-153z" />
    <glyph glyph-name="I" unicode="&#xcd;" horiz-adv-x="798" 
d="M102 0v153h154v-153h-154zM102 1295v153h154v-153h-154zM323 0v153h153v-153h-153zM323 216v153h153v-153h-153zM323 432v153h153v-153h-153zM323 647v153h153v-153h-153zM323 863v153h153v-153h-153zM323 1079v153h153v-153h-153zM323 1295v153h153v-153h-153zM544 0
v153h153v-153h-153zM544 1295v153h153v-153h-153z" />
    <glyph glyph-name="I" unicode="&#xcc;" horiz-adv-x="798" 
d="M102 0v153h154v-153h-154zM102 1295v153h154v-153h-154zM323 0v153h153v-153h-153zM323 216v153h153v-153h-153zM323 432v153h153v-153h-153zM323 647v153h153v-153h-153zM323 863v153h153v-153h-153zM323 1079v153h153v-153h-153zM323 1295v153h153v-153h-153zM544 0
v153h153v-153h-153zM544 1295v153h153v-153h-153z" />
    <glyph glyph-name="J" unicode="J" 
d="M102 216v153h154v-153h-154zM102 432v153h154v-153h-154zM323 0v153h153v-153h-153zM544 0v153h153v-153h-153zM765 0v153h153v-153h-153zM986 216v153h153v-153h-153zM986 432v153h153v-153h-153zM986 647v153h153v-153h-153zM986 863v153h153v-153h-153zM986 1079v153
h153v-153h-153zM986 1295v153h153v-153h-153z" />
    <glyph glyph-name="K" unicode="K" 
d="M102 0v153h154v-153h-154zM102 216v153h154v-153h-154zM102 432v153h154v-153h-154zM102 647v153h154v-153h-154zM102 863v153h154v-153h-154zM102 1079v153h154v-153h-154zM102 1295v153h154v-153h-154zM323 647v153h153v-153h-153zM544 432v153h153v-153h-153zM544 863
v153h153v-153h-153zM765 216v153h153v-153h-153zM765 1079v153h153v-153h-153zM986 0v153h153v-153h-153zM986 1295v153h153v-153h-153z" />
    <glyph glyph-name="L" unicode="L" 
d="M102 0v153h154v-153h-154zM102 216v153h154v-153h-154zM102 432v153h154v-153h-154zM102 647v153h154v-153h-154zM102 863v153h154v-153h-154zM102 1079v153h154v-153h-154zM102 1295v153h154v-153h-154zM323 0v153h153v-153h-153zM544 0v153h153v-153h-153zM765 0v153
h153v-153h-153zM986 0v153h153v-153h-153z" />
    <glyph glyph-name="M" unicode="M" 
d="M102 0v153h154v-153h-154zM102 216v153h154v-153h-154zM102 432v153h154v-153h-154zM102 647v153h154v-153h-154zM102 863v153h154v-153h-154zM102 1079v153h154v-153h-154zM102 1295v153h154v-153h-154zM323 1079v153h153v-153h-153zM544 647v153h153v-153h-153z
M544 863v153h153v-153h-153zM765 1079v153h153v-153h-153zM986 0v153h153v-153h-153zM986 216v153h153v-153h-153zM986 432v153h153v-153h-153zM986 647v153h153v-153h-153zM986 863v153h153v-153h-153zM986 1079v153h153v-153h-153zM986 1295v153h153v-153h-153z" />
    <glyph glyph-name="N" unicode="N" 
d="M102 0v153h154v-153h-154zM102 216v153h154v-153h-154zM102 432v153h154v-153h-154zM102 647v153h154v-153h-154zM102 863v153h154v-153h-154zM102 1079v153h154v-153h-154zM102 1295v153h154v-153h-154zM323 1079v153h153v-153h-153zM544 863v153h153v-153h-153z
M765 647v153h153v-153h-153zM986 0v153h153v-153h-153zM986 216v153h153v-153h-153zM986 432v153h153v-153h-153zM986 647v153h153v-153h-153zM986 863v153h153v-153h-153zM986 1079v153h153v-153h-153zM986 1295v153h153v-153h-153z" />
    <glyph glyph-name="O" unicode="O" 
d="M102 216v153h154v-153h-154zM102 432v153h154v-153h-154zM102 647v153h154v-153h-154zM102 863v153h154v-153h-154zM102 1079v153h154v-153h-154zM323 0v153h153v-153h-153zM323 1295v153h153v-153h-153zM544 0v153h153v-153h-153zM544 1295v153h153v-153h-153zM765 0
v153h153v-153h-153zM765 1295v153h153v-153h-153zM986 216v153h153v-153h-153zM986 432v153h153v-153h-153zM986 647v153h153v-153h-153zM986 863v153h153v-153h-153zM986 1079v153h153v-153h-153z" />
    <glyph glyph-name="O" unicode="&#xd6;" 
d="M102 216v153h154v-153h-154zM102 432v153h154v-153h-154zM102 647v153h154v-153h-154zM102 863v153h154v-153h-154zM102 1079v153h154v-153h-154zM323 0v153h153v-153h-153zM323 1295v153h153v-153h-153zM544 0v153h153v-153h-153zM544 1295v153h153v-153h-153zM765 0
v153h153v-153h-153zM765 1295v153h153v-153h-153zM986 216v153h153v-153h-153zM986 432v153h153v-153h-153zM986 647v153h153v-153h-153zM986 863v153h153v-153h-153zM986 1079v153h153v-153h-153z" />
    <glyph glyph-name="O" unicode="&#xd5;" 
d="M102 216v153h154v-153h-154zM102 432v153h154v-153h-154zM102 647v153h154v-153h-154zM102 863v153h154v-153h-154zM102 1079v153h154v-153h-154zM323 0v153h153v-153h-153zM323 1295v153h153v-153h-153zM544 0v153h153v-153h-153zM544 1295v153h153v-153h-153zM765 0
v153h153v-153h-153zM765 1295v153h153v-153h-153zM986 216v153h153v-153h-153zM986 432v153h153v-153h-153zM986 647v153h153v-153h-153zM986 863v153h153v-153h-153zM986 1079v153h153v-153h-153z" />
    <glyph glyph-name="O" unicode="&#xd4;" 
d="M102 216v153h154v-153h-154zM102 432v153h154v-153h-154zM102 647v153h154v-153h-154zM102 863v153h154v-153h-154zM102 1079v153h154v-153h-154zM323 0v153h153v-153h-153zM323 1295v153h153v-153h-153zM544 0v153h153v-153h-153zM544 1295v153h153v-153h-153zM765 0
v153h153v-153h-153zM765 1295v153h153v-153h-153zM986 216v153h153v-153h-153zM986 432v153h153v-153h-153zM986 647v153h153v-153h-153zM986 863v153h153v-153h-153zM986 1079v153h153v-153h-153z" />
    <glyph glyph-name="O" unicode="&#xd3;" 
d="M102 216v153h154v-153h-154zM102 432v153h154v-153h-154zM102 647v153h154v-153h-154zM102 863v153h154v-153h-154zM102 1079v153h154v-153h-154zM323 0v153h153v-153h-153zM323 1295v153h153v-153h-153zM544 0v153h153v-153h-153zM544 1295v153h153v-153h-153zM765 0
v153h153v-153h-153zM765 1295v153h153v-153h-153zM986 216v153h153v-153h-153zM986 432v153h153v-153h-153zM986 647v153h153v-153h-153zM986 863v153h153v-153h-153zM986 1079v153h153v-153h-153z" />
    <glyph glyph-name="O" unicode="&#xd2;" 
d="M102 216v153h154v-153h-154zM102 432v153h154v-153h-154zM102 647v153h154v-153h-154zM102 863v153h154v-153h-154zM102 1079v153h154v-153h-154zM323 0v153h153v-153h-153zM323 1295v153h153v-153h-153zM544 0v153h153v-153h-153zM544 1295v153h153v-153h-153zM765 0
v153h153v-153h-153zM765 1295v153h153v-153h-153zM986 216v153h153v-153h-153zM986 432v153h153v-153h-153zM986 647v153h153v-153h-153zM986 863v153h153v-153h-153zM986 1079v153h153v-153h-153z" />
    <glyph glyph-name="P" unicode="P" 
d="M102 0v153h154v-153h-154zM102 216v153h154v-153h-154zM102 432v153h154v-153h-154zM102 647v153h154v-153h-154zM102 863v153h154v-153h-154zM102 1079v153h154v-153h-154zM102 1295v153h154v-153h-154zM323 647v153h153v-153h-153zM323 1295v153h153v-153h-153z
M544 647v153h153v-153h-153zM544 1295v153h153v-153h-153zM765 647v153h153v-153h-153zM765 1295v153h153v-153h-153zM986 863v153h153v-153h-153zM986 1079v153h153v-153h-153z" />
    <glyph glyph-name="Q" unicode="Q" 
d="M102 216v153h154v-153h-154zM102 432v153h154v-153h-154zM102 647v153h154v-153h-154zM102 863v153h154v-153h-154zM102 1079v153h154v-153h-154zM323 0v153h153v-153h-153zM323 1295v153h153v-153h-153zM544 0v153h153v-153h-153zM544 432v153h153v-153h-153zM544 1295
v153h153v-153h-153zM765 216v153h153v-153h-153zM765 1295v153h153v-153h-153zM986 0v153h153v-153h-153zM986 432v153h153v-153h-153zM986 647v153h153v-153h-153zM986 863v153h153v-153h-153zM986 1079v153h153v-153h-153z" />
    <glyph glyph-name="R" unicode="R" 
d="M102 0v153h154v-153h-154zM102 216v153h154v-153h-154zM102 432v153h154v-153h-154zM102 647v153h154v-153h-154zM102 863v153h154v-153h-154zM102 1079v153h154v-153h-154zM102 1295v153h154v-153h-154zM323 647v153h153v-153h-153zM323 1295v153h153v-153h-153z
M544 432v153h153v-153h-153zM544 647v153h153v-153h-153zM544 1295v153h153v-153h-153zM765 216v153h153v-153h-153zM765 647v153h153v-153h-153zM765 1295v153h153v-153h-153zM986 0v153h153v-153h-153zM986 863v153h153v-153h-153zM986 1079v153h153v-153h-153z" />
    <glyph glyph-name="S" unicode="S" 
d="M102 216v153h154v-153h-154zM102 863v153h154v-153h-154zM102 1079v153h154v-153h-154zM323 0v153h153v-153h-153zM323 647v153h153v-153h-153zM323 1295v153h153v-153h-153zM544 0v153h153v-153h-153zM544 647v153h153v-153h-153zM544 1295v153h153v-153h-153zM765 0
v153h153v-153h-153zM765 647v153h153v-153h-153zM765 1295v153h153v-153h-153zM986 216v153h153v-153h-153zM986 432v153h153v-153h-153zM986 1079v153h153v-153h-153z" />
    <glyph glyph-name="T" unicode="T" 
d="M102 1295v153h154v-153h-154zM323 1295v153h153v-153h-153zM544 0v153h153v-153h-153zM544 216v153h153v-153h-153zM544 432v153h153v-153h-153zM544 647v153h153v-153h-153zM544 863v153h153v-153h-153zM544 1079v153h153v-153h-153zM544 1295v153h153v-153h-153z
M765 1295v153h153v-153h-153zM986 1295v153h153v-153h-153z" />
    <glyph glyph-name="U" unicode="U" 
d="M102 216v153h154v-153h-154zM102 432v153h154v-153h-154zM102 647v153h154v-153h-154zM102 863v153h154v-153h-154zM102 1079v153h154v-153h-154zM102 1295v153h154v-153h-154zM323 0v153h153v-153h-153zM544 0v153h153v-153h-153zM765 0v153h153v-153h-153zM986 216v153
h153v-153h-153zM986 432v153h153v-153h-153zM986 647v153h153v-153h-153zM986 863v153h153v-153h-153zM986 1079v153h153v-153h-153zM986 1295v153h153v-153h-153z" />
    <glyph glyph-name="U" unicode="&#xdb;" 
d="M102 216v153h154v-153h-154zM102 432v153h154v-153h-154zM102 647v153h154v-153h-154zM102 863v153h154v-153h-154zM102 1079v153h154v-153h-154zM102 1295v153h154v-153h-154zM323 0v153h153v-153h-153zM544 0v153h153v-153h-153zM765 0v153h153v-153h-153zM986 216v153
h153v-153h-153zM986 432v153h153v-153h-153zM986 647v153h153v-153h-153zM986 863v153h153v-153h-153zM986 1079v153h153v-153h-153zM986 1295v153h153v-153h-153z" />
    <glyph glyph-name="U" unicode="&#xda;" 
d="M102 216v153h154v-153h-154zM102 432v153h154v-153h-154zM102 647v153h154v-153h-154zM102 863v153h154v-153h-154zM102 1079v153h154v-153h-154zM102 1295v153h154v-153h-154zM323 0v153h153v-153h-153zM544 0v153h153v-153h-153zM765 0v153h153v-153h-153zM986 216v153
h153v-153h-153zM986 432v153h153v-153h-153zM986 647v153h153v-153h-153zM986 863v153h153v-153h-153zM986 1079v153h153v-153h-153zM986 1295v153h153v-153h-153z" />
    <glyph glyph-name="U" unicode="&#xd9;" 
d="M102 216v153h154v-153h-154zM102 432v153h154v-153h-154zM102 647v153h154v-153h-154zM102 863v153h154v-153h-154zM102 1079v153h154v-153h-154zM102 1295v153h154v-153h-154zM323 0v153h153v-153h-153zM544 0v153h153v-153h-153zM765 0v153h153v-153h-153zM986 216v153
h153v-153h-153zM986 432v153h153v-153h-153zM986 647v153h153v-153h-153zM986 863v153h153v-153h-153zM986 1079v153h153v-153h-153zM986 1295v153h153v-153h-153z" />
    <glyph glyph-name="V" unicode="V" 
d="M102 432v153h154v-153h-154zM102 647v153h154v-153h-154zM102 863v153h154v-153h-154zM102 1079v153h154v-153h-154zM102 1295v153h154v-153h-154zM323 216v153h153v-153h-153zM544 0v153h153v-153h-153zM765 216v153h153v-153h-153zM986 432v153h153v-153h-153zM986 647
v153h153v-153h-153zM986 863v153h153v-153h-153zM986 1079v153h153v-153h-153zM986 1295v153h153v-153h-153z" />
    <glyph glyph-name="W" unicode="W" 
d="M102 0v153h154v-153h-154zM102 216v153h154v-153h-154zM102 432v153h154v-153h-154zM102 647v153h154v-153h-154zM102 863v153h154v-153h-154zM102 1079v153h154v-153h-154zM102 1295v153h154v-153h-154zM323 216v153h153v-153h-153zM544 432v153h153v-153h-153zM544 647
v153h153v-153h-153zM765 216v153h153v-153h-153zM986 0v153h153v-153h-153zM986 216v153h153v-153h-153zM986 432v153h153v-153h-153zM986 647v153h153v-153h-153zM986 863v153h153v-153h-153zM986 1079v153h153v-153h-153zM986 1295v153h153v-153h-153z" />
    <glyph glyph-name="X" unicode="X" 
d="M102 0v153h154v-153h-154zM102 216v153h154v-153h-154zM102 1079v153h154v-153h-154zM102 1295v153h154v-153h-154zM323 432v153h153v-153h-153zM323 863v153h153v-153h-153zM544 647v153h153v-153h-153zM765 432v153h153v-153h-153zM765 863v153h153v-153h-153zM986 0
v153h153v-153h-153zM986 216v153h153v-153h-153zM986 1079v153h153v-153h-153zM986 1295v153h153v-153h-153z" />
    <glyph glyph-name="Y" unicode="Y" 
d="M102 863v153h154v-153h-154zM102 1079v153h154v-153h-154zM102 1295v153h154v-153h-154zM323 647v153h153v-153h-153zM544 0v153h153v-153h-153zM544 216v153h153v-153h-153zM544 432v153h153v-153h-153zM765 647v153h153v-153h-153zM986 863v153h153v-153h-153z
M986 1079v153h153v-153h-153zM986 1295v153h153v-153h-153z" />
    <glyph glyph-name="Z" unicode="Z" 
d="M102 0v153h154v-153h-154zM102 216v153h154v-153h-154zM102 1295v153h154v-153h-154zM323 0v153h153v-153h-153zM323 432v153h153v-153h-153zM323 1295v153h153v-153h-153zM544 0v153h153v-153h-153zM544 647v153h153v-153h-153zM544 1295v153h153v-153h-153zM765 0v153
h153v-153h-153zM765 863v153h153v-153h-153zM765 1295v153h153v-153h-153zM986 0v153h153v-153h-153zM986 1079v153h153v-153h-153zM986 1295v153h153v-153h-153z" />
    <glyph glyph-name="bracketleft" unicode="[" horiz-adv-x="798" 
d="M102 0v153h153v-153h-153zM102 216v153h153v-153h-153zM102 432v153h153v-153h-153zM102 647v153h153v-153h-153zM102 863v153h153v-153h-153zM102 1079v153h153v-153h-153zM102 1295v153h153v-153h-153zM323 0v153h153v-153h-153zM323 1295v153h153v-153h-153zM544 0
v153h153v-153h-153zM544 1295v153h153v-153h-153z" />
    <glyph glyph-name="bracketright" unicode="]" horiz-adv-x="798" 
d="M102 0v153h154v-153h-154zM102 1295v153h154v-153h-154zM323 0v153h153v-153h-153zM323 1295v153h153v-153h-153zM544 0v153h153v-153h-153zM544 216v153h153v-153h-153zM544 432v153h153v-153h-153zM544 647v153h153v-153h-153zM544 863v153h153v-153h-153zM544 1079
v153h153v-153h-153zM544 1295v153h153v-153h-153z" />
    <glyph glyph-name="asciicircum" unicode="^" 
d="M102 432v153h154v-153h-154zM323 647v153h153v-153h-153zM544 863v153h153v-153h-153zM765 647v153h153v-153h-153zM986 432v153h153v-153h-153z" />
    <glyph glyph-name="underscore" unicode="_" horiz-adv-x="1652" 
d="M102 647v153h154v-153h-154zM318 647v153h153v-153h-153zM534 647v153h153v-153h-153zM750 647v153h153v-153h-153zM965 647v153h154v-153h-154zM1181 647v153h153v-153h-153zM1397 647v153h153v-153h-153z" />
    <glyph glyph-name="a" unicode="a" 
d="M102 0v153h154v-153h-154zM102 216v153h154v-153h-154zM102 432v153h154v-153h-154zM102 647v153h154v-153h-154zM102 863v153h154v-153h-154zM102 1079v153h154v-153h-154zM323 647v153h153v-153h-153zM323 1295v153h153v-153h-153zM544 647v153h153v-153h-153z
M544 1295v153h153v-153h-153zM765 647v153h153v-153h-153zM765 1295v153h153v-153h-153zM986 0v153h153v-153h-153zM986 216v153h153v-153h-153zM986 432v153h153v-153h-153zM986 647v153h153v-153h-153zM986 863v153h153v-153h-153zM986 1079v153h153v-153h-153z" />
    <glyph glyph-name="a" unicode="&#xe4;" 
d="M102 0v153h154v-153h-154zM102 216v153h154v-153h-154zM102 432v153h154v-153h-154zM102 647v153h154v-153h-154zM102 863v153h154v-153h-154zM102 1079v153h154v-153h-154zM323 647v153h153v-153h-153zM323 1295v153h153v-153h-153zM544 647v153h153v-153h-153z
M544 1295v153h153v-153h-153zM765 647v153h153v-153h-153zM765 1295v153h153v-153h-153zM986 0v153h153v-153h-153zM986 216v153h153v-153h-153zM986 432v153h153v-153h-153zM986 647v153h153v-153h-153zM986 863v153h153v-153h-153zM986 1079v153h153v-153h-153z" />
    <glyph glyph-name="a" unicode="&#xe3;" 
d="M102 0v153h154v-153h-154zM102 216v153h154v-153h-154zM102 432v153h154v-153h-154zM102 647v153h154v-153h-154zM102 863v153h154v-153h-154zM102 1079v153h154v-153h-154zM323 647v153h153v-153h-153zM323 1295v153h153v-153h-153zM544 647v153h153v-153h-153z
M544 1295v153h153v-153h-153zM765 647v153h153v-153h-153zM765 1295v153h153v-153h-153zM986 0v153h153v-153h-153zM986 216v153h153v-153h-153zM986 432v153h153v-153h-153zM986 647v153h153v-153h-153zM986 863v153h153v-153h-153zM986 1079v153h153v-153h-153z" />
    <glyph glyph-name="a" unicode="&#xe2;" 
d="M102 0v153h154v-153h-154zM102 216v153h154v-153h-154zM102 432v153h154v-153h-154zM102 647v153h154v-153h-154zM102 863v153h154v-153h-154zM102 1079v153h154v-153h-154zM323 647v153h153v-153h-153zM323 1295v153h153v-153h-153zM544 647v153h153v-153h-153z
M544 1295v153h153v-153h-153zM765 647v153h153v-153h-153zM765 1295v153h153v-153h-153zM986 0v153h153v-153h-153zM986 216v153h153v-153h-153zM986 432v153h153v-153h-153zM986 647v153h153v-153h-153zM986 863v153h153v-153h-153zM986 1079v153h153v-153h-153z" />
    <glyph glyph-name="a" unicode="&#xe1;" 
d="M102 0v153h154v-153h-154zM102 216v153h154v-153h-154zM102 432v153h154v-153h-154zM102 647v153h154v-153h-154zM102 863v153h154v-153h-154zM102 1079v153h154v-153h-154zM323 647v153h153v-153h-153zM323 1295v153h153v-153h-153zM544 647v153h153v-153h-153z
M544 1295v153h153v-153h-153zM765 647v153h153v-153h-153zM765 1295v153h153v-153h-153zM986 0v153h153v-153h-153zM986 216v153h153v-153h-153zM986 432v153h153v-153h-153zM986 647v153h153v-153h-153zM986 863v153h153v-153h-153zM986 1079v153h153v-153h-153z" />
    <glyph glyph-name="a" unicode="&#xe0;" 
d="M102 0v153h154v-153h-154zM102 216v153h154v-153h-154zM102 432v153h154v-153h-154zM102 647v153h154v-153h-154zM102 863v153h154v-153h-154zM102 1079v153h154v-153h-154zM323 647v153h153v-153h-153zM323 1295v153h153v-153h-153zM544 647v153h153v-153h-153z
M544 1295v153h153v-153h-153zM765 647v153h153v-153h-153zM765 1295v153h153v-153h-153zM986 0v153h153v-153h-153zM986 216v153h153v-153h-153zM986 432v153h153v-153h-153zM986 647v153h153v-153h-153zM986 863v153h153v-153h-153zM986 1079v153h153v-153h-153z" />
    <glyph glyph-name="b" unicode="b" 
d="M102 0v153h154v-153h-154zM102 216v153h154v-153h-154zM102 432v153h154v-153h-154zM102 647v153h154v-153h-154zM102 863v153h154v-153h-154zM102 1079v153h154v-153h-154zM102 1295v153h154v-153h-154zM323 0v153h153v-153h-153zM323 647v153h153v-153h-153zM323 1295
v153h153v-153h-153zM544 0v153h153v-153h-153zM544 647v153h153v-153h-153zM544 1295v153h153v-153h-153zM765 0v153h153v-153h-153zM765 647v153h153v-153h-153zM765 1295v153h153v-153h-153zM986 216v153h153v-153h-153zM986 432v153h153v-153h-153zM986 863v153h153v-153
h-153zM986 1079v153h153v-153h-153z" />
    <glyph glyph-name="c" unicode="c" 
d="M102 216v153h154v-153h-154zM102 432v153h154v-153h-154zM102 647v153h154v-153h-154zM102 863v153h154v-153h-154zM102 1079v153h154v-153h-154zM323 0v153h153v-153h-153zM323 1295v153h153v-153h-153zM544 0v153h153v-153h-153zM544 1295v153h153v-153h-153zM765 0
v153h153v-153h-153zM765 1295v153h153v-153h-153zM986 216v153h153v-153h-153zM986 1079v153h153v-153h-153z" />
    <glyph glyph-name="d" unicode="d" 
d="M102 0v153h154v-153h-154zM102 216v153h154v-153h-154zM102 432v153h154v-153h-154zM102 647v153h154v-153h-154zM102 863v153h154v-153h-154zM102 1079v153h154v-153h-154zM102 1295v153h154v-153h-154zM323 0v153h153v-153h-153zM323 1295v153h153v-153h-153zM544 0
v153h153v-153h-153zM544 1295v153h153v-153h-153zM765 0v153h153v-153h-153zM765 1295v153h153v-153h-153zM986 216v153h153v-153h-153zM986 432v153h153v-153h-153zM986 647v153h153v-153h-153zM986 863v153h153v-153h-153zM986 1079v153h153v-153h-153z" />
    <glyph glyph-name="e" unicode="e" 
d="M102 0v153h154v-153h-154zM102 216v153h154v-153h-154zM102 432v153h154v-153h-154zM102 647v153h154v-153h-154zM102 863v153h154v-153h-154zM102 1079v153h154v-153h-154zM102 1295v153h154v-153h-154zM323 0v153h153v-153h-153zM323 647v153h153v-153h-153zM323 1295
v153h153v-153h-153zM544 0v153h153v-153h-153zM544 647v153h153v-153h-153zM544 1295v153h153v-153h-153zM765 0v153h153v-153h-153zM765 647v153h153v-153h-153zM765 1295v153h153v-153h-153zM986 0v153h153v-153h-153zM986 1295v153h153v-153h-153z" />
    <glyph glyph-name="e" unicode="&#xea;" 
d="M102 0v153h154v-153h-154zM102 216v153h154v-153h-154zM102 432v153h154v-153h-154zM102 647v153h154v-153h-154zM102 863v153h154v-153h-154zM102 1079v153h154v-153h-154zM102 1295v153h154v-153h-154zM323 0v153h153v-153h-153zM323 647v153h153v-153h-153zM323 1295
v153h153v-153h-153zM544 0v153h153v-153h-153zM544 647v153h153v-153h-153zM544 1295v153h153v-153h-153zM765 0v153h153v-153h-153zM765 647v153h153v-153h-153zM765 1295v153h153v-153h-153zM986 0v153h153v-153h-153zM986 1295v153h153v-153h-153z" />
    <glyph glyph-name="e" unicode="&#xe9;" 
d="M102 0v153h154v-153h-154zM102 216v153h154v-153h-154zM102 432v153h154v-153h-154zM102 647v153h154v-153h-154zM102 863v153h154v-153h-154zM102 1079v153h154v-153h-154zM102 1295v153h154v-153h-154zM323 0v153h153v-153h-153zM323 647v153h153v-153h-153zM323 1295
v153h153v-153h-153zM544 0v153h153v-153h-153zM544 647v153h153v-153h-153zM544 1295v153h153v-153h-153zM765 0v153h153v-153h-153zM765 647v153h153v-153h-153zM765 1295v153h153v-153h-153zM986 0v153h153v-153h-153zM986 1295v153h153v-153h-153z" />
    <glyph glyph-name="e" unicode="&#xe8;" 
d="M102 0v153h154v-153h-154zM102 216v153h154v-153h-154zM102 432v153h154v-153h-154zM102 647v153h154v-153h-154zM102 863v153h154v-153h-154zM102 1079v153h154v-153h-154zM102 1295v153h154v-153h-154zM323 0v153h153v-153h-153zM323 647v153h153v-153h-153zM323 1295
v153h153v-153h-153zM544 0v153h153v-153h-153zM544 647v153h153v-153h-153zM544 1295v153h153v-153h-153zM765 0v153h153v-153h-153zM765 647v153h153v-153h-153zM765 1295v153h153v-153h-153zM986 0v153h153v-153h-153zM986 1295v153h153v-153h-153z" />
    <glyph glyph-name="f" unicode="f" 
d="M102 0v153h154v-153h-154zM102 216v153h154v-153h-154zM102 432v153h154v-153h-154zM102 647v153h154v-153h-154zM102 863v153h154v-153h-154zM102 1079v153h154v-153h-154zM102 1295v153h154v-153h-154zM323 647v153h153v-153h-153zM323 1295v153h153v-153h-153z
M544 647v153h153v-153h-153zM544 1295v153h153v-153h-153zM765 647v153h153v-153h-153zM765 1295v153h153v-153h-153zM986 1295v153h153v-153h-153z" />
    <glyph glyph-name="g" unicode="g" 
d="M102 216v153h154v-153h-154zM102 432v153h154v-153h-154zM102 647v153h154v-153h-154zM102 863v153h154v-153h-154zM102 1079v153h154v-153h-154zM323 0v153h153v-153h-153zM323 1295v153h153v-153h-153zM544 0v153h153v-153h-153zM544 647v153h153v-153h-153zM544 1295
v153h153v-153h-153zM765 0v153h153v-153h-153zM765 647v153h153v-153h-153zM765 1295v153h153v-153h-153zM986 216v153h153v-153h-153zM986 432v153h153v-153h-153zM986 647v153h153v-153h-153zM986 1079v153h153v-153h-153z" />
    <glyph glyph-name="h" unicode="h" 
d="M102 0v153h154v-153h-154zM102 216v153h154v-153h-154zM102 432v153h154v-153h-154zM102 647v153h154v-153h-154zM102 863v153h154v-153h-154zM102 1079v153h154v-153h-154zM102 1295v153h154v-153h-154zM323 647v153h153v-153h-153zM544 647v153h153v-153h-153zM765 647
v153h153v-153h-153zM986 0v153h153v-153h-153zM986 216v153h153v-153h-153zM986 432v153h153v-153h-153zM986 647v153h153v-153h-153zM986 863v153h153v-153h-153zM986 1079v153h153v-153h-153zM986 1295v153h153v-153h-153z" />
    <glyph glyph-name="i" unicode="i" horiz-adv-x="798" 
d="M102 0v153h154v-153h-154zM102 1295v153h154v-153h-154zM323 0v153h153v-153h-153zM323 216v153h153v-153h-153zM323 432v153h153v-153h-153zM323 647v153h153v-153h-153zM323 863v153h153v-153h-153zM323 1079v153h153v-153h-153zM323 1295v153h153v-153h-153zM544 0
v153h153v-153h-153zM544 1295v153h153v-153h-153z" />
    <glyph glyph-name="i" unicode="&#xee;" horiz-adv-x="798" 
d="M102 0v153h154v-153h-154zM102 1295v153h154v-153h-154zM323 0v153h153v-153h-153zM323 216v153h153v-153h-153zM323 432v153h153v-153h-153zM323 647v153h153v-153h-153zM323 863v153h153v-153h-153zM323 1079v153h153v-153h-153zM323 1295v153h153v-153h-153zM544 0
v153h153v-153h-153zM544 1295v153h153v-153h-153z" />
    <glyph glyph-name="i" unicode="&#xed;" horiz-adv-x="798" 
d="M102 0v153h154v-153h-154zM102 1295v153h154v-153h-154zM323 0v153h153v-153h-153zM323 216v153h153v-153h-153zM323 432v153h153v-153h-153zM323 647v153h153v-153h-153zM323 863v153h153v-153h-153zM323 1079v153h153v-153h-153zM323 1295v153h153v-153h-153zM544 0
v153h153v-153h-153zM544 1295v153h153v-153h-153z" />
    <glyph glyph-name="i" unicode="&#xec;" horiz-adv-x="798" 
d="M102 0v153h154v-153h-154zM102 1295v153h154v-153h-154zM323 0v153h153v-153h-153zM323 216v153h153v-153h-153zM323 432v153h153v-153h-153zM323 647v153h153v-153h-153zM323 863v153h153v-153h-153zM323 1079v153h153v-153h-153zM323 1295v153h153v-153h-153zM544 0
v153h153v-153h-153zM544 1295v153h153v-153h-153z" />
    <glyph glyph-name="j" unicode="j" 
d="M102 216v153h154v-153h-154zM102 432v153h154v-153h-154zM323 0v153h153v-153h-153zM544 0v153h153v-153h-153zM765 0v153h153v-153h-153zM986 216v153h153v-153h-153zM986 432v153h153v-153h-153zM986 647v153h153v-153h-153zM986 863v153h153v-153h-153zM986 1079v153
h153v-153h-153zM986 1295v153h153v-153h-153z" />
    <glyph glyph-name="k" unicode="k" 
d="M102 0v153h154v-153h-154zM102 216v153h154v-153h-154zM102 432v153h154v-153h-154zM102 647v153h154v-153h-154zM102 863v153h154v-153h-154zM102 1079v153h154v-153h-154zM102 1295v153h154v-153h-154zM323 647v153h153v-153h-153zM544 432v153h153v-153h-153zM544 863
v153h153v-153h-153zM765 216v153h153v-153h-153zM765 1079v153h153v-153h-153zM986 0v153h153v-153h-153zM986 1295v153h153v-153h-153z" />
    <glyph glyph-name="l" unicode="l" 
d="M102 0v153h154v-153h-154zM102 216v153h154v-153h-154zM102 432v153h154v-153h-154zM102 647v153h154v-153h-154zM102 863v153h154v-153h-154zM102 1079v153h154v-153h-154zM102 1295v153h154v-153h-154zM323 0v153h153v-153h-153zM544 0v153h153v-153h-153zM765 0v153
h153v-153h-153zM986 0v153h153v-153h-153z" />
    <glyph glyph-name="m" unicode="m" 
d="M102 0v153h154v-153h-154zM102 216v153h154v-153h-154zM102 432v153h154v-153h-154zM102 647v153h154v-153h-154zM102 863v153h154v-153h-154zM102 1079v153h154v-153h-154zM102 1295v153h154v-153h-154zM323 1079v153h153v-153h-153zM544 647v153h153v-153h-153z
M544 863v153h153v-153h-153zM765 1079v153h153v-153h-153zM986 0v153h153v-153h-153zM986 216v153h153v-153h-153zM986 432v153h153v-153h-153zM986 647v153h153v-153h-153zM986 863v153h153v-153h-153zM986 1079v153h153v-153h-153zM986 1295v153h153v-153h-153z" />
    <glyph glyph-name="n" unicode="n" 
d="M102 0v153h154v-153h-154zM102 216v153h154v-153h-154zM102 432v153h154v-153h-154zM102 647v153h154v-153h-154zM102 863v153h154v-153h-154zM102 1079v153h154v-153h-154zM102 1295v153h154v-153h-154zM323 1079v153h153v-153h-153zM544 863v153h153v-153h-153z
M765 647v153h153v-153h-153zM986 0v153h153v-153h-153zM986 216v153h153v-153h-153zM986 432v153h153v-153h-153zM986 647v153h153v-153h-153zM986 863v153h153v-153h-153zM986 1079v153h153v-153h-153zM986 1295v153h153v-153h-153z" />
    <glyph glyph-name="o" unicode="o" 
d="M102 216v153h154v-153h-154zM102 432v153h154v-153h-154zM102 647v153h154v-153h-154zM102 863v153h154v-153h-154zM102 1079v153h154v-153h-154zM323 0v153h153v-153h-153zM323 1295v153h153v-153h-153zM544 0v153h153v-153h-153zM544 1295v153h153v-153h-153zM765 0
v153h153v-153h-153zM765 1295v153h153v-153h-153zM986 216v153h153v-153h-153zM986 432v153h153v-153h-153zM986 647v153h153v-153h-153zM986 863v153h153v-153h-153zM986 1079v153h153v-153h-153z" />
    <glyph glyph-name="o" unicode="&#xf6;" 
d="M102 216v153h154v-153h-154zM102 432v153h154v-153h-154zM102 647v153h154v-153h-154zM102 863v153h154v-153h-154zM102 1079v153h154v-153h-154zM323 0v153h153v-153h-153zM323 1295v153h153v-153h-153zM544 0v153h153v-153h-153zM544 1295v153h153v-153h-153zM765 0
v153h153v-153h-153zM765 1295v153h153v-153h-153zM986 216v153h153v-153h-153zM986 432v153h153v-153h-153zM986 647v153h153v-153h-153zM986 863v153h153v-153h-153zM986 1079v153h153v-153h-153z" />
    <glyph glyph-name="o" unicode="&#xf5;" 
d="M102 216v153h154v-153h-154zM102 432v153h154v-153h-154zM102 647v153h154v-153h-154zM102 863v153h154v-153h-154zM102 1079v153h154v-153h-154zM323 0v153h153v-153h-153zM323 1295v153h153v-153h-153zM544 0v153h153v-153h-153zM544 1295v153h153v-153h-153zM765 0
v153h153v-153h-153zM765 1295v153h153v-153h-153zM986 216v153h153v-153h-153zM986 432v153h153v-153h-153zM986 647v153h153v-153h-153zM986 863v153h153v-153h-153zM986 1079v153h153v-153h-153z" />
    <glyph glyph-name="o" unicode="&#xf4;" 
d="M102 216v153h154v-153h-154zM102 432v153h154v-153h-154zM102 647v153h154v-153h-154zM102 863v153h154v-153h-154zM102 1079v153h154v-153h-154zM323 0v153h153v-153h-153zM323 1295v153h153v-153h-153zM544 0v153h153v-153h-153zM544 1295v153h153v-153h-153zM765 0
v153h153v-153h-153zM765 1295v153h153v-153h-153zM986 216v153h153v-153h-153zM986 432v153h153v-153h-153zM986 647v153h153v-153h-153zM986 863v153h153v-153h-153zM986 1079v153h153v-153h-153z" />
    <glyph glyph-name="o" unicode="&#xf3;" 
d="M102 216v153h154v-153h-154zM102 432v153h154v-153h-154zM102 647v153h154v-153h-154zM102 863v153h154v-153h-154zM102 1079v153h154v-153h-154zM323 0v153h153v-153h-153zM323 1295v153h153v-153h-153zM544 0v153h153v-153h-153zM544 1295v153h153v-153h-153zM765 0
v153h153v-153h-153zM765 1295v153h153v-153h-153zM986 216v153h153v-153h-153zM986 432v153h153v-153h-153zM986 647v153h153v-153h-153zM986 863v153h153v-153h-153zM986 1079v153h153v-153h-153z" />
    <glyph glyph-name="o" unicode="&#xf2;" 
d="M102 216v153h154v-153h-154zM102 432v153h154v-153h-154zM102 647v153h154v-153h-154zM102 863v153h154v-153h-154zM102 1079v153h154v-153h-154zM323 0v153h153v-153h-153zM323 1295v153h153v-153h-153zM544 0v153h153v-153h-153zM544 1295v153h153v-153h-153zM765 0
v153h153v-153h-153zM765 1295v153h153v-153h-153zM986 216v153h153v-153h-153zM986 432v153h153v-153h-153zM986 647v153h153v-153h-153zM986 863v153h153v-153h-153zM986 1079v153h153v-153h-153z" />
    <glyph glyph-name="p" unicode="p" 
d="M102 0v153h154v-153h-154zM102 216v153h154v-153h-154zM102 432v153h154v-153h-154zM102 647v153h154v-153h-154zM102 863v153h154v-153h-154zM102 1079v153h154v-153h-154zM102 1295v153h154v-153h-154zM323 647v153h153v-153h-153zM323 1295v153h153v-153h-153z
M544 647v153h153v-153h-153zM544 1295v153h153v-153h-153zM765 647v153h153v-153h-153zM765 1295v153h153v-153h-153zM986 863v153h153v-153h-153zM986 1079v153h153v-153h-153z" />
    <glyph glyph-name="q" unicode="q" 
d="M102 216v153h154v-153h-154zM102 432v153h154v-153h-154zM102 647v153h154v-153h-154zM102 863v153h154v-153h-154zM102 1079v153h154v-153h-154zM323 0v153h153v-153h-153zM323 1295v153h153v-153h-153zM544 0v153h153v-153h-153zM544 432v153h153v-153h-153zM544 1295
v153h153v-153h-153zM765 216v153h153v-153h-153zM765 1295v153h153v-153h-153zM986 0v153h153v-153h-153zM986 432v153h153v-153h-153zM986 647v153h153v-153h-153zM986 863v153h153v-153h-153zM986 1079v153h153v-153h-153z" />
    <glyph glyph-name="r" unicode="r" 
d="M102 0v153h154v-153h-154zM102 216v153h154v-153h-154zM102 432v153h154v-153h-154zM102 647v153h154v-153h-154zM102 863v153h154v-153h-154zM102 1079v153h154v-153h-154zM102 1295v153h154v-153h-154zM323 647v153h153v-153h-153zM323 1295v153h153v-153h-153z
M544 432v153h153v-153h-153zM544 647v153h153v-153h-153zM544 1295v153h153v-153h-153zM765 216v153h153v-153h-153zM765 647v153h153v-153h-153zM765 1295v153h153v-153h-153zM986 0v153h153v-153h-153zM986 863v153h153v-153h-153zM986 1079v153h153v-153h-153z" />
    <glyph glyph-name="s" unicode="s" 
d="M102 216v153h154v-153h-154zM102 863v153h154v-153h-154zM102 1079v153h154v-153h-154zM323 0v153h153v-153h-153zM323 647v153h153v-153h-153zM323 1295v153h153v-153h-153zM544 0v153h153v-153h-153zM544 647v153h153v-153h-153zM544 1295v153h153v-153h-153zM765 0
v153h153v-153h-153zM765 647v153h153v-153h-153zM765 1295v153h153v-153h-153zM986 216v153h153v-153h-153zM986 432v153h153v-153h-153zM986 1079v153h153v-153h-153z" />
    <glyph glyph-name="t" unicode="t" 
d="M102 1295v153h154v-153h-154zM323 1295v153h153v-153h-153zM544 0v153h153v-153h-153zM544 216v153h153v-153h-153zM544 432v153h153v-153h-153zM544 647v153h153v-153h-153zM544 863v153h153v-153h-153zM544 1079v153h153v-153h-153zM544 1295v153h153v-153h-153z
M765 1295v153h153v-153h-153zM986 1295v153h153v-153h-153z" />
    <glyph glyph-name="u" unicode="u" 
d="M102 216v153h154v-153h-154zM102 432v153h154v-153h-154zM102 647v153h154v-153h-154zM102 863v153h154v-153h-154zM102 1079v153h154v-153h-154zM102 1295v153h154v-153h-154zM323 0v153h153v-153h-153zM544 0v153h153v-153h-153zM765 0v153h153v-153h-153zM986 216v153
h153v-153h-153zM986 432v153h153v-153h-153zM986 647v153h153v-153h-153zM986 863v153h153v-153h-153zM986 1079v153h153v-153h-153zM986 1295v153h153v-153h-153z" />
    <glyph glyph-name="u" unicode="&#xfb;" 
d="M102 216v153h154v-153h-154zM102 432v153h154v-153h-154zM102 647v153h154v-153h-154zM102 863v153h154v-153h-154zM102 1079v153h154v-153h-154zM102 1295v153h154v-153h-154zM323 0v153h153v-153h-153zM544 0v153h153v-153h-153zM765 0v153h153v-153h-153zM986 216v153
h153v-153h-153zM986 432v153h153v-153h-153zM986 647v153h153v-153h-153zM986 863v153h153v-153h-153zM986 1079v153h153v-153h-153zM986 1295v153h153v-153h-153z" />
    <glyph glyph-name="u" unicode="&#xfa;" 
d="M102 216v153h154v-153h-154zM102 432v153h154v-153h-154zM102 647v153h154v-153h-154zM102 863v153h154v-153h-154zM102 1079v153h154v-153h-154zM102 1295v153h154v-153h-154zM323 0v153h153v-153h-153zM544 0v153h153v-153h-153zM765 0v153h153v-153h-153zM986 216v153
h153v-153h-153zM986 432v153h153v-153h-153zM986 647v153h153v-153h-153zM986 863v153h153v-153h-153zM986 1079v153h153v-153h-153zM986 1295v153h153v-153h-153z" />
    <glyph glyph-name="u" unicode="&#xf9;" 
d="M102 216v153h154v-153h-154zM102 432v153h154v-153h-154zM102 647v153h154v-153h-154zM102 863v153h154v-153h-154zM102 1079v153h154v-153h-154zM102 1295v153h154v-153h-154zM323 0v153h153v-153h-153zM544 0v153h153v-153h-153zM765 0v153h153v-153h-153zM986 216v153
h153v-153h-153zM986 432v153h153v-153h-153zM986 647v153h153v-153h-153zM986 863v153h153v-153h-153zM986 1079v153h153v-153h-153zM986 1295v153h153v-153h-153z" />
    <glyph glyph-name="v" unicode="v" 
d="M102 432v153h154v-153h-154zM102 647v153h154v-153h-154zM102 863v153h154v-153h-154zM102 1079v153h154v-153h-154zM102 1295v153h154v-153h-154zM323 216v153h153v-153h-153zM544 0v153h153v-153h-153zM765 216v153h153v-153h-153zM986 432v153h153v-153h-153zM986 647
v153h153v-153h-153zM986 863v153h153v-153h-153zM986 1079v153h153v-153h-153zM986 1295v153h153v-153h-153z" />
    <glyph glyph-name="w" unicode="w" 
d="M102 0v153h154v-153h-154zM102 216v153h154v-153h-154zM102 432v153h154v-153h-154zM102 647v153h154v-153h-154zM102 863v153h154v-153h-154zM102 1079v153h154v-153h-154zM102 1295v153h154v-153h-154zM323 216v153h153v-153h-153zM544 432v153h153v-153h-153zM544 647
v153h153v-153h-153zM765 216v153h153v-153h-153zM986 0v153h153v-153h-153zM986 216v153h153v-153h-153zM986 432v153h153v-153h-153zM986 647v153h153v-153h-153zM986 863v153h153v-153h-153zM986 1079v153h153v-153h-153zM986 1295v153h153v-153h-153z" />
    <glyph glyph-name="x" unicode="x" 
d="M102 0v153h154v-153h-154zM102 216v153h154v-153h-154zM102 1079v153h154v-153h-154zM102 1295v153h154v-153h-154zM323 432v153h153v-153h-153zM323 863v153h153v-153h-153zM544 647v153h153v-153h-153zM765 432v153h153v-153h-153zM765 863v153h153v-153h-153zM986 0
v153h153v-153h-153zM986 216v153h153v-153h-153zM986 1079v153h153v-153h-153zM986 1295v153h153v-153h-153z" />
    <glyph glyph-name="y" unicode="y" 
d="M102 863v153h154v-153h-154zM102 1079v153h154v-153h-154zM102 1295v153h154v-153h-154zM323 647v153h153v-153h-153zM544 0v153h153v-153h-153zM544 216v153h153v-153h-153zM544 432v153h153v-153h-153zM765 647v153h153v-153h-153zM986 863v153h153v-153h-153z
M986 1079v153h153v-153h-153zM986 1295v153h153v-153h-153z" />
    <glyph glyph-name="y" unicode="&#xfd;" 
d="M102 863v153h154v-153h-154zM102 1079v153h154v-153h-154zM102 1295v153h154v-153h-154zM323 647v153h153v-153h-153zM544 0v153h153v-153h-153zM544 216v153h153v-153h-153zM544 432v153h153v-153h-153zM765 647v153h153v-153h-153zM986 863v153h153v-153h-153z
M986 1079v153h153v-153h-153zM986 1295v153h153v-153h-153z" />
    <glyph glyph-name="z" unicode="z" 
d="M102 0v153h154v-153h-154zM102 216v153h154v-153h-154zM102 1295v153h154v-153h-154zM323 0v153h153v-153h-153zM323 432v153h153v-153h-153zM323 1295v153h153v-153h-153zM544 0v153h153v-153h-153zM544 647v153h153v-153h-153zM544 1295v153h153v-153h-153zM765 0v153
h153v-153h-153zM765 863v153h153v-153h-153zM765 1295v153h153v-153h-153zM986 0v153h153v-153h-153zM986 1079v153h153v-153h-153zM986 1295v153h153v-153h-153z" />
    <glyph glyph-name="uni00A0" unicode="&#xa0;" horiz-adv-x="567" 
 />
    <glyph glyph-name="uni00AD" unicode="&#xad;" horiz-adv-x="0" 
 />
    <glyph glyph-name="divide" unicode="&#xf7;" 
d="M102 647v153h154v-153h-154zM323 647v153h153v-153h-153zM544 206v153h153v-153h-153zM544 647v153h153v-153h-153zM544 1089v153h153v-153h-153zM765 647v153h153v-153h-153zM986 647v153h153v-153h-153z" />
    <glyph glyph-name="uni2000" unicode="&#x2000;" horiz-adv-x="831" 
 />
    <glyph glyph-name="uni2001" unicode="&#x2001;" horiz-adv-x="1663" 
 />
    <glyph glyph-name="uni2002" unicode="&#x2002;" horiz-adv-x="831" 
 />
    <glyph glyph-name="uni2003" unicode="&#x2003;" horiz-adv-x="1663" 
 />
    <glyph glyph-name="uni2004" unicode="&#x2004;" horiz-adv-x="554" 
 />
    <glyph glyph-name="uni2005" unicode="&#x2005;" horiz-adv-x="415" 
 />
    <glyph glyph-name="uni2006" unicode="&#x2006;" horiz-adv-x="277" 
 />
    <glyph glyph-name="uni2007" unicode="&#x2007;" horiz-adv-x="277" 
 />
    <glyph glyph-name="uni2008" unicode="&#x2008;" horiz-adv-x="207" 
 />
    <glyph glyph-name="uni2009" unicode="&#x2009;" horiz-adv-x="332" 
 />
    <glyph glyph-name="uni200A" unicode="&#x200a;" horiz-adv-x="92" 
 />
    <glyph glyph-name="uni2010" unicode="&#x2010;" 
d="M102 647v153h154v-153h-154zM323 647v153h153v-153h-153zM544 647v153h153v-153h-153zM765 647v153h153v-153h-153zM986 647v153h153v-153h-153z" />
    <glyph glyph-name="uni2011" unicode="&#x2011;" 
d="M102 647v153h154v-153h-154zM323 647v153h153v-153h-153zM544 647v153h153v-153h-153zM765 647v153h153v-153h-153zM986 647v153h153v-153h-153z" />
    <glyph glyph-name="figuredash" unicode="&#x2012;" 
d="M102 647v153h154v-153h-154zM323 647v153h153v-153h-153zM544 647v153h153v-153h-153zM765 647v153h153v-153h-153zM986 647v153h153v-153h-153z" />
    <glyph glyph-name="endash" unicode="&#x2013;" horiz-adv-x="1228" 
d="M102 647v153h152v-153h-152zM320 647v153h151v-153h-151zM538 647v153h152v-153h-152zM757 647v153h151v-153h-151zM975 647v153h151v-153h-151z" />
    <glyph glyph-name="emdash" unicode="&#x2014;" horiz-adv-x="2252" 
d="M102 647v153h304v-153h-304zM538 647v153h303v-153h-303zM975 647v153h302v-153h-302zM1411 647v153h303v-153h-303zM1848 647v153h302v-153h-302z" />
    <glyph glyph-name="uni202F" unicode="&#x202f;" horiz-adv-x="332" 
 />
    <glyph glyph-name="uni205F" unicode="&#x205f;" horiz-adv-x="415" 
 />
    <glyph glyph-name="uni25FC" unicode="&#x25fc;" horiz-adv-x="1443" 
d="M0 0v1444h1444v-1444h-1444z" />
  </font>
</defs>
</svg>
